<?xml version="1.0" standalone="no"?>
<!DOCTYPE svg PUBLIC "-//W3C//DTD SVG 1.1//EN" "http://www.w3.org/Graphics/SVG/1.1/DTD/svg11.dtd" >
<svg xmlns="http://www.w3.org/2000/svg">
<metadata>
This is a custom SVG webfont generated by Font Squirrel.
Copyright   : Digitized data copyright  2006 Google Corporation
Foundry     : Ascender Corporation
Foundry URL : httpwwwascendercorpcom
</metadata>
<defs>
<font id="DroidSansBold" horiz-adv-x="1116" >
<font-face units-per-em="2048" ascent="1638" descent="-410" />
<missing-glyph horiz-adv-x="526" />
<glyph unicode=" "  horiz-adv-x="526" />
<glyph unicode="&#x09;" horiz-adv-x="526" />
<glyph unicode="&#xa0;" horiz-adv-x="526" />
<glyph unicode="!" horiz-adv-x="580" d="M116 142q0 46 13.5 78t37 52t55 29t68.5 9q35 0 66 -9t55 -29t37.5 -52t13.5 -78q0 -45 -13.5 -76.5t-37.5 -52.5t-55 -30.5t-66 -9.5q-37 0 -68.5 9.5t-55 30.5t-37 52.5t-13.5 76.5zM120 1447h342l-50 -967h-242z" />
<glyph unicode="&#x22;" horiz-adv-x="957" d="M132 1447h276l-41 -522h-195zM549 1447h277l-41 -522h-195z" />
<glyph unicode="#" horiz-adv-x="1309" d="M45 402v204h274l46 230h-249v206h286l76 403h217l-76 -403h196l77 403h213l-77 -403h237v-206h-276l-47 -230h256v-204h-294l-76 -402h-218l77 402h-192l-75 -402h-213l73 402h-235zM534 606h194l46 230h-194z" />
<glyph unicode="$" d="M97 1034q0 74 28 135t80.5 106t128 73t169.5 37v155h136v-149q86 -5 176 -25t189 -62l-100 -232q-64 26 -134 46t-131 25v-290l38 -13q94 -35 164.5 -71.5t117 -82t69 -102t22.5 -132.5q0 -74 -26 -137.5t-78 -111t-129 -78t-178 -40.5v-203h-136v199q-65 2 -120.5 8 t-104 17t-92.5 26.5t-87 33.5v262q42 -21 91 -40t101.5 -34t106 -26t105.5 -14v315q-8 3 -17 7q-8 3 -16 5.5t-14 4.5q-90 35 -157 72.5t-112 84t-67.5 103t-22.5 128.5zM395 1040q0 -46 25.5 -77t82.5 -52v230q-54 -5 -81 -29t-27 -72zM639 325q58 9 85.5 38.5t27.5 82.5 q0 24 -6 42t-20 33t-35.5 27t-51.5 26v-249z" />
<glyph unicode="%" horiz-adv-x="1785" d="M62 1016q0 107 20 191t62 142t106.5 88.5t153.5 30.5q85 0 150 -30.5t108.5 -88.5t65.5 -142t22 -191t-20 -192t-62.5 -143.5t-108 -90t-155.5 -31.5q-84 0 -148 31.5t-107 90t-65 143.5t-22 192zM312 1014q0 -126 22 -188t72 -62q48 0 71.5 61.5t23.5 188.5 q0 247 -95 247q-50 0 -72 -61t-22 -186zM371 0l803 1447h237l-803 -1447h-237zM1037 438q0 106 19.5 190.5t61 142.5t106 88.5t153.5 30.5q85 0 150 -30.5t108.5 -88.5t66 -142.5t22.5 -190.5q0 -107 -20.5 -192t-63 -143t-108 -89.5t-155.5 -31.5q-84 0 -147.5 31.5 t-106.5 89.5t-64.5 143t-21.5 192zM1285 436q0 -126 22.5 -188t71.5 -62t72 61.5t23 188.5q0 247 -95 247q-49 0 -71.5 -61t-22.5 -186z" />
<glyph unicode="&#x26;" horiz-adv-x="1464" d="M81 391q0 76 18.5 136t52 108.5t81.5 88t108 75.5q-38 45 -64.5 87.5t-42 83.5t-22.5 82t-7 86q0 77 30 137.5t84 104t129 66t164 22.5q85 0 157 -20.5t123.5 -61t81.5 -99t30 -134.5q0 -68 -22.5 -125t-60 -105.5t-88.5 -89t-109 -75.5l257 -265q35 65 61 137.5 t45 145.5h314q-15 -56 -35.5 -118.5t-47 -125.5t-61 -125t-77.5 -119l280 -288h-373l-96 99q-79 -54 -174.5 -86.5t-210.5 -32.5q-119 0 -215.5 30t-165.5 84t-106.5 129.5t-37.5 167.5zM399 420q0 -44 16 -78.5t44 -58.5t66 -36.5t83 -12.5q59 0 109.5 15t93.5 43l-306 327 q-51 -42 -78.5 -89.5t-27.5 -109.5zM484 1111q0 -52 23 -97.5t62 -90.5q76 43 115.5 86.5t39.5 103.5q0 30 -10 51.5t-26.5 35.5t-36.5 20.5t-41 6.5q-22 0 -44 -6t-40.5 -19.5t-30 -36t-11.5 -54.5z" />
<glyph unicode="'" horiz-adv-x="539" d="M132 1447h276l-41 -522h-195z" />
<glyph unicode="(" horiz-adv-x="687" d="M81 555q0 124 18 244.5t54.5 233.5t92.5 217.5t133 196.5h248q-140 -191 -211 -419.5t-71 -470.5q0 -117 17.5 -234t53 -229t88 -217t121.5 -198h-246q-77 89 -133 191t-92.5 213.5t-54.5 230.5t-18 241z" />
<glyph unicode=")" horiz-adv-x="687" d="M60 1447h248q77 -92 133 -196.5t92.5 -217.5t54.5 -233.5t18 -244.5q0 -122 -18 -241t-54.5 -230.5t-92.5 -213.5t-133 -191h-246q69 93 121.5 198t88 217t53.5 229t18 234q0 242 -71.5 470.5t-211.5 419.5z" />
<glyph unicode="*" horiz-adv-x="1104" d="M62 1032l39 247l361 -103l-40 364h259l-40 -364l369 103l32 -249l-336 -24l221 -294l-225 -120l-155 310l-135 -308l-234 118l219 294z" />
<glyph unicode="+" d="M87 606v217h363v365h217v-365h363v-217h-363v-360h-217v360h-363z" />
<glyph unicode="," horiz-adv-x="588" d="M62 -261q15 60 29.5 125.5t28 130t24 126.5t18.5 115h278l14 -23q-13 -54 -32.5 -114t-43 -121.5t-48.5 -122.5t-50 -116h-218z" />
<glyph unicode="-" horiz-adv-x="652" d="M60 420v247h532v-247h-532z" />
<glyph unicode="." horiz-adv-x="578" d="M116 142q0 46 13.5 78t37 52t55 29t68.5 9q35 0 66 -9t55 -29t37.5 -52t13.5 -78q0 -45 -13.5 -76.5t-37.5 -52.5t-55 -30.5t-66 -9.5q-37 0 -68.5 9.5t-55 30.5t-37 52.5t-13.5 76.5z" />
<glyph unicode="/" horiz-adv-x="837" d="M14 0l539 1447h275l-540 -1447h-274z" />
<glyph unicode="0" d="M62 724q0 175 27.5 313.5t87 234.5t153.5 147t227 51q125 0 218 -50.5t155.5 -146.5t93 -234.5t30.5 -314.5t-27 -313.5t-87 -233.5t-154.5 -146.5t-228.5 -50.5q-125 0 -218 50.5t-154.5 146.5t-92 233.5t-30.5 313.5zM367 724q0 -248 42.5 -372.5t147.5 -124.5 q103 0 148 123.5t45 373.5q0 248 -45 373.5t-148 125.5q-52 0 -88 -32t-59 -94t-33 -156t-10 -217z" />
<glyph unicode="1" d="M91 1076l466 371h252v-1447h-306v838q0 25 0.5 61.5t2 75.5t3 78.5t2.5 72.5q-5 -6 -17 -18t-27 -26.5t-30.5 -29t-30.5 -26.5l-166 -134z" />
<glyph unicode="2" d="M77 1261q45 41 93.5 78t107 66t128.5 46t157 17q104 0 187 -28.5t141 -81.5t89.5 -128.5t31.5 -169.5q0 -85 -30 -162.5t-81.5 -152.5t-119 -148.5t-144.5 -150.5l-175 -175v-14h590v-257h-971v213l341 367q64 69 116.5 127.5t90 114t58.5 113t21 123.5q0 74 -44 114.5 t-119 40.5q-78 0 -150 -38.5t-151 -110.5z" />
<glyph unicode="3" d="M56 58v261q45 -24 94.5 -42t99 -30t97.5 -18t91 -6q85 0 141.5 15.5t90 44.5t48 69t14.5 88q0 44 -18.5 80t-59.5 61.5t-107.5 39.5t-163.5 14h-103v214h101q91 0 151.5 16.5t96.5 45t51 66t15 79.5q0 78 -48 121.5t-152 43.5q-48 0 -89 -9.5t-76 -24t-64 -32t-53 -33.5 l-155 204q42 30 91 56t106.5 45t124 30t141.5 11q107 0 194.5 -23t150 -67t96.5 -108t34 -146q0 -76 -24.5 -135.5t-66.5 -104.5t-99 -75.5t-123 -46.5v-6q175 -21 265.5 -106t90.5 -228q0 -95 -34.5 -176t-105 -140t-178 -92.5t-253.5 -33.5q-117 0 -219.5 19.5 t-192.5 58.5z" />
<glyph unicode="4" d="M4 300v213l615 934h281v-909h174v-238h-174v-300h-298v300h-598zM273 538h329v245q0 13 0.5 37t1.5 55t2.5 63.5t3 62.5t3 52t2.5 32h-9q-18 -42 -40 -88.5t-51 -92.5z" />
<glyph unicode="5" d="M85 58v265q35 -20 80.5 -37.5t94.5 -29.5t98.5 -19.5t93.5 -7.5q133 0 202.5 55t69.5 174q0 107 -68 163t-210 56q-25 0 -54.5 -3t-57.5 -8t-54 -10.5t-44 -11.5l-122 66l54 737h765v-259h-499l-24 -284q32 7 74 14t108 7q93 0 173 -29t139.5 -84.5t93.5 -138t34 -189.5 q0 -118 -37 -211.5t-108 -158t-176.5 -99.5t-242.5 -35q-54 0 -107.5 5t-102.5 14.5t-93 24.5t-80 34z" />
<glyph unicode="6" d="M75 615q0 104 11.5 207t40.5 197.5t79 175.5t127 141t184.5 94t250.5 34q21 0 46 -1t50 -2.5t49 -4.5t42 -7v-244q-37 9 -79 14.5t-85 5.5q-134 0 -220 -33.5t-136.5 -92.5t-71.5 -142.5t-26 -184.5h11q20 36 48.5 67t66 53.5t84.5 35t105 12.5q94 0 169.5 -30.5 t127.5 -89t79.5 -143.5t27.5 -195q0 -118 -33 -211t-94.5 -157.5t-148.5 -99t-196 -34.5q-107 0 -200 38t-162 116.5t-108 197.5t-39 283zM379 505q0 -51 12.5 -101t37.5 -90t62.5 -64.5t86.5 -24.5q41 0 74 15t57.5 46.5t37.5 79t13 112.5q0 106 -44 167t-134 61 q-45 0 -83 -18t-64.5 -46.5t-41 -64t-14.5 -72.5z" />
<glyph unicode="7" d="M54 1188v257h998v-192l-527 -1253h-320l515 1188h-666z" />
<glyph unicode="8" d="M71 367q0 75 22 134t59.5 106.5t88 84.5t107.5 64q-48 31 -90.5 67t-74 80t-49.5 97.5t-18 118.5q0 86 36 151t97.5 109t141.5 65.5t168 21.5q90 0 170.5 -21.5t141 -65t96 -109t35.5 -153.5q0 -66 -20 -119t-54.5 -96t-82 -76.5t-103.5 -61.5q58 -30 113 -68t97.5 -85 t68 -105.5t25.5 -130.5q0 -90 -35.5 -163t-100 -124.5t-154 -79.5t-197.5 -28q-116 0 -207.5 27t-153.5 76.5t-94.5 121.5t-32.5 162zM354 385q0 -39 13 -72.5t38.5 -57t63 -37t86.5 -13.5q104 0 155.5 49t51.5 129q0 42 -17 75t-44.5 61t-62 52t-69.5 46l-22 14 q-43 -22 -78.5 -47.5t-61 -55.5t-39.5 -65.5t-14 -77.5zM404 1095q0 -42 12.5 -72t33.5 -53.5t49.5 -41.5t59.5 -36q31 16 58.5 34.5t49 43t34.5 55t13 70.5q0 35 -12 62.5t-33 46.5t-49.5 28.5t-62.5 9.5q-32 0 -60.5 -9.5t-48.5 -28.5t-32 -46.5t-12 -62.5z" />
<glyph unicode="9" d="M62 961q0 118 33.5 211t94.5 158t149 99.5t197 34.5q107 0 200 -38t161 -116t107.5 -198t39.5 -282q0 -104 -11 -207.5t-40.5 -197.5t-79.5 -176t-126.5 -141t-184 -93.5t-252.5 -34.5q-20 0 -45 1t-50 2.5t-49 4t-42 6.5v246q37 -10 79 -15.5t86 -5.5q133 0 219.5 33 t137 93t71.5 143t26 183h-13q-20 -35 -47.5 -66t-65 -53.5t-85 -35.5t-106.5 -13q-94 0 -169 30.5t-127 89t-80 143.5t-28 195zM358 965q0 -105 44.5 -166t135.5 -61q45 0 82.5 17.5t64.5 46.5t41.5 64.5t14.5 72.5q0 50 -12.5 100t-38 90t-62.5 65t-86 25q-41 0 -74.5 -15 t-58 -46t-38 -79t-13.5 -114z" />
<glyph unicode=":" horiz-adv-x="578" d="M116 142q0 46 13.5 78t37 52t55 29t68.5 9q35 0 66 -9t55 -29t37.5 -52t13.5 -78q0 -45 -13.5 -76.5t-37.5 -52.5t-55 -30.5t-66 -9.5q-37 0 -68.5 9.5t-55 30.5t-37 52.5t-13.5 76.5zM116 959q0 47 13.5 79t37 52t55 29t68.5 9q35 0 66 -9t55 -29t37.5 -52t13.5 -79 q0 -44 -13.5 -76.5t-37.5 -52.5t-55 -29.5t-66 -9.5q-37 0 -68.5 9.5t-55 29.5t-37 52.5t-13.5 76.5z" />
<glyph unicode=";" horiz-adv-x="588" d="M62 -261q15 60 29.5 125.5t28 130t24 126.5t18.5 115h278l14 -23q-13 -54 -32.5 -114t-43 -121.5t-48.5 -122.5t-50 -116h-218zM116 959q0 47 13.5 79t37 52t55 29t68.5 9q35 0 66 -9t55 -29t37.5 -52t13.5 -79q0 -44 -13.5 -76.5t-37.5 -52.5t-55 -29.5t-66 -9.5 q-37 0 -68.5 9.5t-55 29.5t-37 52.5t-13.5 76.5z" />
<glyph unicode="&#x3c;" d="M87 635v141l943 491v-237l-637 -314l637 -278v-237z" />
<glyph unicode="=" d="M87 414v217h943v-217h-943zM87 799v215h943v-215h-943z" />
<glyph unicode="&#x3e;" d="M87 201v237l637 278l-637 314v237l943 -491v-141z" />
<glyph unicode="?" horiz-adv-x="930" d="M25 1344q42 25 92 47.5t104 39.5t109.5 27t109.5 10q101 0 182 -24t137.5 -70.5t86.5 -113t30 -151.5q0 -63 -14 -112t-41 -91t-68 -81t-96 -83q-41 -32 -67.5 -56.5t-41 -46t-20 -45t-5.5 -54.5v-60h-262v73q0 51 10.5 92t32 78t55 72.5t81.5 72.5q41 33 70 58.5 t46.5 51t25.5 53t8 64.5q0 56 -38 93t-116 37q-69 0 -147.5 -29t-162.5 -70zM229 142q0 46 13 78t37 52t56 29t69 9q35 0 66 -9t54.5 -29t37.5 -52t14 -78q0 -45 -14 -76.5t-37.5 -52.5t-54.5 -30.5t-66 -9.5q-37 0 -69 9.5t-56 30.5t-37 52.5t-13 76.5z" />
<glyph unicode="@" horiz-adv-x="1756" d="M101 596q0 123 26.5 235t77 209t123.5 175.5t166 134.5t205 86t240 30q156 0 287.5 -50t227 -143.5t149 -227t53.5 -301.5q0 -94 -22 -186t-67.5 -164.5t-114.5 -117.5t-162 -45q-38 0 -71 9t-60.5 26.5t-48 41t-31.5 50.5h-15q-19 -24 -43.5 -47.5t-55 -41.5t-68 -28 t-80.5 -10q-82 0 -146 28t-107.5 80t-66.5 125t-23 161q0 102 31 187t88 147t139.5 96t184.5 34q44 0 91.5 -5t91.5 -13t83 -18t66 -19l-20 -415q-2 -22 -2 -43v-27q0 -41 6 -68t16.5 -42t24 -21t28.5 -6q34 0 60 26.5t43 72t25.5 106.5t8.5 129q0 127 -37.5 226t-104 167.5 t-159 104t-199.5 35.5q-152 0 -267.5 -50.5t-193 -141t-117.5 -214.5t-40 -271q0 -137 34.5 -242.5t103 -177t168.5 -108.5t230 -37q56 0 114.5 6.5t116 18.5t113.5 29t107 37v-190q-93 -42 -206.5 -66t-242.5 -24q-179 0 -320 51t-238 147t-148.5 235t-51.5 315zM704 621 q0 -111 37.5 -160t100.5 -49q41 0 71 19t49.5 54.5t30 84.5t13.5 109l12 219q-20 5 -47 8t-54 3q-59 0 -99.5 -25t-65.5 -65.5t-36.5 -92.5t-11.5 -105z" />
<glyph unicode="A" horiz-adv-x="1317" d="M0 0l470 1453h375l473 -1453h-310l-99 345h-499l-100 -345h-310zM484 602h354l-94 317q-5 18 -17 58.5t-25.5 89.5t-25.5 98.5t-17 83.5q-4 -21 -10 -51t-14.5 -63t-17.5 -66.5t-17 -63.5t-14.5 -52.5t-9.5 -33.5z" />
<glyph unicode="B" horiz-adv-x="1301" d="M182 0v1447h424q136 0 239 -19t172.5 -62t104.5 -113t35 -172q0 -61 -14.5 -114.5t-43.5 -94t-70 -68t-94 -36.5v-10q54 -12 101 -34t82 -61t55.5 -98.5t20.5 -144.5q0 -99 -34.5 -177t-99.5 -132t-157.5 -82.5t-209.5 -28.5h-511zM489 253h180q61 0 102 14t66 40 t36 62.5t11 80.5q0 41 -11 74t-37 57t-68.5 37t-106.5 13h-172v-378zM489 874h159q58 0 96.5 10.5t62.5 31.5t34 52t10 72q0 84 -52 120t-164 36h-146v-322z" />
<glyph unicode="C" horiz-adv-x="1291" d="M118 722q0 164 44.5 301t130.5 236t213 154t291 55q108 0 216.5 -27t207.5 -75l-99 -249q-82 38 -164 67t-161 29q-88 0 -156 -34.5t-114 -98t-69.5 -155t-23.5 -205.5q0 -116 21 -206t65 -152t113 -94t164 -32q88 0 176.5 19.5t192.5 56.5v-258q-47 -19 -93.5 -33 t-95 -23t-99.5 -13.5t-110 -4.5q-167 0 -290 53.5t-203 150.5t-118.5 233.5t-38.5 304.5z" />
<glyph unicode="D" horiz-adv-x="1419" d="M182 0v1447h424q159 0 287.5 -45.5t219.5 -135t140 -222t49 -306.5q0 -184 -50 -322t-144.5 -230.5t-231.5 -139t-313 -46.5h-381zM489 253h113q194 0 291.5 119t97.5 358q0 120 -24.5 208t-70.5 145t-112.5 85t-152.5 28h-142v-943z" />
<glyph unicode="E" horiz-adv-x="1135" d="M182 0v1447h834v-251h-527v-318h490v-251h-490v-374h527v-253h-834z" />
<glyph unicode="F" horiz-adv-x="1112" d="M182 0v1447h830v-251h-528v-373h491v-251h-491v-572h-302z" />
<glyph unicode="G" horiz-adv-x="1468" d="M118 726q0 170 49.5 307.5t146 234t237.5 148.5t323 52q116 0 227 -24.5t203 -64.5l-102 -245q-67 33 -152 56t-178 23q-101 0 -181.5 -35.5t-138 -99.5t-88 -155t-30.5 -203q0 -107 21 -195.5t66.5 -153t117.5 -100t172 -35.5q65 0 110 6t85 13v302h-274v256h574v-751 q-58 -18 -116 -33.5t-121 -26t-132 -16.5t-146 -6q-162 0 -287.5 48t-211 142.5t-130 234t-44.5 321.5z" />
<glyph unicode="H" horiz-adv-x="1470" d="M182 0v1447h307v-567h492v567h306v-1447h-306v625h-492v-625h-307z" />
<glyph unicode="I" horiz-adv-x="789" d="M65 0v174l177 81v937l-177 81v174h659v-174l-177 -81v-937l177 -81v-174h-659z" />
<glyph unicode="J" horiz-adv-x="671" d="M-197 -148q37 -8 77 -14t87 -6q46 0 85 10t68 34t45.5 64.5t16.5 102.5v1404h307v-1395q0 -124 -36 -214t-101 -149t-155 -87t-199 -28q-64 0 -112.5 6.5t-82.5 15.5v256z" />
<glyph unicode="K" horiz-adv-x="1285" d="M182 0v1447h307v-697l121 205l330 492h341l-462 -652l466 -795h-348l-333 602l-115 -85v-517h-307z" />
<glyph unicode="L" horiz-adv-x="1085" d="M182 0v1447h307v-1194h527v-253h-834z" />
<glyph unicode="M" horiz-adv-x="1851" d="M182 0v1447h418l313 -1106h6l332 1106h418v-1447h-286v685q0 26 0.5 58.5t1.5 69t2.5 74.5t2.5 73q4 83 7 174h-8l-343 -1134h-282l-318 1136h-8q6 -92 9 -177q2 -36 3.5 -75t3 -76.5t2 -72t0.5 -62.5v-673h-274z" />
<glyph unicode="N" horiz-adv-x="1587" d="M182 0v1447h387l569 -1084h5q-3 76 -6 149q-1 32 -2.5 65t-2.5 66t-1.5 64t-0.5 55v685h275v-1447h-389l-570 1095h-8q6 -76 9 -152q4 -64 6.5 -134.5t2.5 -127.5v-681h-274z" />
<glyph unicode="O" horiz-adv-x="1532" d="M118 728q0 168 39 305t119 234t202.5 150t289.5 53t288.5 -53t201 -150.5t119 -234.5t39.5 -306q0 -168 -39.5 -305.5t-119.5 -235.5t-202 -151.5t-289 -53.5q-166 0 -288.5 53.5t-202 151.5t-118.5 236t-39 307zM434 726q0 -114 19.5 -204.5t60.5 -153.5t103.5 -96.5 t148.5 -33.5q88 0 151 33.5t103 96.5t59.5 153.5t19.5 204.5t-19.5 204.5t-59.5 153.5t-102.5 97t-149.5 34q-86 0 -149.5 -34t-104.5 -97t-60.5 -153.5t-19.5 -204.5z" />
<glyph unicode="P" horiz-adv-x="1212" d="M182 0v1447h402q140 0 241.5 -31t167 -89t97.5 -141.5t32 -189.5q0 -95 -29 -182t-94.5 -153.5t-173 -106t-266.5 -39.5h-70v-515h-307zM489 766h60q130 0 196 51.5t66 167.5q0 108 -59 159.5t-185 51.5h-78v-430z" />
<glyph unicode="Q" horiz-adv-x="1532" d="M118 728q0 168 39 305t119 234t202.5 150t289.5 53t288.5 -53t201 -150.5t119 -234.5t39.5 -306q0 -118 -19.5 -221.5t-58.5 -188.5t-98 -151.5t-139 -110.5l357 -399h-394l-265 327q-7 0 -13 -1q-5 -1 -10 -1h-10q-166 0 -288.5 53.5t-202 151.5t-118.5 236t-39 307z M434 726q0 -114 19.5 -204.5t60.5 -153.5t103.5 -96.5t148.5 -33.5q88 0 151 33.5t103 96.5t59.5 153.5t19.5 204.5t-19.5 204.5t-59.5 153.5t-102.5 97t-149.5 34q-86 0 -149.5 -34t-104.5 -97t-60.5 -153.5t-19.5 -204.5z" />
<glyph unicode="R" horiz-adv-x="1277" d="M182 0v1447h396q278 0 411 -107t133 -326q0 -74 -20 -134.5t-53 -107.5t-76 -82.5t-91 -58.5q110 -177 197 -315q38 -60 73 -116t62.5 -101t45.5 -71l17 -28h-340l-314 555h-134v-555h-307zM489 805h83q128 0 183.5 51t55.5 150q0 103 -59.5 146.5t-184.5 43.5h-78v-391z " />
<glyph unicode="S" horiz-adv-x="1062" d="M93 67v285q48 -22 96.5 -43.5t98.5 -38.5t100 -26.5t99 -9.5q51 0 87 11t58 31.5t32.5 48.5t10.5 62q0 41 -17 72t-48.5 58t-75.5 53t-98 55q-46 23 -102.5 57t-106.5 84t-83.5 120.5t-33.5 169.5q0 97 32 174t91.5 130t144 80.5t189.5 27.5q53 0 103 -7t99 -19.5 t98.5 -31.5t101.5 -44l-99 -238q-44 20 -83 36t-75.5 27t-71.5 16.5t-71 5.5q-77 0 -118 -41t-41 -110q0 -36 12.5 -64.5t39.5 -53t70 -50.5t105 -58q74 -40 136.5 -81t107.5 -91t69.5 -113.5t24.5 -148.5q0 -97 -33 -175t-97 -132.5t-156.5 -84.5t-212.5 -30 q-105 0 -202.5 22t-180.5 65z" />
<glyph unicode="T" horiz-adv-x="1112" d="M41 1192v255h1031v-255h-362v-1192h-306v1192h-363z" />
<glyph unicode="U" horiz-adv-x="1451" d="M172 515v932h306v-909q0 -81 16 -137.5t47 -93t77.5 -53t109.5 -16.5q129 0 187 75t58 227v907h306v-936q0 -113 -34 -210t-104 -168.5t-175 -112t-246 -40.5q-134 0 -236.5 38t-171 108.5t-104.5 169t-36 219.5z" />
<glyph unicode="V" horiz-adv-x="1236" d="M0 1447h310l245 -871q5 -17 13.5 -56.5t18 -87t18.5 -95t14 -80.5q5 33 14 80.5t18.5 94.5t19 86.5t14.5 57.5l242 871h310l-452 -1447h-335z" />
<glyph unicode="W" horiz-adv-x="1879" d="M0 1447h302l164 -790q3 -15 8.5 -45.5t12.5 -68t14.5 -79t14.5 -81t13 -74t9 -56.5q3 22 8 56t11 72t13.5 78.5t13.5 75.5t11.5 62.5t8.5 39.5l201 810h269l201 -810q3 -12 8.5 -39.5t12 -62.5t13.5 -75.5t13.5 -78.5t11.5 -72t8 -56q3 22 8.5 56.5t12.5 74t14.5 81 t14.5 79t12.5 68t8.5 45.5l164 790h302l-348 -1447h-349l-178 714q-4 15 -9.5 41.5t-12.5 60t-14 70.5t-13 71.5t-10.5 63.5t-5.5 47q-2 -18 -6.5 -47t-10.5 -63t-12.5 -71t-13 -70.5t-12.5 -61t-10 -43.5l-176 -712h-350z" />
<glyph unicode="X" horiz-adv-x="1271" d="M0 0l440 746l-409 701h338l272 -520l265 520h331l-414 -717l448 -730h-350l-296 547l-296 -547h-329z" />
<glyph unicode="Y" horiz-adv-x="1184" d="M0 1447h333l259 -596l261 596h331l-440 -884v-563h-304v553z" />
<glyph unicode="Z" horiz-adv-x="1092" d="M49 0v199l612 995h-594v253h959v-198l-612 -996h630v-253h-995z" />
<glyph unicode="[" horiz-adv-x="671" d="M142 -321v1768h479v-209h-222v-1350h222v-209h-479z" />
<glyph unicode="\" horiz-adv-x="837" d="M12 1447h274l540 -1447h-275z" />
<glyph unicode="]" horiz-adv-x="671" d="M50 -112h221v1350h-221v209h480v-1768h-480v209z" />
<glyph unicode="^" horiz-adv-x="1079" d="M8 515l434 940h142l490 -940h-236l-319 636q-69 -159 -139.5 -320.5t-137.5 -315.5h-234z" />
<glyph unicode="_" horiz-adv-x="833" d="M-4 -182h842v-139h-842v139z" />
<glyph unicode="`" horiz-adv-x="1170" d="M329 1533v20h338q16 -33 37.5 -73.5t44 -80.5t46.5 -77.5t45 -66.5v-26h-201q-34 27 -81 68t-92.5 85t-83 84t-53.5 67z" />
<glyph unicode="a" horiz-adv-x="1164" d="M85 331q0 176 113 259.5t338 92.5l176 6v83q0 69 -39.5 101.5t-111.5 32.5q-71 0 -139 -21t-136 -55l-98 200q83 46 184 73t212 27q207 0 317.5 -97t110.5 -295v-738h-211l-59 150h-8q-33 -44 -65.5 -76t-71.5 -53t-87 -31t-111 -10q-67 0 -124.5 21.5t-99.5 64.5 t-66 109t-24 156zM395 329q0 -70 33.5 -99t88.5 -29q41 0 77 14.5t62 42.5t41 69t15 95v91l-100 -4q-61 -2 -102.5 -16t-66.5 -37t-36.5 -55.5t-11.5 -71.5z" />
<glyph unicode="b" horiz-adv-x="1232" d="M158 0v1540h302v-358q0 -33 -2 -71t-4 -71q-3 -38 -6 -77h12q21 35 48 64.5t62 52t79.5 35.5t98.5 13q86 0 156 -37t120.5 -109t79 -179t28.5 -248q0 -142 -28.5 -249.5t-80 -180t-123.5 -109t-159 -36.5q-56 0 -99 12t-76.5 32t-59 45t-46.5 53h-20l-51 -122h-231z M460 557q0 -80 9.5 -142.5t31.5 -104.5t58 -63.5t89 -21.5q91 0 133 85.5t42 248.5q0 164 -42 245.5t-135 81.5q-50 0 -85 -18.5t-57 -55t-32 -92.5t-12 -130v-33z" />
<glyph unicode="c" horiz-adv-x="1011" d="M101 547q0 166 37 277.5t105 178.5t163.5 96t212.5 29q85 0 169 -21t158 -59l-87 -229q-65 28 -125.5 46.5t-114.5 18.5q-110 0 -159.5 -83.5t-49.5 -251.5q0 -166 49.5 -245t155.5 -79q86 0 156.5 22t143.5 57v-252q-37 -17 -71.5 -31t-69.5 -23t-73.5 -13.5t-81.5 -4.5 q-119 0 -214.5 33t-163.5 101.5t-104 176t-36 256.5z" />
<glyph unicode="d" horiz-adv-x="1232" d="M101 551q0 143 28 250.5t80 180t124.5 109.5t159.5 37q53 0 98 -12.5t80.5 -35t63.5 -51.5t50 -64h10q-6 39 -11 78q-5 34 -8.5 72t-3.5 71v354h302v-1540h-231l-58 144h-13q-21 -34 -47.5 -64t-61.5 -52t-79 -35t-100 -13q-85 0 -155.5 36.5t-121 108.5t-78.5 179 t-28 247zM408 547q0 -163 45 -244.5t141 -81.5q53 0 91 18t61 55.5t34.5 93t12.5 129.5v32q0 81 -10 143t-32.5 104.5t-61.5 64t-97 21.5q-95 0 -139.5 -85.5t-44.5 -249.5z" />
<glyph unicode="e" horiz-adv-x="1178" d="M101 545q0 146 36.5 255t102.5 181.5t158.5 109.5t205.5 37q110 0 198.5 -33.5t150.5 -97.5t95 -158t33 -214v-147h-675q2 -63 20.5 -114t51.5 -86t80 -54t107 -19q51 0 96 5.5t87.5 16.5t84 27t85.5 38v-234q-40 -20 -80 -34.5t-84.5 -24.5t-96 -14.5t-113.5 -4.5 q-118 0 -218 35t-172.5 104.5t-112.5 176t-40 249.5zM412 679h385q-1 51 -13 93.5t-35.5 73.5t-59.5 49t-83 18q-80 0 -133 -56.5t-61 -177.5z" />
<glyph unicode="f" horiz-adv-x="785" d="M41 880v146l166 81v81q0 106 25.5 176t73 111.5t115 58.5t151.5 17q91 0 153.5 -14t106.5 -32l-72 -222q-30 11 -64 20t-79 9q-60 0 -84 -38t-24 -98v-69h225v-227h-225v-880h-302v880h-166z" />
<glyph unicode="g" horiz-adv-x="1118" d="M20 -180q0 60 20.5 104.5t55.5 76.5t79 51.5t90 30.5q-20 9 -40.5 25t-37 36.5t-27 46t-10.5 53.5q0 31 9.5 57t27.5 48t44.5 42t60.5 41q-87 37 -138 120.5t-51 195.5q0 90 27.5 160t81 119t133 75t182.5 26q19 0 44 -2.5t49 -6t45 -7.5t33 -7h376v-165l-161 -50 q20 -34 27.5 -70t7.5 -78q0 -84 -26.5 -153.5t-79 -119t-131.5 -77t-184 -27.5q-23 0 -50 2.5t-39 5.5q-20 -17 -31.5 -35t-11.5 -44q0 -21 13 -33.5t33.5 -19.5t48.5 -9.5t57 -2.5h173q80 0 143.5 -18.5t107.5 -56t67.5 -95.5t23.5 -138q0 -94 -37.5 -170t-112 -129 t-185.5 -81t-257 -28q-113 0 -197 21t-140.5 61.5t-84.5 97t-28 127.5zM282 -156q0 -25 10.5 -48.5t34 -41t62.5 -28t95 -10.5q155 0 233 43.5t78 116.5q0 63 -48.5 83.5t-150.5 20.5h-140q-26 0 -57 -6.5t-56.5 -22t-43 -42t-17.5 -65.5zM391 744q0 -90 33.5 -139.5 t102.5 -49.5q71 0 102.5 49.5t31.5 139.5t-31 142.5t-103 52.5q-136 0 -136 -195z" />
<glyph unicode="h" horiz-adv-x="1271" d="M158 0v1540h302v-313q0 -42 -2 -88t-5 -85q-4 -45 -7 -89h16q49 86 124 124.5t170 38.5q83 0 149.5 -23.5t114 -73t73.5 -126t26 -183.5v-722h-302v646q0 120 -37.5 180t-114.5 60q-58 0 -97.5 -23.5t-63.5 -70.5t-34 -115t-10 -156v-521h-302z" />
<glyph unicode="i" horiz-adv-x="618" d="M146 1393q0 43 12.5 71t35 45.5t52.5 24t64 6.5t63.5 -6.5t51.5 -24t35.5 -45.5t13.5 -71q0 -42 -13.5 -70.5t-35.5 -46t-51.5 -25t-63.5 -7.5t-64 7.5t-52.5 25t-35 46t-12.5 70.5zM158 0v1107h302v-1107h-302z" />
<glyph unicode="j" horiz-adv-x="618" d="M-81 -225q31 -10 57.5 -14.5t60.5 -4.5q24 0 46.5 7.5t39 27t26 51.5t9.5 83v1182h302v-1227q0 -76 -19 -143t-62 -117t-111.5 -78.5t-166.5 -28.5q-48 0 -98.5 7t-83.5 18v237zM146 1393q0 43 12.5 71t35 45.5t52.5 24t64 6.5t63.5 -6.5t51.5 -24t35.5 -45.5t13.5 -71 q0 -42 -13.5 -70.5t-35.5 -46t-51.5 -25t-63.5 -7.5t-64 7.5t-52.5 25t-35 46t-12.5 70.5z" />
<glyph unicode="k" horiz-adv-x="1195" d="M158 0v1540h302v-687l-15 -251h3l111 168l271 337h340l-400 -480l426 -627h-349l-269 426l-118 -81v-345h-302z" />
<glyph unicode="l" horiz-adv-x="618" d="M158 0v1540h302v-1540h-302z" />
<glyph unicode="m" horiz-adv-x="1909" d="M158 0v1107h231l41 -142h16q24 43 57.5 73.5t73 50.5t84 29.5t89.5 9.5q114 0 194 -39.5t122 -123.5h25q24 43 57.5 73.5t74 50.5t85.5 29.5t91 9.5q178 0 268.5 -96.5t90.5 -309.5v-722h-303v646q0 120 -35.5 180t-111.5 60q-108 0 -153.5 -85.5t-45.5 -245.5v-555h-302 v646q0 120 -35.5 180t-112.5 60q-57 0 -95 -23.5t-61 -70.5t-33 -115t-10 -156v-521h-302z" />
<glyph unicode="n" horiz-adv-x="1271" d="M158 0v1107h231l41 -142h16q24 43 58.5 73.5t75 50.5t86 29.5t92.5 9.5q82 0 148 -23.5t113.5 -73t73.5 -126t26 -183.5v-722h-302v646q0 120 -36.5 180t-115.5 60q-59 0 -98.5 -23.5t-63 -70.5t-33.5 -115t-10 -156v-521h-302z" />
<glyph unicode="o" horiz-adv-x="1214" d="M101 555q0 138 35 245t101 179.5t160 110.5t213 38q110 0 202 -38t159 -110.5t104.5 -179.5t37.5 -245t-35.5 -245t-101 -180.5t-160 -111.5t-212.5 -38q-110 0 -202 38t-159 111.5t-104.5 180.5t-37.5 245zM410 555q0 -165 46.5 -248.5t151.5 -83.5q104 0 150.5 84 t46.5 248q0 166 -46.5 247.5t-152.5 81.5q-104 0 -150 -81.5t-46 -247.5z" />
<glyph unicode="p" horiz-adv-x="1232" d="M158 -487v1594h246l42 -144h14q21 34 48 63.5t62 52t79.5 36t98.5 13.5q87 0 157 -37t120.5 -109t78.5 -179t28 -248t-29 -248.5t-81 -180.5t-123.5 -109.5t-157.5 -36.5q-55 0 -98 12t-76.5 32t-59.5 45t-47 53h-15q3 -35 7 -66q3 -25 5.5 -52.5t2.5 -42.5v-448h-302z M460 557q0 -80 9.5 -142.5t31.5 -104.5t58 -63.5t89 -21.5q91 0 133 85.5t42 248.5q0 164 -42 245.5t-135 81.5q-50 0 -85 -18.5t-57 -55t-32 -92.5t-12 -130v-33z" />
<glyph unicode="q" horiz-adv-x="1232" d="M101 551q0 142 28 249.5t80 180t124.5 110t159.5 37.5q55 0 100 -12.5t81 -35t63.5 -51.5t49.5 -64h8l24 142h255v-1594h-302v464q0 19 2.5 47t4.5 55q3 32 6 65h-13q-20 -34 -46.5 -64t-61.5 -52t-79.5 -35t-100.5 -13q-86 0 -156.5 36.5t-121 108.5t-78 179t-27.5 247z M410 547q0 -166 45 -248t141 -82q54 0 91.5 18t60 55t33.5 93t12 130v36q0 81 -9.5 143t-32.5 104.5t-61.5 64t-95.5 21.5q-95 0 -139.5 -85.5t-44.5 -249.5z" />
<glyph unicode="r" horiz-adv-x="880" d="M158 0v1107h229l45 -167h14q24 43 52 77.5t62 59t77 38t99 13.5q11 0 25.5 -0.5t28 -2t25 -3t17.5 -3.5v-283q-8 2 -22 4t-29.5 3t-30 1.5t-24.5 0.5q-59 0 -108 -14.5t-84 -48t-54.5 -87t-19.5 -132.5v-563h-302z" />
<glyph unicode="s" horiz-adv-x="975" d="M97 819q0 77 29.5 135t84 96.5t131.5 58t171 19.5q99 0 188 -23t183 -68l-91 -214q-75 35 -143.5 58t-136.5 23q-62 0 -89 -22t-27 -59q0 -20 7 -35.5t27.5 -31.5t58.5 -35.5t98 -47.5q70 -30 126.5 -60.5t97 -69t62.5 -90t22 -124.5q0 -87 -31.5 -152.5t-90 -109 t-142 -65.5t-186.5 -22q-54 0 -100.5 3.5t-88 11.5t-80 20t-78.5 30v249q42 -21 88 -37.5t91.5 -29t88.5 -19.5t79 -7q41 0 69.5 7.5t47 21t27 31.5t8.5 39t-6.5 37t-29 34.5t-67 42t-118.5 56.5q-72 33 -125 65t-87 71.5t-51 90.5t-17 122z" />
<glyph unicode="t" horiz-adv-x="839" d="M47 880v128l166 101l87 233h193v-235h269v-227h-269v-534q0 -64 31.5 -94.5t83.5 -30.5q44 0 84.5 10t81.5 24v-224q-42 -22 -105 -36.5t-137 -14.5q-73 0 -135 17t-107.5 59t-72 113t-26.5 177v534h-144z" />
<glyph unicode="u" horiz-adv-x="1271" d="M152 385v722h302v-647q0 -119 36.5 -179t115.5 -60q59 0 98.5 23.5t63 70t33.5 115t10 156.5v521h302v-1107h-231l-40 142h-16q-25 -43 -59 -73t-75 -50t-86.5 -29.5t-92.5 -9.5q-81 0 -147.5 23.5t-114 73t-73.5 125.5t-26 183z" />
<glyph unicode="v" horiz-adv-x="1092" d="M0 1107h316l183 -631q17 -56 29.5 -117t15.5 -110h5q3 53 15.5 112t29.5 115l182 631h317l-391 -1107h-311z" />
<glyph unicode="w" horiz-adv-x="1634" d="M0 1107h300l112 -490q9 -39 18.5 -93t17.5 -109t15 -104l11 -77h6q1 18 4.5 48.5t8.5 65t10.5 70.5t11 68t10 56t7.5 34l120 531h333l116 -531q5 -22 13 -67.5t16 -97.5t14 -101t7 -76h6q3 24 10.5 72.5t16.5 104.5t19.5 111.5t19.5 94.5l115 490h296l-301 -1107h-329 l-85 387q-4 17 -10.5 48t-14.5 70t-16.5 83.5t-17.5 87.5q-19 102 -43 220h-6q-23 -118 -42 -221q-8 -43 -16.5 -87.5t-16 -84t-14 -71t-10.5 -49.5l-89 -383h-325z" />
<glyph unicode="x" horiz-adv-x="1110" d="M10 0l375 565l-356 542h342l184 -333l187 333h343l-361 -542l377 -565h-343l-203 358l-203 -358h-342z" />
<glyph unicode="y" horiz-adv-x="1092" d="M0 1107h331l178 -623q16 -51 23.5 -109.5t9.5 -105.5h5q2 23 5.5 50.5t8.5 56.5t11.5 57t13.5 51l174 623h333l-438 -1249q-61 -175 -167 -260t-265 -85q-52 0 -89.5 5.5t-64.5 11.5v239q21 -5 52.5 -9t66.5 -4q48 0 81.5 13t57.5 36.5t41.5 56t30.5 73.5l19 55z" />
<glyph unicode="z" horiz-adv-x="926" d="M54 0v178l453 698h-422v231h764v-196l-437 -680h456v-231h-814z" />
<glyph unicode="{" horiz-adv-x="737" d="M31 445v236q61 0 109 9.5t80.5 30.5t49 55t14.5 81v315q0 73 19 125t68 85.5t133 49t214 15.5v-222q-40 -1 -72 -7t-54.5 -21.5t-34.5 -42t-12 -69.5v-296q-5 -185 -231 -220v-12q114 -16 174 -70.5t57 -147.5v-296q0 -43 12 -69.5t34.5 -42t54.5 -21.5t72 -7v-224 q-130 0 -214 16t-133 49t-68 85.5t-19 125.5v312q0 96 -65 137t-188 41z" />
<glyph unicode="|" d="M450 -460v1994h217v-1994h-217z" />
<glyph unicode="}" horiz-adv-x="737" d="M31 -97q39 1 71 7t54 21.5t34.5 42t12.5 69.5v296q-3 93 57.5 147.5t173.5 70.5v12q-225 35 -231 220v296q0 43 -12.5 69.5t-34.5 42t-54 21.5t-71 7v222q129 0 213.5 -15.5t133.5 -49t67.5 -85.5t18.5 -125v-315q-1 -47 15 -81t48.5 -55t80.5 -30.5t110 -9.5v-236 q-124 0 -189 -41t-65 -137v-312q0 -73 -18.5 -125.5t-67.5 -85.5t-133.5 -49t-213.5 -16v224z" />
<glyph unicode="~" d="M87 545v229q51 54 113.5 81t140.5 27q29 0 54.5 -2.5t53.5 -9.5t62.5 -19t82.5 -32q38 -16 66 -26.5t52 -17t44.5 -9t42.5 -2.5q29 0 59.5 9.5t60 25.5t58 38t53.5 47v-229q-100 -108 -254 -108q-30 0 -55 2.5t-53 9t-63 19t-82 32.5q-37 16 -65 26.5t-51.5 17t-44 9 t-43.5 2.5q-29 0 -59.5 -9.5t-60.5 -25.5t-58 -38t-54 -47z" />
<glyph unicode="&#xa1;" horiz-adv-x="580" d="M116 -365l50 965h242l50 -965h-342zM116 939q0 44 14 76t37.5 52.5t54.5 30t66 9.5q37 0 68.5 -9.5t55.5 -30t37 -52.5t13 -76q0 -47 -13 -79t-37 -52t-55.5 -29t-68.5 -9q-35 0 -66 9t-54.5 29t-37.5 52t-14 79z" />
<glyph unicode="&#xa2;" d="M142 736q0 139 27.5 239.5t79.5 168t125 104.5t164 50v170h176v-162q37 -1 75 -6.5t73 -13.5t66 -18t55 -21l-85 -223q-21 10 -47 19t-54 16.5t-55 12t-51 4.5q-65 0 -110.5 -19.5t-75 -61t-42.5 -104t-13 -149.5q0 -169 56.5 -247.5t184.5 -78.5q75 0 145 18t119 42 v-236q-50 -29 -111.5 -44.5t-129.5 -17.5v-198h-176v204q-92 13 -165 50t-124.5 103t-79 164.5t-27.5 234.5z" />
<glyph unicode="&#xa3;" d="M81 0v246q42 17 75 38t56.5 49.5t35 69.5t11.5 98v143h-176v217h176v193q0 112 31.5 191t86.5 128.5t130.5 72t165.5 22.5q109 0 197.5 -23.5t168.5 -57.5l-93 -228q-70 29 -128 46.5t-120 17.5q-66 0 -103.5 -38.5t-37.5 -132.5v-191h331v-217h-331v-141q0 -55 -13 -95 t-35 -68.5t-48 -48.5t-53 -34h671v-257h-998z" />
<glyph unicode="&#xa4;" d="M91 1037l147 145l125 -126q43 25 93.5 39t100.5 14q54 0 101.5 -13.5t93.5 -41.5l126 128l148 -142l-128 -127q25 -42 39 -93t14 -104q0 -56 -13.5 -104.5t-39.5 -92.5l124 -124l-144 -144l-126 124q-43 -23 -92 -36.5t-103 -13.5q-55 0 -104 12t-92 38l-123 -122 l-145 144l126 124q-53 90 -53 195q0 53 14 102t39 93zM371 716q0 -39 15 -73t40 -59.5t59 -39.5t72 -14q40 0 74.5 14t61 39.5t41 59.5t14.5 73t-14.5 73.5t-41 59.5t-61 40t-74.5 15q-38 0 -72 -15t-59 -40t-40 -59.5t-15 -73.5z" />
<glyph unicode="&#xa5;" d="M8 1447h313l238 -596l242 596h310l-359 -739h192v-176h-242v-137h242v-176h-242v-219h-284v219h-246v176h246v137h-246v176h189z" />
<glyph unicode="&#xa6;" d="M450 346h217v-806h-217v806zM450 728v806h217v-806h-217z" />
<glyph unicode="&#xa7;" horiz-adv-x="985" d="M105 58v205q39 -19 83.5 -36.5t90 -31t89.5 -21.5t82 -8q56 0 92.5 9t59 25t32 36.5t9.5 45.5t-7.5 44.5t-30 38t-62.5 39.5t-105 48q-76 32 -135 63.5t-100 72t-62 91t-21 118.5q0 44 10.5 81t28.5 68t42 56t50 42q-62 40 -96.5 98.5t-34.5 132.5q0 64 28.5 117t81.5 91 t127 58t164 20q101 0 188 -23t171 -60l-81 -188q-67 32 -137 57t-147 25q-80 0 -117 -22.5t-37 -70.5q0 -25 12 -45.5t38 -40t66 -38.5t95 -42q71 -28 128.5 -61.5t99 -74.5t64 -91t22.5 -112q0 -99 -34 -160t-90 -97q62 -40 93 -92t31 -125t-30.5 -132t-87 -100.5 t-137.5 -64.5t-181 -23q-108 0 -192 20.5t-153 57.5zM341 819q0 -63 55.5 -111t172.5 -98l15 -6q15 11 29 25.5t24.5 32t17 39.5t6.5 47q0 32 -10 59t-36 52t-71 49.5t-114 48.5q-18 -7 -34 -20t-28.5 -31t-19.5 -40t-7 -47z" />
<glyph unicode="&#xa8;" horiz-adv-x="1170" d="M246 1391q0 35 10.5 60t29 41.5t43.5 24.5t54 8t54 -8t44 -24.5t30.5 -41.5t11.5 -60q0 -34 -11.5 -58.5t-30.5 -41t-44 -24.5t-54 -8t-54 8t-43.5 24.5t-29 41t-10.5 58.5zM644 1391q0 35 11 60t30 41.5t44.5 24.5t55.5 8q28 0 53 -8t44.5 -24.5t31 -41.5t11.5 -60 q0 -34 -11.5 -58.5t-31 -41t-44.5 -24.5t-53 -8q-59 0 -100 33t-41 99z" />
<glyph unicode="&#xa9;" horiz-adv-x="1686" d="M99 724q0 103 26.5 198t74.5 177.5t116.5 151t151 116.5t178 74.5t197.5 26.5q103 0 198.5 -26.5t178 -74.5t150.5 -116.5t116 -151t75 -177.5t27 -198t-27 -198t-75 -178t-116 -150.5t-150.5 -116t-178 -75t-198.5 -26.5q-102 0 -197.5 26.5t-178 75t-151 116 t-116.5 150.5t-74.5 178t-26.5 198zM240 724q0 -126 47.5 -236t129 -191.5t191.5 -129t235 -47.5q126 0 236 47.5t191.5 129t129 191.5t47.5 236q0 125 -47.5 235t-129 192t-191.5 129.5t-236 47.5q-125 0 -235 -47.5t-191.5 -129.5t-129 -192t-47.5 -235zM456 726 q0 102 26 186.5t78 145.5t130 94.5t182 33.5q82 0 158.5 -22t143.5 -55l-73 -167q-112 58 -215 58q-96 0 -148.5 -73.5t-52.5 -202.5q0 -134 47.5 -206t153.5 -72q56 0 121.5 15t122.5 44v-189q-57 -27 -115.5 -42t-134.5 -15q-106 0 -185 34t-132 95t-80 147t-27 191z" />
<glyph unicode="&#xaa;" horiz-adv-x="735" d="M47 965q0 60 21 101t61 67t99 39.5t133 17.5l89 4q0 62 -29 89t-82 27q-40 0 -88.5 -17t-100.5 -44l-65 134q62 32 135 56.5t163 24.5q67 0 117 -19t83 -54.5t49 -85.5t16 -111v-438h-133l-31 109q-39 -57 -95 -89t-124 -32q-49 0 -89 13.5t-69 41t-44.5 69t-15.5 97.5z M249 967q0 -37 19 -55t46 -18q32 0 57 11t43 30t27 46.5t9 58.5v36l-81 -6q-37 -3 -60.5 -13t-37 -24t-18 -31t-4.5 -35z" />
<glyph unicode="&#xab;" horiz-adv-x="1186" d="M81 542v25l306 451l217 -118l-215 -345l215 -344l-217 -118zM582 542v25l306 451l217 -118l-215 -345l215 -344l-217 -118z" />
<glyph unicode="&#xac;" d="M87 606v217h943v-577h-217v360h-726z" />
<glyph unicode="&#xad;" horiz-adv-x="652" d="M60 420v247h532v-247h-532z" />
<glyph unicode="&#xae;" horiz-adv-x="1686" d="M99 724q0 103 26.5 198t74.5 177.5t116.5 151t151 116.5t178 74.5t197.5 26.5q103 0 198.5 -26.5t178 -74.5t150.5 -116.5t116 -151t75 -177.5t27 -198t-27 -198t-75 -178t-116 -150.5t-150.5 -116t-178 -75t-198.5 -26.5q-102 0 -197.5 26.5t-178 75t-151 116 t-116.5 150.5t-74.5 178t-26.5 198zM240 724q0 -126 47.5 -236t129 -191.5t191.5 -129t235 -47.5q126 0 236 47.5t191.5 129t129 191.5t47.5 236q0 125 -47.5 235t-129 192t-191.5 129.5t-236 47.5q-125 0 -235 -47.5t-191.5 -129.5t-129 -192t-47.5 -235zM538 269v907h261 q180 0 263 -69t83 -211q0 -93 -38 -147.5t-103 -83.5l234 -396h-251l-176 335h-47v-335h-226zM764 770h31q65 0 93.5 28.5t28.5 93.5q0 35 -7.5 57.5t-23 36t-38.5 19t-55 5.5h-29v-240z" />
<glyph unicode="&#xaf;" horiz-adv-x="1013" d="M-6 1540v199h1026v-199h-1026z" />
<glyph unicode="&#xb0;" horiz-adv-x="868" d="M91 1126q0 70 27 132.5t73.5 109t108.5 73.5t134 27q71 0 134 -27t109 -73.5t72.5 -109t26.5 -132.5q0 -72 -26.5 -134t-72.5 -108t-109 -72.5t-134 -26.5q-72 0 -134 26.5t-108.5 72.5t-73.5 108t-27 134zM280 1126q0 -31 12 -58.5t33 -48.5t49 -33.5t60 -12.5 q31 0 59.5 12.5t49 33.5t33 48.5t12.5 58.5t-12.5 59.5t-33 49.5t-49 33.5t-59.5 12.5q-32 0 -60 -12.5t-49 -33.5t-33 -49.5t-12 -59.5z" />
<glyph unicode="&#xb1;" d="M87 0v217h943v-217h-943zM87 667v217h363v365h217v-365h363v-217h-363v-361h-217v361h-363z" />
<glyph unicode="&#xb2;" horiz-adv-x="768" d="M47 1340q64 57 144 92.5t188 35.5q66 0 119.5 -16t92 -47.5t59.5 -77.5t21 -106q0 -46 -12.5 -86t-39 -80.5t-68 -84.5t-101.5 -98l-104 -94h349v-198h-641v166l222 217q46 45 76 77.5t48.5 59.5t26 50t7.5 50q0 38 -24 57.5t-64 19.5q-39 0 -82 -20t-96 -67z" />
<glyph unicode="&#xb3;" horiz-adv-x="768" d="M58 633v188q66 -40 131 -64.5t138 -24.5t107 26.5t34 79.5q0 20 -8 39t-26.5 33.5t-50.5 23t-79 8.5h-111v159h91q52 0 83.5 9t49.5 24t23.5 34.5t5.5 40.5q0 37 -24.5 62t-75.5 25q-46 0 -87.5 -19t-98.5 -58l-100 139q62 47 136.5 77.5t176.5 30.5q62 0 114.5 -16 t90.5 -46t59.5 -72.5t21.5 -94.5q0 -69 -40 -118.5t-128 -78.5v-12q51 -10 87.5 -31t60.5 -48t36 -60t12 -68q0 -120 -87 -189t-271 -69q-76 0 -141 17.5t-130 52.5z" />
<glyph unicode="&#xb4;" horiz-adv-x="1170" d="M329 1229v26q20 29 44 66.5t47.5 77.5t44 80.5t36.5 73.5h339v-20q-11 -18 -32 -42.5t-47.5 -52t-57.5 -57t-62 -57t-60 -52.5t-51 -43h-201z" />
<glyph unicode="&#xb5;" horiz-adv-x="1277" d="M158 -487v1594h302v-647q0 -119 37.5 -179t117.5 -60q57 0 95.5 23.5t62.5 70t34 115t10 156.5v521h302v-1107h-231l-43 148h-11q-35 -84 -87 -126t-126 -42q-54 0 -98.5 23t-72.5 66q2 -41 5 -84q2 -36 3.5 -78t1.5 -77v-317h-302z" />
<glyph unicode="&#xb6;" horiz-adv-x="1327" d="M112 1032q0 145 32 242.5t91 157t141 84t181 24.5h598v-1797h-159v1599h-164v-1599h-161v810q-60 -17 -144 -17q-94 0 -171 25t-131 83.5t-83.5 153.5t-29.5 234z" />
<glyph unicode="&#xb7;" horiz-adv-x="578" d="M116 716q0 46 13.5 78.5t37 52t55 28.5t68.5 9q35 0 66 -9t55 -28.5t37.5 -52t13.5 -78.5q0 -45 -13.5 -77t-37.5 -52.5t-55 -30t-66 -9.5q-37 0 -68.5 9.5t-55 30t-37 52.5t-13.5 77z" />
<glyph unicode="&#xb8;" horiz-adv-x="415" d="M-37 -300q15 -4 33.5 -7.5t37.5 -6.5t37.5 -5t33.5 -2q29 0 50 13.5t21 48.5q0 36 -36.5 64.5t-127.5 42.5l77 152h191l-27 -60q31 -10 60 -27t51 -40t36 -53.5t14 -67.5q0 -56 -15.5 -100.5t-51 -75t-94.5 -47t-145 -16.5q-45 0 -80.5 6t-64.5 15v166z" />
<glyph unicode="&#xb9;" horiz-adv-x="768" d="M91 1215l298 232h189v-867h-235v442q0 19 0.5 49.5t1.5 61t2.5 56.5t2.5 38q-5 -8 -14.5 -18.5t-20 -21.5t-21 -21t-18.5 -17l-77 -60z" />
<glyph unicode="&#xba;" horiz-adv-x="746" d="M56 1105q0 86 22.5 153t63.5 113t100 69.5t133 23.5q68 0 124.5 -23.5t99.5 -69.5t66.5 -113t23.5 -153t-22.5 -153t-64 -113t-99.5 -70.5t-132 -24.5q-68 0 -126 24.5t-100 70.5t-65.5 113t-23.5 153zM257 1105q0 -99 27.5 -149t88.5 -50q60 0 87 50t27 149t-27 148 t-87 49q-61 0 -88.5 -49t-27.5 -148z" />
<glyph unicode="&#xbb;" horiz-adv-x="1186" d="M83 211l215 344l-215 345l217 118l306 -451v-25l-306 -449zM584 211l215 344l-215 345l217 118l306 -451v-25l-306 -449z" />
<glyph unicode="&#xbc;" horiz-adv-x="1785" d="M317 0l803 1447h236l-802 -1447h-237zM45 1215l298 232h189v-867h-235v442q0 19 0.5 49.5t1.5 61t2.5 56.5t2.5 38q-5 -8 -14.5 -18.5t-20 -21.5t-21 -21t-18.5 -17l-77 -60zM927 151v152l381 571h234v-557h123v-166h-123v-150h-236v150h-379zM1110 317h196v162 q0 42 1.5 88t4.5 94q-5 -12 -14.5 -33.5t-20.5 -44t-21.5 -43t-19.5 -34.5z" />
<glyph unicode="&#xbd;" horiz-adv-x="1785" d="M317 0l803 1447h236l-802 -1447h-237zM45 1215l298 232h189v-867h-235v442q0 19 0.5 49.5t1.5 61t2.5 56.5t2.5 38q-5 -8 -14.5 -18.5t-20 -21.5t-21 -21t-18.5 -17l-77 -60zM1051 761q64 57 144 92.5t188 35.5q66 0 119.5 -16t92 -47.5t59.5 -77.5t21 -106 q0 -46 -12.5 -86t-39 -80.5t-68 -84.5t-101.5 -98l-104 -94h349v-198h-641v166l222 217q46 45 76 77.5t48.5 59.5t26 50t7.5 50q0 38 -24 57.5t-64 19.5q-39 0 -82 -20t-96 -67z" />
<glyph unicode="&#xbe;" horiz-adv-x="1785" d="M387 0l803 1447h236l-802 -1447h-237zM956 151v152l381 571h234v-557h123v-166h-123v-150h-236v150h-379zM1139 317h196v162q0 42 1.5 88t4.5 94q-5 -12 -14.5 -33.5t-20.5 -44t-21.5 -43t-19.5 -34.5zM89 633v188q66 -40 131 -64.5t138 -24.5t107 26.5t34 79.5 q0 20 -8 39t-26.5 33.5t-50.5 23t-79 8.5h-111v159h91q52 0 83.5 9t49.5 24t23.5 34.5t5.5 40.5q0 37 -24.5 62t-75.5 25q-46 0 -87.5 -19t-98.5 -58l-100 139q62 47 136.5 77.5t176.5 30.5q62 0 114.5 -16t90.5 -46t59.5 -72.5t21.5 -94.5q0 -69 -40 -118.5t-128 -78.5v-12 q51 -10 87.5 -31t60.5 -48t36 -60t12 -68q0 -120 -87 -189t-271 -69q-76 0 -141 17.5t-130 52.5z" />
<glyph unicode="&#xbf;" horiz-adv-x="930" d="M65 -29q0 63 13.5 112t41.5 91t69 81.5t95 83.5q41 32 67 56.5t41 46t20.5 45.5t5.5 55v58h261v-73q0 -51 -10.5 -92t-31.5 -78t-55 -72t-81 -72q-42 -33 -70.5 -58.5t-46.5 -51t-26 -53t-8 -64.5q0 -56 39 -93t116 -37q68 0 147.5 29.5t162.5 69.5l102 -218 q-43 -26 -93.5 -48.5t-104.5 -39t-109.5 -26.5t-108.5 -10q-101 0 -181.5 24t-137 70t-87 113t-30.5 151zM365 939q0 44 14 76t38 52.5t55 30t66 9.5q36 0 68 -9.5t55.5 -30t37 -52.5t13.5 -76q0 -47 -13.5 -79t-37 -52t-55.5 -29t-68 -9q-35 0 -66 9t-55 29t-38 52t-14 79z " />
<glyph unicode="&#xc0;" horiz-adv-x="1317" d="M0 0l470 1453h375l473 -1453h-310l-99 345h-499l-100 -345h-310zM484 602h354l-94 317q-5 18 -17 58.5t-25.5 89.5t-25.5 98.5t-17 83.5q-4 -21 -10 -51t-14.5 -63t-17.5 -66.5t-17 -63.5t-14.5 -52.5t-9.5 -33.5zM316 1868v20h338q16 -33 37.5 -73.5t44 -80.5 t46.5 -77.5t45 -66.5v-26h-201q-34 27 -81 68t-92.5 85t-83 84t-53.5 67z" />
<glyph unicode="&#xc1;" horiz-adv-x="1317" d="M0 0l470 1453h375l473 -1453h-310l-99 345h-499l-100 -345h-310zM484 602h354l-94 317q-5 18 -17 58.5t-25.5 89.5t-25.5 98.5t-17 83.5q-4 -21 -10 -51t-14.5 -63t-17.5 -66.5t-17 -63.5t-14.5 -52.5t-9.5 -33.5zM489 1564v26q20 29 44 66.5t47.5 77.5t44 80.5 t36.5 73.5h339v-20q-11 -18 -32 -42.5t-47.5 -52t-57.5 -57t-62 -57t-60 -52.5t-51 -43h-201z" />
<glyph unicode="&#xc2;" horiz-adv-x="1317" d="M0 0l470 1453h375l473 -1453h-310l-99 345h-499l-100 -345h-310zM484 602h354l-94 317q-5 18 -17 58.5t-25.5 89.5t-25.5 98.5t-17 83.5q-4 -21 -10 -51t-14.5 -63t-17.5 -66.5t-17 -63.5t-14.5 -52.5t-9.5 -33.5zM251 1564v26q26 29 57 66.5t63.5 77.5t62 80.5 t51.5 73.5h352q21 -33 51 -73.5t62 -80.5t64 -77.5t57 -66.5v-26h-201q-51 33 -105 75.5t-106 98.5q-53 -56 -104.5 -98.5t-102.5 -75.5h-201z" />
<glyph unicode="&#xc3;" horiz-adv-x="1317" d="M0 0l470 1453h375l473 -1453h-310l-99 345h-499l-100 -345h-310zM484 602h354l-94 317q-5 18 -17 58.5t-25.5 89.5t-25.5 98.5t-17 83.5q-4 -21 -10 -51t-14.5 -63t-17.5 -66.5t-17 -63.5t-14.5 -52.5t-9.5 -33.5zM272 1562q6 79 26 136.5t52 95t75.5 56t96.5 18.5 q40 0 78.5 -16t77 -35.5t75.5 -35.5t72 -16q31 0 49 25.5t31 78.5h147q-6 -78 -26 -135.5t-53 -95.5t-76 -56t-94 -18q-40 0 -79.5 16t-77 35.5t-75 36t-72.5 16.5q-31 0 -49.5 -26.5t-29.5 -79.5h-148z" />
<glyph unicode="&#xc4;" horiz-adv-x="1317" d="M0 0l470 1453h375l473 -1453h-310l-99 345h-499l-100 -345h-310zM484 602h354l-94 317q-5 18 -17 58.5t-25.5 89.5t-25.5 98.5t-17 83.5q-4 -21 -10 -51t-14.5 -63t-17.5 -66.5t-17 -63.5t-14.5 -52.5t-9.5 -33.5zM321 1726q0 35 10.5 60t29 41.5t43.5 24.5t54 8t54 -8 t44 -24.5t30.5 -41.5t11.5 -60q0 -34 -11.5 -58.5t-30.5 -41t-44 -24.5t-54 -8t-54 8t-43.5 24.5t-29 41t-10.5 58.5zM719 1726q0 35 11 60t30 41.5t44.5 24.5t55.5 8q28 0 53 -8t44.5 -24.5t31 -41.5t11.5 -60q0 -34 -11.5 -58.5t-31 -41t-44.5 -24.5t-53 -8q-59 0 -100 33 t-41 99z" />
<glyph unicode="&#xc5;" horiz-adv-x="1317" d="M0 0l470 1453h375l473 -1453h-310l-99 345h-499l-100 -345h-310zM484 602h354l-94 317q-5 18 -17 58.5t-25.5 89.5t-25.5 98.5t-17 83.5q-4 -21 -10 -51t-14.5 -63t-17.5 -66.5t-17 -63.5t-14.5 -52.5t-9.5 -33.5zM412 1549q0 55 17.5 98.5t50 73.5t78 46.5t99.5 16.5 q53 0 98.5 -16.5t79.5 -46.5t54 -73t20 -97q0 -55 -19.5 -99t-53.5 -75t-79.5 -47t-99.5 -16t-99.5 16t-78 46.5t-50 74.5t-17.5 98zM562 1549q0 -44 24 -70t71 -26q42 0 68.5 26t26.5 70q0 45 -26.5 70t-68.5 25q-41 0 -68 -25t-27 -70z" />
<glyph unicode="&#xc6;" horiz-adv-x="1869" d="M0 0l648 1447h1101v-251h-526v-318h491v-251h-491v-374h526v-253h-832v345h-457l-148 -345h-312zM572 602h345v584h-96z" />
<glyph unicode="&#xc7;" horiz-adv-x="1291" d="M118 722q0 164 44.5 301t130.5 236t213 154t291 55q108 0 216.5 -27t207.5 -75l-99 -249q-82 38 -164 67t-161 29q-88 0 -156 -34.5t-114 -98t-69.5 -155t-23.5 -205.5q0 -116 21 -206t65 -152t113 -94t164 -32q88 0 176.5 19.5t192.5 56.5v-258q-47 -19 -93.5 -33 t-95 -23t-99.5 -13.5t-110 -4.5q-167 0 -290 53.5t-203 150.5t-118.5 233.5t-38.5 304.5zM466 -300q15 -4 33.5 -7.5t37.5 -6.5t37.5 -5t33.5 -2q29 0 50 13.5t21 48.5q0 36 -36.5 64.5t-127.5 42.5l77 152h191l-27 -60q31 -10 60 -27t51 -40t36 -53.5t14 -67.5 q0 -56 -15.5 -100.5t-51 -75t-94.5 -47t-145 -16.5q-45 0 -80.5 6t-64.5 15v166z" />
<glyph unicode="&#xc8;" horiz-adv-x="1135" d="M182 0v1447h834v-251h-527v-318h490v-251h-490v-374h527v-253h-834zM257 1868v20h338q16 -33 37.5 -73.5t44 -80.5t46.5 -77.5t45 -66.5v-26h-201q-34 27 -81 68t-92.5 85t-83 84t-53.5 67z" />
<glyph unicode="&#xc9;" horiz-adv-x="1135" d="M182 0v1447h834v-251h-527v-318h490v-251h-490v-374h527v-253h-834zM420 1564v26q20 29 44 66.5t47.5 77.5t44 80.5t36.5 73.5h339v-20q-11 -18 -32 -42.5t-47.5 -52t-57.5 -57t-62 -57t-60 -52.5t-51 -43h-201z" />
<glyph unicode="&#xca;" horiz-adv-x="1135" d="M182 0v1447h834v-251h-527v-318h490v-251h-490v-374h527v-253h-834zM205 1564v26q26 29 57 66.5t63.5 77.5t62 80.5t51.5 73.5h352q21 -33 51 -73.5t62 -80.5t64 -77.5t57 -66.5v-26h-201q-51 33 -105 75.5t-106 98.5q-53 -56 -104.5 -98.5t-102.5 -75.5h-201z" />
<glyph unicode="&#xcb;" horiz-adv-x="1135" d="M182 0v1447h834v-251h-527v-318h490v-251h-490v-374h527v-253h-834zM271 1726q0 35 10.5 60t29 41.5t43.5 24.5t54 8t54 -8t44 -24.5t30.5 -41.5t11.5 -60q0 -34 -11.5 -58.5t-30.5 -41t-44 -24.5t-54 -8t-54 8t-43.5 24.5t-29 41t-10.5 58.5zM669 1726q0 35 11 60 t30 41.5t44.5 24.5t55.5 8q28 0 53 -8t44.5 -24.5t31 -41.5t11.5 -60q0 -34 -11.5 -58.5t-31 -41t-44.5 -24.5t-53 -8q-59 0 -100 33t-41 99z" />
<glyph unicode="&#xcc;" horiz-adv-x="789" d="M65 0v174l177 81v937l-177 81v174h659v-174l-177 -81v-937l177 -81v-174h-659zM42 1868v20h338q16 -33 37.5 -73.5t44 -80.5t46.5 -77.5t45 -66.5v-26h-201q-34 27 -81 68t-92.5 85t-83 84t-53.5 67z" />
<glyph unicode="&#xcd;" horiz-adv-x="789" d="M65 0v174l177 81v937l-177 81v174h659v-174l-177 -81v-937l177 -81v-174h-659zM235 1564v26q20 29 44 66.5t47.5 77.5t44 80.5t36.5 73.5h339v-20q-11 -18 -32 -42.5t-47.5 -52t-57.5 -57t-62 -57t-60 -52.5t-51 -43h-201z" />
<glyph unicode="&#xce;" horiz-adv-x="789" d="M65 0v174l177 81v937l-177 81v174h659v-174l-177 -81v-937l177 -81v-174h-659zM-16 1564v26q26 29 57 66.5t63.5 77.5t62 80.5t51.5 73.5h352q21 -33 51 -73.5t62 -80.5t64 -77.5t57 -66.5v-26h-201q-51 33 -105 75.5t-106 98.5q-53 -56 -104.5 -98.5t-102.5 -75.5h-201z " />
<glyph unicode="&#xcf;" horiz-adv-x="789" d="M65 0v174l177 81v937l-177 81v174h659v-174l-177 -81v-937l177 -81v-174h-659zM54 1726q0 35 10.5 60t29 41.5t43.5 24.5t54 8t54 -8t44 -24.5t30.5 -41.5t11.5 -60q0 -34 -11.5 -58.5t-30.5 -41t-44 -24.5t-54 -8t-54 8t-43.5 24.5t-29 41t-10.5 58.5zM452 1726 q0 35 11 60t30 41.5t44.5 24.5t55.5 8q28 0 53 -8t44.5 -24.5t31 -41.5t11.5 -60q0 -34 -11.5 -58.5t-31 -41t-44.5 -24.5t-53 -8q-59 0 -100 33t-41 99z" />
<glyph unicode="&#xd0;" horiz-adv-x="1419" d="M47 590v252h135v605h424q159 0 287.5 -45.5t219.5 -135t140 -222t49 -306.5q0 -184 -50 -322t-144.5 -230.5t-231.5 -139t-313 -46.5h-381v590h-135zM489 253h113q194 0 291.5 119t97.5 358q0 120 -24.5 208t-70.5 145t-112.5 85t-152.5 28h-142v-354h235v-252h-235v-337 z" />
<glyph unicode="&#xd1;" horiz-adv-x="1587" d="M182 0v1447h387l569 -1084h5q-3 76 -6 149q-1 32 -2.5 65t-2.5 66t-1.5 64t-0.5 55v685h275v-1447h-389l-570 1095h-8q6 -76 9 -152q4 -64 6.5 -134.5t2.5 -127.5v-681h-274zM390 1562q6 79 26 136.5t52 95t75.5 56t96.5 18.5q40 0 78.5 -16t77 -35.5t75.5 -35.5t72 -16 q31 0 49 25.5t31 78.5h147q-6 -78 -26 -135.5t-53 -95.5t-76 -56t-94 -18q-40 0 -79.5 16t-77 35.5t-75 36t-72.5 16.5q-31 0 -49.5 -26.5t-29.5 -79.5h-148z" />
<glyph unicode="&#xd2;" horiz-adv-x="1532" d="M118 728q0 168 39 305t119 234t202.5 150t289.5 53t288.5 -53t201 -150.5t119 -234.5t39.5 -306q0 -168 -39.5 -305.5t-119.5 -235.5t-202 -151.5t-289 -53.5q-166 0 -288.5 53.5t-202 151.5t-118.5 236t-39 307zM434 726q0 -114 19.5 -204.5t60.5 -153.5t103.5 -96.5 t148.5 -33.5q88 0 151 33.5t103 96.5t59.5 153.5t19.5 204.5t-19.5 204.5t-59.5 153.5t-102.5 97t-149.5 34q-86 0 -149.5 -34t-104.5 -97t-60.5 -153.5t-19.5 -204.5zM412 1868v20h338q16 -33 37.5 -73.5t44 -80.5t46.5 -77.5t45 -66.5v-26h-201q-34 27 -81 68t-92.5 85 t-83 84t-53.5 67z" />
<glyph unicode="&#xd3;" horiz-adv-x="1532" d="M118 728q0 168 39 305t119 234t202.5 150t289.5 53t288.5 -53t201 -150.5t119 -234.5t39.5 -306q0 -168 -39.5 -305.5t-119.5 -235.5t-202 -151.5t-289 -53.5q-166 0 -288.5 53.5t-202 151.5t-118.5 236t-39 307zM434 726q0 -114 19.5 -204.5t60.5 -153.5t103.5 -96.5 t148.5 -33.5q88 0 151 33.5t103 96.5t59.5 153.5t19.5 204.5t-19.5 204.5t-59.5 153.5t-102.5 97t-149.5 34q-86 0 -149.5 -34t-104.5 -97t-60.5 -153.5t-19.5 -204.5zM584 1564v26q20 29 44 66.5t47.5 77.5t44 80.5t36.5 73.5h339v-20q-11 -18 -32 -42.5t-47.5 -52 t-57.5 -57t-62 -57t-60 -52.5t-51 -43h-201z" />
<glyph unicode="&#xd4;" horiz-adv-x="1532" d="M118 728q0 168 39 305t119 234t202.5 150t289.5 53t288.5 -53t201 -150.5t119 -234.5t39.5 -306q0 -168 -39.5 -305.5t-119.5 -235.5t-202 -151.5t-289 -53.5q-166 0 -288.5 53.5t-202 151.5t-118.5 236t-39 307zM434 726q0 -114 19.5 -204.5t60.5 -153.5t103.5 -96.5 t148.5 -33.5q88 0 151 33.5t103 96.5t59.5 153.5t19.5 204.5t-19.5 204.5t-59.5 153.5t-102.5 97t-149.5 34q-86 0 -149.5 -34t-104.5 -97t-60.5 -153.5t-19.5 -204.5zM346 1564v26q26 29 57 66.5t63.5 77.5t62 80.5t51.5 73.5h352q21 -33 51 -73.5t62 -80.5t64 -77.5 t57 -66.5v-26h-201q-51 33 -105 75.5t-106 98.5q-53 -56 -104.5 -98.5t-102.5 -75.5h-201z" />
<glyph unicode="&#xd5;" horiz-adv-x="1532" d="M118 728q0 168 39 305t119 234t202.5 150t289.5 53t288.5 -53t201 -150.5t119 -234.5t39.5 -306q0 -168 -39.5 -305.5t-119.5 -235.5t-202 -151.5t-289 -53.5q-166 0 -288.5 53.5t-202 151.5t-118.5 236t-39 307zM434 726q0 -114 19.5 -204.5t60.5 -153.5t103.5 -96.5 t148.5 -33.5q88 0 151 33.5t103 96.5t59.5 153.5t19.5 204.5t-19.5 204.5t-59.5 153.5t-102.5 97t-149.5 34q-86 0 -149.5 -34t-104.5 -97t-60.5 -153.5t-19.5 -204.5zM379 1562q6 79 26 136.5t52 95t75.5 56t96.5 18.5q40 0 78.5 -16t77 -35.5t75.5 -35.5t72 -16 q31 0 49 25.5t31 78.5h147q-6 -78 -26 -135.5t-53 -95.5t-76 -56t-94 -18q-40 0 -79.5 16t-77 35.5t-75 36t-72.5 16.5q-31 0 -49.5 -26.5t-29.5 -79.5h-148z" />
<glyph unicode="&#xd6;" horiz-adv-x="1532" d="M118 728q0 168 39 305t119 234t202.5 150t289.5 53t288.5 -53t201 -150.5t119 -234.5t39.5 -306q0 -168 -39.5 -305.5t-119.5 -235.5t-202 -151.5t-289 -53.5q-166 0 -288.5 53.5t-202 151.5t-118.5 236t-39 307zM434 726q0 -114 19.5 -204.5t60.5 -153.5t103.5 -96.5 t148.5 -33.5q88 0 151 33.5t103 96.5t59.5 153.5t19.5 204.5t-19.5 204.5t-59.5 153.5t-102.5 97t-149.5 34q-86 0 -149.5 -34t-104.5 -97t-60.5 -153.5t-19.5 -204.5zM424 1726q0 35 10.5 60t29 41.5t43.5 24.5t54 8t54 -8t44 -24.5t30.5 -41.5t11.5 -60q0 -34 -11.5 -58.5 t-30.5 -41t-44 -24.5t-54 -8t-54 8t-43.5 24.5t-29 41t-10.5 58.5zM822 1726q0 35 11 60t30 41.5t44.5 24.5t55.5 8q28 0 53 -8t44.5 -24.5t31 -41.5t11.5 -60q0 -34 -11.5 -58.5t-31 -41t-44.5 -24.5t-53 -8q-59 0 -100 33t-41 99z" />
<glyph unicode="&#xd7;" d="M108 1014l149 152l298 -296l302 296l153 -148l-302 -302l298 -300l-149 -151l-302 298l-298 -296l-147 151l294 298z" />
<glyph unicode="&#xd8;" horiz-adv-x="1532" d="M118 728q0 168 39 305t119 234t202.5 150t289.5 53q90 0 167 -16.5t141 -46.5l69 110l165 -95l-79 -128q93 -98 139 -242t46 -326q0 -168 -39.5 -305.5t-119.5 -235.5t-202 -151.5t-289 -53.5q-177 0 -304 61l-71 -116l-166 93l81 132q-96 99 -142 246t-46 332zM434 726 q0 -179 46 -292l453 738q-69 43 -165 43q-86 0 -149.5 -34t-104.5 -97t-60.5 -153.5t-19.5 -204.5zM606 276q34 -19 73.5 -28.5t86.5 -9.5q88 0 151 33.5t103 96.5t59.5 153.5t19.5 204.5q0 169 -43 284z" />
<glyph unicode="&#xd9;" horiz-adv-x="1451" d="M172 515v932h306v-909q0 -81 16 -137.5t47 -93t77.5 -53t109.5 -16.5q129 0 187 75t58 227v907h306v-936q0 -113 -34 -210t-104 -168.5t-175 -112t-246 -40.5q-134 0 -236.5 38t-171 108.5t-104.5 169t-36 219.5zM389 1868v20h338q16 -33 37.5 -73.5t44 -80.5t46.5 -77.5 t45 -66.5v-26h-201q-34 27 -81 68t-92.5 85t-83 84t-53.5 67z" />
<glyph unicode="&#xda;" horiz-adv-x="1451" d="M172 515v932h306v-909q0 -81 16 -137.5t47 -93t77.5 -53t109.5 -16.5q129 0 187 75t58 227v907h306v-936q0 -113 -34 -210t-104 -168.5t-175 -112t-246 -40.5q-134 0 -236.5 38t-171 108.5t-104.5 169t-36 219.5zM565 1564v26q20 29 44 66.5t47.5 77.5t44 80.5t36.5 73.5 h339v-20q-11 -18 -32 -42.5t-47.5 -52t-57.5 -57t-62 -57t-60 -52.5t-51 -43h-201z" />
<glyph unicode="&#xdb;" horiz-adv-x="1451" d="M172 515v932h306v-909q0 -81 16 -137.5t47 -93t77.5 -53t109.5 -16.5q129 0 187 75t58 227v907h306v-936q0 -113 -34 -210t-104 -168.5t-175 -112t-246 -40.5q-134 0 -236.5 38t-171 108.5t-104.5 169t-36 219.5zM314 1564v26q26 29 57 66.5t63.5 77.5t62 80.5t51.5 73.5 h352q21 -33 51 -73.5t62 -80.5t64 -77.5t57 -66.5v-26h-201q-51 33 -105 75.5t-106 98.5q-53 -56 -104.5 -98.5t-102.5 -75.5h-201z" />
<glyph unicode="&#xdc;" horiz-adv-x="1451" d="M172 515v932h306v-909q0 -81 16 -137.5t47 -93t77.5 -53t109.5 -16.5q129 0 187 75t58 227v907h306v-936q0 -113 -34 -210t-104 -168.5t-175 -112t-246 -40.5q-134 0 -236.5 38t-171 108.5t-104.5 169t-36 219.5zM390 1726q0 35 10.5 60t29 41.5t43.5 24.5t54 8t54 -8 t44 -24.5t30.5 -41.5t11.5 -60q0 -34 -11.5 -58.5t-30.5 -41t-44 -24.5t-54 -8t-54 8t-43.5 24.5t-29 41t-10.5 58.5zM788 1726q0 35 11 60t30 41.5t44.5 24.5t55.5 8q28 0 53 -8t44.5 -24.5t31 -41.5t11.5 -60q0 -34 -11.5 -58.5t-31 -41t-44.5 -24.5t-53 -8q-59 0 -100 33 t-41 99z" />
<glyph unicode="&#xdd;" horiz-adv-x="1184" d="M0 1447h333l259 -596l261 596h331l-440 -884v-563h-304v553zM418 1564v26q20 29 44 66.5t47.5 77.5t44 80.5t36.5 73.5h339v-20q-11 -18 -32 -42.5t-47.5 -52t-57.5 -57t-62 -57t-60 -52.5t-51 -43h-201z" />
<glyph unicode="&#xde;" horiz-adv-x="1212" d="M182 0v1447h307v-226h159q123 0 212 -33t147 -92.5t86.5 -144.5t28.5 -189q0 -93 -25.5 -178t-83.5 -150.5t-152.5 -104.5t-233.5 -39h-138v-290h-307zM489 538h83q120 0 179.5 52t59.5 172q0 107 -52.5 158t-166.5 51h-103v-433z" />
<glyph unicode="&#xdf;" horiz-adv-x="1381" d="M158 0v1128q0 108 37 187.5t104.5 132t162.5 78t211 25.5q114 0 207 -21t159 -62t101.5 -101.5t35.5 -137.5q0 -64 -21 -112t-52.5 -85.5t-68.5 -66t-68 -52.5t-52.5 -45t-21.5 -42q0 -20 12.5 -37t38.5 -36.5t66.5 -45t97.5 -63.5q48 -30 86 -62.5t64 -70.5t39.5 -83.5 t13.5 -104.5q0 -171 -116 -257t-341 -86q-97 0 -168.5 14.5t-131.5 48.5v239q24 -16 58 -31t72 -27t77.5 -19.5t73.5 -7.5q79 0 122.5 30t43.5 92q0 27 -7 47.5t-27.5 41.5t-57 45t-95.5 58q-63 35 -105 67t-68 63t-37 65.5t-11 73.5q0 53 20.5 91.5t51 69t66.5 56.5t67 52 t51 57t20 70q0 62 -49.5 101t-145.5 39q-107 0 -160 -48t-53 -151v-1117h-302z" />
<glyph unicode="&#xe0;" horiz-adv-x="1164" d="M85 331q0 176 113 259.5t338 92.5l176 6v83q0 69 -39.5 101.5t-111.5 32.5q-71 0 -139 -21t-136 -55l-98 200q83 46 184 73t212 27q207 0 317.5 -97t110.5 -295v-738h-211l-59 150h-8q-33 -44 -65.5 -76t-71.5 -53t-87 -31t-111 -10q-67 0 -124.5 21.5t-99.5 64.5 t-66 109t-24 156zM395 329q0 -70 33.5 -99t88.5 -29q41 0 77 14.5t62 42.5t41 69t15 95v91l-100 -4q-61 -2 -102.5 -16t-66.5 -37t-36.5 -55.5t-11.5 -71.5zM237 1533v20h338q16 -33 37.5 -73.5t44 -80.5t46.5 -77.5t45 -66.5v-26h-201q-34 27 -81 68t-92.5 85t-83 84 t-53.5 67z" />
<glyph unicode="&#xe1;" horiz-adv-x="1164" d="M85 331q0 176 113 259.5t338 92.5l176 6v83q0 69 -39.5 101.5t-111.5 32.5q-71 0 -139 -21t-136 -55l-98 200q83 46 184 73t212 27q207 0 317.5 -97t110.5 -295v-738h-211l-59 150h-8q-33 -44 -65.5 -76t-71.5 -53t-87 -31t-111 -10q-67 0 -124.5 21.5t-99.5 64.5 t-66 109t-24 156zM395 329q0 -70 33.5 -99t88.5 -29q41 0 77 14.5t62 42.5t41 69t15 95v91l-100 -4q-61 -2 -102.5 -16t-66.5 -37t-36.5 -55.5t-11.5 -71.5zM437 1229v26q20 29 44 66.5t47.5 77.5t44 80.5t36.5 73.5h339v-20q-11 -18 -32 -42.5t-47.5 -52t-57.5 -57t-62 -57 t-60 -52.5t-51 -43h-201z" />
<glyph unicode="&#xe2;" horiz-adv-x="1164" d="M85 331q0 176 113 259.5t338 92.5l176 6v83q0 69 -39.5 101.5t-111.5 32.5q-71 0 -139 -21t-136 -55l-98 200q83 46 184 73t212 27q207 0 317.5 -97t110.5 -295v-738h-211l-59 150h-8q-33 -44 -65.5 -76t-71.5 -53t-87 -31t-111 -10q-67 0 -124.5 21.5t-99.5 64.5 t-66 109t-24 156zM395 329q0 -70 33.5 -99t88.5 -29q41 0 77 14.5t62 42.5t41 69t15 95v91l-100 -4q-61 -2 -102.5 -16t-66.5 -37t-36.5 -55.5t-11.5 -71.5zM174 1228v26q26 29 57 66.5t63.5 77.5t62 80.5t51.5 73.5h352q21 -33 51 -73.5t62 -80.5t64 -77.5t57 -66.5v-26 h-201q-51 33 -105 75.5t-106 98.5q-53 -56 -104.5 -98.5t-102.5 -75.5h-201z" />
<glyph unicode="&#xe3;" horiz-adv-x="1164" d="M85 331q0 176 113 259.5t338 92.5l176 6v83q0 69 -39.5 101.5t-111.5 32.5q-71 0 -139 -21t-136 -55l-98 200q83 46 184 73t212 27q207 0 317.5 -97t110.5 -295v-738h-211l-59 150h-8q-33 -44 -65.5 -76t-71.5 -53t-87 -31t-111 -10q-67 0 -124.5 21.5t-99.5 64.5 t-66 109t-24 156zM395 329q0 -70 33.5 -99t88.5 -29q41 0 77 14.5t62 42.5t41 69t15 95v91l-100 -4q-61 -2 -102.5 -16t-66.5 -37t-36.5 -55.5t-11.5 -71.5zM194 1227q6 79 26 136.5t52 95t75.5 56t96.5 18.5q40 0 78.5 -16t77 -35.5t75.5 -35.5t72 -16q31 0 49 25.5 t31 78.5h147q-6 -78 -26 -135.5t-53 -95.5t-76 -56t-94 -18q-40 0 -79.5 16t-77 35.5t-75 36t-72.5 16.5q-31 0 -49.5 -26.5t-29.5 -79.5h-148z" />
<glyph unicode="&#xe4;" horiz-adv-x="1164" d="M85 331q0 176 113 259.5t338 92.5l176 6v83q0 69 -39.5 101.5t-111.5 32.5q-71 0 -139 -21t-136 -55l-98 200q83 46 184 73t212 27q207 0 317.5 -97t110.5 -295v-738h-211l-59 150h-8q-33 -44 -65.5 -76t-71.5 -53t-87 -31t-111 -10q-67 0 -124.5 21.5t-99.5 64.5 t-66 109t-24 156zM395 329q0 -70 33.5 -99t88.5 -29q41 0 77 14.5t62 42.5t41 69t15 95v91l-100 -4q-61 -2 -102.5 -16t-66.5 -37t-36.5 -55.5t-11.5 -71.5zM252 1391q0 35 10.5 60t29 41.5t43.5 24.5t54 8t54 -8t44 -24.5t30.5 -41.5t11.5 -60q0 -34 -11.5 -58.5t-30.5 -41 t-44 -24.5t-54 -8t-54 8t-43.5 24.5t-29 41t-10.5 58.5zM650 1391q0 35 11 60t30 41.5t44.5 24.5t55.5 8q28 0 53 -8t44.5 -24.5t31 -41.5t11.5 -60q0 -34 -11.5 -58.5t-31 -41t-44.5 -24.5t-53 -8q-59 0 -100 33t-41 99z" />
<glyph unicode="&#xe5;" horiz-adv-x="1164" d="M85 331q0 176 113 259.5t338 92.5l176 6v83q0 69 -39.5 101.5t-111.5 32.5q-71 0 -139 -21t-136 -55l-98 200q83 46 184 73t212 27q207 0 317.5 -97t110.5 -295v-738h-211l-59 150h-8q-33 -44 -65.5 -76t-71.5 -53t-87 -31t-111 -10q-67 0 -124.5 21.5t-99.5 64.5 t-66 109t-24 156zM395 329q0 -70 33.5 -99t88.5 -29q41 0 77 14.5t62 42.5t41 69t15 95v91l-100 -4q-61 -2 -102.5 -16t-66.5 -37t-36.5 -55.5t-11.5 -71.5zM337 1462q0 55 17.5 98.5t50 73.5t78 46.5t99.5 16.5q53 0 98.5 -16.5t79.5 -46.5t54 -73t20 -97q0 -55 -19.5 -99 t-53.5 -75t-79.5 -47t-99.5 -16t-99.5 16t-78 46.5t-50 74.5t-17.5 98zM487 1462q0 -44 24 -70t71 -26q42 0 68.5 26t26.5 70q0 45 -26.5 70t-68.5 25q-41 0 -68 -25t-27 -70z" />
<glyph unicode="&#xe6;" horiz-adv-x="1787" d="M85 331q0 176 113 259.5t338 92.5l176 6v83q0 69 -39.5 101.5t-111.5 32.5q-71 0 -139 -21t-136 -55l-98 200q83 46 184 73t212 27q212 0 320 -130q125 128 311 128q110 0 198.5 -33.5t150 -97.5t94.5 -158t33 -214v-147h-675q2 -63 20 -114t51.5 -86t80.5 -54t107 -19 q93 0 179.5 21.5t174.5 65.5v-234q-40 -20 -80 -34.5t-84.5 -24.5t-96 -14.5t-113.5 -4.5q-129 0 -235 50t-175 154q-42 -53 -83.5 -91.5t-90 -63.5t-109.5 -37t-142 -12q-68 0 -128.5 21.5t-106.5 64.5t-73 109t-27 156zM395 329q0 -70 33.5 -99t88.5 -29q41 0 77 14.5 t62 42.5t41 69t15 95v91l-100 -4q-61 -2 -102.5 -16t-66.5 -37t-36.5 -55.5t-11.5 -71.5zM1022 679h385q-1 51 -13 93.5t-35 73.5t-59 49t-83 18q-81 0 -134 -56.5t-61 -177.5z" />
<glyph unicode="&#xe7;" horiz-adv-x="1011" d="M101 547q0 166 37 277.5t105 178.5t163.5 96t212.5 29q85 0 169 -21t158 -59l-87 -229q-65 28 -125.5 46.5t-114.5 18.5q-110 0 -159.5 -83.5t-49.5 -251.5q0 -166 49.5 -245t155.5 -79q86 0 156.5 22t143.5 57v-252q-37 -17 -71.5 -31t-69.5 -23t-73.5 -13.5t-81.5 -4.5 q-119 0 -214.5 33t-163.5 101.5t-104 176t-36 256.5zM319 -300q15 -4 33.5 -7.5t37.5 -6.5t37.5 -5t33.5 -2q29 0 50 13.5t21 48.5q0 36 -36.5 64.5t-127.5 42.5l77 152h191l-27 -60q31 -10 60 -27t51 -40t36 -53.5t14 -67.5q0 -56 -15.5 -100.5t-51 -75t-94.5 -47 t-145 -16.5q-45 0 -80.5 6t-64.5 15v166z" />
<glyph unicode="&#xe8;" horiz-adv-x="1178" d="M101 545q0 146 36.5 255t102.5 181.5t158.5 109.5t205.5 37q110 0 198.5 -33.5t150.5 -97.5t95 -158t33 -214v-147h-675q2 -63 20.5 -114t51.5 -86t80 -54t107 -19q51 0 96 5.5t87.5 16.5t84 27t85.5 38v-234q-40 -20 -80 -34.5t-84.5 -24.5t-96 -14.5t-113.5 -4.5 q-118 0 -218 35t-172.5 104.5t-112.5 176t-40 249.5zM412 679h385q-1 51 -13 93.5t-35.5 73.5t-59.5 49t-83 18q-80 0 -133 -56.5t-61 -177.5zM263 1533v20h338q16 -33 37.5 -73.5t44 -80.5t46.5 -77.5t45 -66.5v-26h-201q-34 27 -81 68t-92.5 85t-83 84t-53.5 67z" />
<glyph unicode="&#xe9;" horiz-adv-x="1178" d="M101 545q0 146 36.5 255t102.5 181.5t158.5 109.5t205.5 37q110 0 198.5 -33.5t150.5 -97.5t95 -158t33 -214v-147h-675q2 -63 20.5 -114t51.5 -86t80 -54t107 -19q51 0 96 5.5t87.5 16.5t84 27t85.5 38v-234q-40 -20 -80 -34.5t-84.5 -24.5t-96 -14.5t-113.5 -4.5 q-118 0 -218 35t-172.5 104.5t-112.5 176t-40 249.5zM412 679h385q-1 51 -13 93.5t-35.5 73.5t-59.5 49t-83 18q-80 0 -133 -56.5t-61 -177.5zM443 1229v26q20 29 44 66.5t47.5 77.5t44 80.5t36.5 73.5h339v-20q-11 -18 -32 -42.5t-47.5 -52t-57.5 -57t-62 -57t-60 -52.5 t-51 -43h-201z" />
<glyph unicode="&#xea;" horiz-adv-x="1178" d="M101 545q0 146 36.5 255t102.5 181.5t158.5 109.5t205.5 37q110 0 198.5 -33.5t150.5 -97.5t95 -158t33 -214v-147h-675q2 -63 20.5 -114t51.5 -86t80 -54t107 -19q51 0 96 5.5t87.5 16.5t84 27t85.5 38v-234q-40 -20 -80 -34.5t-84.5 -24.5t-96 -14.5t-113.5 -4.5 q-118 0 -218 35t-172.5 104.5t-112.5 176t-40 249.5zM412 679h385q-1 51 -13 93.5t-35.5 73.5t-59.5 49t-83 18q-80 0 -133 -56.5t-61 -177.5zM192 1229v26q26 29 57 66.5t63.5 77.5t62 80.5t51.5 73.5h352q21 -33 51 -73.5t62 -80.5t64 -77.5t57 -66.5v-26h-201 q-51 33 -105 75.5t-106 98.5q-53 -56 -104.5 -98.5t-102.5 -75.5h-201z" />
<glyph unicode="&#xeb;" horiz-adv-x="1178" d="M101 545q0 146 36.5 255t102.5 181.5t158.5 109.5t205.5 37q110 0 198.5 -33.5t150.5 -97.5t95 -158t33 -214v-147h-675q2 -63 20.5 -114t51.5 -86t80 -54t107 -19q51 0 96 5.5t87.5 16.5t84 27t85.5 38v-234q-40 -20 -80 -34.5t-84.5 -24.5t-96 -14.5t-113.5 -4.5 q-118 0 -218 35t-172.5 104.5t-112.5 176t-40 249.5zM412 679h385q-1 51 -13 93.5t-35.5 73.5t-59.5 49t-83 18q-80 0 -133 -56.5t-61 -177.5zM264 1391q0 35 10.5 60t29 41.5t43.5 24.5t54 8t54 -8t44 -24.5t30.5 -41.5t11.5 -60q0 -34 -11.5 -58.5t-30.5 -41t-44 -24.5 t-54 -8t-54 8t-43.5 24.5t-29 41t-10.5 58.5zM662 1391q0 35 11 60t30 41.5t44.5 24.5t55.5 8q28 0 53 -8t44.5 -24.5t31 -41.5t11.5 -60q0 -34 -11.5 -58.5t-31 -41t-44.5 -24.5t-53 -8q-59 0 -100 33t-41 99z" />
<glyph unicode="&#xec;" horiz-adv-x="618" d="M158 0v1107h302v-1107h-302zM-43 1533v20h338q16 -33 37.5 -73.5t44 -80.5t46.5 -77.5t45 -66.5v-26h-201q-34 27 -81 68t-92.5 85t-83 84t-53.5 67z" />
<glyph unicode="&#xed;" horiz-adv-x="618" d="M158 0v1107h302v-1107h-302zM144 1229v26q20 29 44 66.5t47.5 77.5t44 80.5t36.5 73.5h339v-20q-11 -18 -32 -42.5t-47.5 -52t-57.5 -57t-62 -57t-60 -52.5t-51 -43h-201z" />
<glyph unicode="&#xee;" horiz-adv-x="618" d="M158 0v1107h302v-1107h-302zM-103 1229v26q26 29 57 66.5t63.5 77.5t62 80.5t51.5 73.5h352q21 -33 51 -73.5t62 -80.5t64 -77.5t57 -66.5v-26h-201q-51 33 -105 75.5t-106 98.5q-53 -56 -104.5 -98.5t-102.5 -75.5h-201z" />
<glyph unicode="&#xef;" horiz-adv-x="618" d="M158 0v1107h302v-1107h-302zM-31 1391q0 35 10.5 60t29 41.5t43.5 24.5t54 8t54 -8t44 -24.5t30.5 -41.5t11.5 -60q0 -34 -11.5 -58.5t-30.5 -41t-44 -24.5t-54 -8t-54 8t-43.5 24.5t-29 41t-10.5 58.5zM367 1391q0 35 11 60t30 41.5t44.5 24.5t55.5 8q28 0 53 -8 t44.5 -24.5t31 -41.5t11.5 -60q0 -34 -11.5 -58.5t-31 -41t-44.5 -24.5t-53 -8q-59 0 -100 33t-41 99z" />
<glyph unicode="&#xf0;" horiz-adv-x="1170" d="M73 484q0 121 32.5 214t90 157t138.5 97t177 33q95 0 162.5 -31t98.5 -80l21 2q-28 87 -78 164t-115 132l-229 -142l-100 154l181 112q-33 21 -71.5 44.5t-80.5 46.5l95 168q72 -33 135.5 -67.5t119.5 -71.5l224 137l99 -152l-172 -105q71 -68 124.5 -145.5t88.5 -167.5 t53 -193t18 -223q0 -140 -35.5 -249t-102 -184.5t-160.5 -114.5t-211 -39q-110 0 -202 34t-159 98t-104.5 157.5t-37.5 214.5zM381 482q0 -62 11.5 -113.5t35.5 -88t62 -57t90 -20.5q105 0 150.5 80.5t45.5 243.5q0 46 -11.5 88.5t-35.5 75.5t-61 52t-88 19 q-107 0 -153 -69.5t-46 -210.5z" />
<glyph unicode="&#xf1;" horiz-adv-x="1271" d="M158 0v1107h231l41 -142h16q24 43 58.5 73.5t75 50.5t86 29.5t92.5 9.5q82 0 148 -23.5t113.5 -73t73.5 -126t26 -183.5v-722h-302v646q0 120 -36.5 180t-115.5 60q-59 0 -98.5 -23.5t-63 -70.5t-33.5 -115t-10 -156v-521h-302zM245 1227q6 79 26 136.5t52 95t75.5 56 t96.5 18.5q40 0 78.5 -16t77 -35.5t75.5 -35.5t72 -16q31 0 49 25.5t31 78.5h147q-6 -78 -26 -135.5t-53 -95.5t-76 -56t-94 -18q-40 0 -79.5 16t-77 35.5t-75 36t-72.5 16.5q-31 0 -49.5 -26.5t-29.5 -79.5h-148z" />
<glyph unicode="&#xf2;" horiz-adv-x="1214" d="M101 555q0 138 35 245t101 179.5t160 110.5t213 38q110 0 202 -38t159 -110.5t104.5 -179.5t37.5 -245t-35.5 -245t-101 -180.5t-160 -111.5t-212.5 -38q-110 0 -202 38t-159 111.5t-104.5 180.5t-37.5 245zM410 555q0 -165 46.5 -248.5t151.5 -83.5q104 0 150.5 84 t46.5 248q0 166 -46.5 247.5t-152.5 81.5q-104 0 -150 -81.5t-46 -247.5zM270 1533v20h338q16 -33 37.5 -73.5t44 -80.5t46.5 -77.5t45 -66.5v-26h-201q-34 27 -81 68t-92.5 85t-83 84t-53.5 67z" />
<glyph unicode="&#xf3;" horiz-adv-x="1214" d="M101 555q0 138 35 245t101 179.5t160 110.5t213 38q110 0 202 -38t159 -110.5t104.5 -179.5t37.5 -245t-35.5 -245t-101 -180.5t-160 -111.5t-212.5 -38q-110 0 -202 38t-159 111.5t-104.5 180.5t-37.5 245zM410 555q0 -165 46.5 -248.5t151.5 -83.5q104 0 150.5 84 t46.5 248q0 166 -46.5 247.5t-152.5 81.5q-104 0 -150 -81.5t-46 -247.5zM430 1229v26q20 29 44 66.5t47.5 77.5t44 80.5t36.5 73.5h339v-20q-11 -18 -32 -42.5t-47.5 -52t-57.5 -57t-62 -57t-60 -52.5t-51 -43h-201z" />
<glyph unicode="&#xf4;" horiz-adv-x="1214" d="M101 555q0 138 35 245t101 179.5t160 110.5t213 38q110 0 202 -38t159 -110.5t104.5 -179.5t37.5 -245t-35.5 -245t-101 -180.5t-160 -111.5t-212.5 -38q-110 0 -202 38t-159 111.5t-104.5 180.5t-37.5 245zM410 555q0 -165 46.5 -248.5t151.5 -83.5q104 0 150.5 84 t46.5 248q0 166 -46.5 247.5t-152.5 81.5q-104 0 -150 -81.5t-46 -247.5zM194 1229v26q26 29 57 66.5t63.5 77.5t62 80.5t51.5 73.5h352q21 -33 51 -73.5t62 -80.5t64 -77.5t57 -66.5v-26h-201q-51 33 -105 75.5t-106 98.5q-53 -56 -104.5 -98.5t-102.5 -75.5h-201z" />
<glyph unicode="&#xf5;" horiz-adv-x="1214" d="M101 555q0 138 35 245t101 179.5t160 110.5t213 38q110 0 202 -38t159 -110.5t104.5 -179.5t37.5 -245t-35.5 -245t-101 -180.5t-160 -111.5t-212.5 -38q-110 0 -202 38t-159 111.5t-104.5 180.5t-37.5 245zM410 555q0 -165 46.5 -248.5t151.5 -83.5q104 0 150.5 84 t46.5 248q0 166 -46.5 247.5t-152.5 81.5q-104 0 -150 -81.5t-46 -247.5zM213 1227q6 79 26 136.5t52 95t75.5 56t96.5 18.5q40 0 78.5 -16t77 -35.5t75.5 -35.5t72 -16q31 0 49 25.5t31 78.5h147q-6 -78 -26 -135.5t-53 -95.5t-76 -56t-94 -18q-40 0 -79.5 16t-77 35.5 t-75 36t-72.5 16.5q-31 0 -49.5 -26.5t-29.5 -79.5h-148z" />
<glyph unicode="&#xf6;" horiz-adv-x="1214" d="M101 555q0 138 35 245t101 179.5t160 110.5t213 38q110 0 202 -38t159 -110.5t104.5 -179.5t37.5 -245t-35.5 -245t-101 -180.5t-160 -111.5t-212.5 -38q-110 0 -202 38t-159 111.5t-104.5 180.5t-37.5 245zM410 555q0 -165 46.5 -248.5t151.5 -83.5q104 0 150.5 84 t46.5 248q0 166 -46.5 247.5t-152.5 81.5q-104 0 -150 -81.5t-46 -247.5zM264 1391q0 35 10.5 60t29 41.5t43.5 24.5t54 8t54 -8t44 -24.5t30.5 -41.5t11.5 -60q0 -34 -11.5 -58.5t-30.5 -41t-44 -24.5t-54 -8t-54 8t-43.5 24.5t-29 41t-10.5 58.5zM662 1391q0 35 11 60 t30 41.5t44.5 24.5t55.5 8q28 0 53 -8t44.5 -24.5t31 -41.5t11.5 -60q0 -34 -11.5 -58.5t-31 -41t-44.5 -24.5t-53 -8q-59 0 -100 33t-41 99z" />
<glyph unicode="&#xf7;" d="M87 606v217h943v-217h-943zM420 369q0 42 11 70.5t29.5 46t44 25.5t52.5 8q28 0 53 -8t43.5 -25.5t30 -46t11.5 -70.5q0 -39 -11.5 -68t-30 -47t-43.5 -26.5t-53 -8.5q-27 0 -52.5 8.5t-44 26.5t-29.5 47t-11 68zM420 1060q0 42 11 70.5t29.5 46.5t44 26t52.5 8 q28 0 53 -8t43.5 -26t30 -46.5t11.5 -70.5q0 -39 -11.5 -67.5t-30 -46.5t-43.5 -26.5t-53 -8.5q-27 0 -52.5 8.5t-44 26.5t-29.5 46.5t-11 67.5z" />
<glyph unicode="&#xf8;" horiz-adv-x="1214" d="M101 555q0 138 35 245t101 179.5t160 110.5t213 38q61 0 118 -13t108 -36l48 78l158 -95l-61 -97q62 -71 97 -174.5t35 -235.5q0 -138 -35.5 -245t-101 -180.5t-160 -111.5t-212.5 -38q-57 0 -108 10t-99 28l-56 -93l-161 89l68 110q-69 73 -108 181.5t-39 249.5z M410 555q0 -85 12 -149l280 453q-40 25 -96 25q-104 0 -150 -81.5t-46 -247.5zM534 238q16 -8 34.5 -11.5t39.5 -3.5q104 0 150.5 84t46.5 248q0 64 -6 112z" />
<glyph unicode="&#xf9;" horiz-adv-x="1271" d="M152 385v722h302v-647q0 -119 36.5 -179t115.5 -60q59 0 98.5 23.5t63 70t33.5 115t10 156.5v521h302v-1107h-231l-40 142h-16q-25 -43 -59 -73t-75 -50t-86.5 -29.5t-92.5 -9.5q-81 0 -147.5 23.5t-114 73t-73.5 125.5t-26 183zM268 1533v20h338q16 -33 37.5 -73.5 t44 -80.5t46.5 -77.5t45 -66.5v-26h-201q-34 27 -81 68t-92.5 85t-83 84t-53.5 67z" />
<glyph unicode="&#xfa;" horiz-adv-x="1271" d="M152 385v722h302v-647q0 -119 36.5 -179t115.5 -60q59 0 98.5 23.5t63 70t33.5 115t10 156.5v521h302v-1107h-231l-40 142h-16q-25 -43 -59 -73t-75 -50t-86.5 -29.5t-92.5 -9.5q-81 0 -147.5 23.5t-114 73t-73.5 125.5t-26 183zM457 1229v26q20 29 44 66.5t47.5 77.5 t44 80.5t36.5 73.5h339v-20q-11 -18 -32 -42.5t-47.5 -52t-57.5 -57t-62 -57t-60 -52.5t-51 -43h-201z" />
<glyph unicode="&#xfb;" horiz-adv-x="1271" d="M152 385v722h302v-647q0 -119 36.5 -179t115.5 -60q59 0 98.5 23.5t63 70t33.5 115t10 156.5v521h302v-1107h-231l-40 142h-16q-25 -43 -59 -73t-75 -50t-86.5 -29.5t-92.5 -9.5q-81 0 -147.5 23.5t-114 73t-73.5 125.5t-26 183zM215 1229v26q26 29 57 66.5t63.5 77.5 t62 80.5t51.5 73.5h352q21 -33 51 -73.5t62 -80.5t64 -77.5t57 -66.5v-26h-201q-51 33 -105 75.5t-106 98.5q-53 -56 -104.5 -98.5t-102.5 -75.5h-201z" />
<glyph unicode="&#xfc;" horiz-adv-x="1271" d="M152 385v722h302v-647q0 -119 36.5 -179t115.5 -60q59 0 98.5 23.5t63 70t33.5 115t10 156.5v521h302v-1107h-231l-40 142h-16q-25 -43 -59 -73t-75 -50t-86.5 -29.5t-92.5 -9.5q-81 0 -147.5 23.5t-114 73t-73.5 125.5t-26 183zM293 1391q0 35 10.5 60t29 41.5 t43.5 24.5t54 8t54 -8t44 -24.5t30.5 -41.5t11.5 -60q0 -34 -11.5 -58.5t-30.5 -41t-44 -24.5t-54 -8t-54 8t-43.5 24.5t-29 41t-10.5 58.5zM691 1391q0 35 11 60t30 41.5t44.5 24.5t55.5 8q28 0 53 -8t44.5 -24.5t31 -41.5t11.5 -60q0 -34 -11.5 -58.5t-31 -41t-44.5 -24.5 t-53 -8q-59 0 -100 33t-41 99z" />
<glyph unicode="&#xfd;" horiz-adv-x="1092" d="M0 1107h331l178 -623q16 -51 23.5 -109.5t9.5 -105.5h5q2 23 5.5 50.5t8.5 56.5t11.5 57t13.5 51l174 623h333l-438 -1249q-61 -175 -167 -260t-265 -85q-52 0 -89.5 5.5t-64.5 11.5v239q21 -5 52.5 -9t66.5 -4q48 0 81.5 13t57.5 36.5t41.5 56t30.5 73.5l19 55z M389 1229v26q20 29 44 66.5t47.5 77.5t44 80.5t36.5 73.5h339v-20q-11 -18 -32 -42.5t-47.5 -52t-57.5 -57t-62 -57t-60 -52.5t-51 -43h-201z" />
<glyph unicode="&#xfe;" horiz-adv-x="1232" d="M158 -487v2027h302v-387q0 -23 -2 -56t-5 -62q-4 -35 -7 -72h14q20 35 47.5 64.5t63 52t79.5 35.5t98 13q86 0 156 -37t120.5 -109t79 -179t28.5 -248t-28 -248.5t-78.5 -180.5t-120.5 -109.5t-157 -36.5q-54 0 -98.5 10.5t-79.5 29.5t-62 43.5t-48 52.5h-14q3 -32 7 -62 q3 -25 5 -51t2 -42v-448h-302zM460 557q0 -80 9.5 -142.5t31.5 -104.5t58 -63.5t89 -21.5q91 0 133 85.5t42 248.5q0 164 -42 245.5t-135 81.5q-50 0 -85 -18.5t-57 -55t-32 -92.5t-12 -130v-33z" />
<glyph unicode="&#xff;" horiz-adv-x="1092" d="M0 1107h331l178 -623q16 -51 23.5 -109.5t9.5 -105.5h5q2 23 5.5 50.5t8.5 56.5t11.5 57t13.5 51l174 623h333l-438 -1249q-61 -175 -167 -260t-265 -85q-52 0 -89.5 5.5t-64.5 11.5v239q21 -5 52.5 -9t66.5 -4q48 0 81.5 13t57.5 36.5t41.5 56t30.5 73.5l19 55z M208 1391q0 35 10.5 60t29 41.5t43.5 24.5t54 8t54 -8t44 -24.5t30.5 -41.5t11.5 -60q0 -34 -11.5 -58.5t-30.5 -41t-44 -24.5t-54 -8t-54 8t-43.5 24.5t-29 41t-10.5 58.5zM606 1391q0 35 11 60t30 41.5t44.5 24.5t55.5 8q28 0 53 -8t44.5 -24.5t31 -41.5t11.5 -60 q0 -34 -11.5 -58.5t-31 -41t-44.5 -24.5t-53 -8q-59 0 -100 33t-41 99z" />
<glyph unicode="&#x100;" horiz-adv-x="1317" d="M0 0l470 1453h375l473 -1453h-310l-99 345h-499l-100 -345h-310zM484 602h354l-94 317q-5 18 -17 58.5t-25.5 89.5t-25.5 98.5t-17 83.5q-4 -21 -10 -51t-14.5 -63t-17.5 -66.5t-17 -63.5t-14.5 -52.5t-9.5 -33.5zM354 1564v208h611v-208h-611z" />
<glyph unicode="&#x101;" horiz-adv-x="1164" d="M85 331q0 176 113 259.5t338 92.5l176 6v83q0 69 -39.5 101.5t-111.5 32.5q-71 0 -139 -21t-136 -55l-98 200q83 46 184 73t212 27q207 0 317.5 -97t110.5 -295v-738h-211l-59 150h-8q-33 -44 -65.5 -76t-71.5 -53t-87 -31t-111 -10q-67 0 -124.5 21.5t-99.5 64.5 t-66 109t-24 156zM395 329q0 -70 33.5 -99t88.5 -29q41 0 77 14.5t62 42.5t41 69t15 95v91l-100 -4q-61 -2 -102.5 -16t-66.5 -37t-36.5 -55.5t-11.5 -71.5zM275 1229v208h611v-208h-611z" />
<glyph unicode="&#x102;" horiz-adv-x="1317" d="M0 0l470 1453h375l473 -1453h-310l-99 345h-499l-100 -345h-310zM484 602h354l-94 317q-5 18 -17 58.5t-25.5 89.5t-25.5 98.5t-17 83.5q-4 -21 -10 -51t-14.5 -63t-17.5 -66.5t-17 -63.5t-14.5 -52.5t-9.5 -33.5zM300 1898h168q4 -42 18 -67t37.5 -37.5t57 -16 t76.5 -3.5q36 0 68 4.5t57.5 18t42 38t20.5 63.5h172q-4 -74 -30 -135.5t-71.5 -105.5t-111 -68.5t-149.5 -24.5q-87 0 -152.5 23.5t-109 67t-66.5 105.5t-27 138z" />
<glyph unicode="&#x103;" horiz-adv-x="1164" d="M85 331q0 176 113 259.5t338 92.5l176 6v83q0 69 -39.5 101.5t-111.5 32.5q-71 0 -139 -21t-136 -55l-98 200q83 46 184 73t212 27q207 0 317.5 -97t110.5 -295v-738h-211l-59 150h-8q-33 -44 -65.5 -76t-71.5 -53t-87 -31t-111 -10q-67 0 -124.5 21.5t-99.5 64.5 t-66 109t-24 156zM395 329q0 -70 33.5 -99t88.5 -29q41 0 77 14.5t62 42.5t41 69t15 95v91l-100 -4q-61 -2 -102.5 -16t-66.5 -37t-36.5 -55.5t-11.5 -71.5zM237 1563h168q4 -42 18 -67t37.5 -37.5t57 -16t76.5 -3.5q36 0 68 4.5t57.5 18t42 38t20.5 63.5h172 q-4 -74 -30 -135.5t-71.5 -105.5t-111 -68.5t-149.5 -24.5q-87 0 -152.5 23.5t-109 67t-66.5 105.5t-27 138z" />
<glyph unicode="&#x104;" horiz-adv-x="1317" d="M0 0l470 1453h375l473 -1453h-310l-99 345h-499l-100 -345h-310zM484 602h354l-94 317q-5 18 -17 58.5t-25.5 89.5t-25.5 98.5t-17 83.5q-4 -21 -10 -51t-14.5 -63t-17.5 -66.5t-17 -63.5t-14.5 -52.5t-9.5 -33.5zM831 -259q0 42 14 77.5t38 67t56.5 59t69.5 55.5h177 q-69 -65 -107.5 -119t-38.5 -106q0 -41 22 -61t57 -20q32 0 63 6t51 12v-176q-32 -9 -68.5 -16t-86.5 -7q-57 0 -102.5 17t-77.5 47t-49.5 71.5t-17.5 92.5z" />
<glyph unicode="&#x105;" horiz-adv-x="1164" d="M85 331q0 176 113 259.5t338 92.5l176 6v83q0 69 -39.5 101.5t-111.5 32.5q-71 0 -139 -21t-136 -55l-98 200q83 46 184 73t212 27q207 0 317.5 -97t110.5 -295v-738h-211l-59 150h-8q-33 -44 -65.5 -76t-71.5 -53t-87 -31t-111 -10q-67 0 -124.5 21.5t-99.5 64.5 t-66 109t-24 156zM395 329q0 -70 33.5 -99t88.5 -29q41 0 77 14.5t62 42.5t41 69t15 95v91l-100 -4q-61 -2 -102.5 -16t-66.5 -37t-36.5 -55.5t-11.5 -71.5zM625 -259q0 42 14 77.5t38 67t56.5 59t69.5 55.5h177q-69 -65 -107.5 -119t-38.5 -106q0 -41 22 -61t57 -20 q32 0 63 6t51 12v-176q-32 -9 -68.5 -16t-86.5 -7q-57 0 -102.5 17t-77.5 47t-49.5 71.5t-17.5 92.5z" />
<glyph unicode="&#x106;" horiz-adv-x="1291" d="M118 722q0 164 44.5 301t130.5 236t213 154t291 55q108 0 216.5 -27t207.5 -75l-99 -249q-82 38 -164 67t-161 29q-88 0 -156 -34.5t-114 -98t-69.5 -155t-23.5 -205.5q0 -116 21 -206t65 -152t113 -94t164 -32q88 0 176.5 19.5t192.5 56.5v-258q-47 -19 -93.5 -33 t-95 -23t-99.5 -13.5t-110 -4.5q-167 0 -290 53.5t-203 150.5t-118.5 233.5t-38.5 304.5zM633 1564v26q20 29 44 66.5t47.5 77.5t44 80.5t36.5 73.5h339v-20q-11 -18 -32 -42.5t-47.5 -52t-57.5 -57t-62 -57t-60 -52.5t-51 -43h-201z" />
<glyph unicode="&#x107;" horiz-adv-x="1011" d="M101 547q0 166 37 277.5t105 178.5t163.5 96t212.5 29q85 0 169 -21t158 -59l-87 -229q-65 28 -125.5 46.5t-114.5 18.5q-110 0 -159.5 -83.5t-49.5 -251.5q0 -166 49.5 -245t155.5 -79q86 0 156.5 22t143.5 57v-252q-37 -17 -71.5 -31t-69.5 -23t-73.5 -13.5t-81.5 -4.5 q-119 0 -214.5 33t-163.5 101.5t-104 176t-36 256.5zM459 1229v26q20 29 44 66.5t47.5 77.5t44 80.5t36.5 73.5h339v-20q-11 -18 -32 -42.5t-47.5 -52t-57.5 -57t-62 -57t-60 -52.5t-51 -43h-201z" />
<glyph unicode="&#x108;" horiz-adv-x="1291" d="M118 722q0 164 44.5 301t130.5 236t213 154t291 55q108 0 216.5 -27t207.5 -75l-99 -249q-82 38 -164 67t-161 29q-88 0 -156 -34.5t-114 -98t-69.5 -155t-23.5 -205.5q0 -116 21 -206t65 -152t113 -94t164 -32q88 0 176.5 19.5t192.5 56.5v-258q-47 -19 -93.5 -33 t-95 -23t-99.5 -13.5t-110 -4.5q-167 0 -290 53.5t-203 150.5t-118.5 233.5t-38.5 304.5zM352 1564v26q26 29 57 66.5t63.5 77.5t62 80.5t51.5 73.5h352q21 -33 51 -73.5t62 -80.5t64 -77.5t57 -66.5v-26h-201q-51 33 -105 75.5t-106 98.5q-53 -56 -104.5 -98.5 t-102.5 -75.5h-201z" />
<glyph unicode="&#x109;" horiz-adv-x="1011" d="M101 547q0 166 37 277.5t105 178.5t163.5 96t212.5 29q85 0 169 -21t158 -59l-87 -229q-65 28 -125.5 46.5t-114.5 18.5q-110 0 -159.5 -83.5t-49.5 -251.5q0 -166 49.5 -245t155.5 -79q86 0 156.5 22t143.5 57v-252q-37 -17 -71.5 -31t-69.5 -23t-73.5 -13.5t-81.5 -4.5 q-119 0 -214.5 33t-163.5 101.5t-104 176t-36 256.5zM167 1229v26q26 29 57 66.5t63.5 77.5t62 80.5t51.5 73.5h352q21 -33 51 -73.5t62 -80.5t64 -77.5t57 -66.5v-26h-201q-51 33 -105 75.5t-106 98.5q-53 -56 -104.5 -98.5t-102.5 -75.5h-201z" />
<glyph unicode="&#x10a;" horiz-adv-x="1291" d="M118 722q0 164 44.5 301t130.5 236t213 154t291 55q108 0 216.5 -27t207.5 -75l-99 -249q-82 38 -164 67t-161 29q-88 0 -156 -34.5t-114 -98t-69.5 -155t-23.5 -205.5q0 -116 21 -206t65 -152t113 -94t164 -32q88 0 176.5 19.5t192.5 56.5v-258q-47 -19 -93.5 -33 t-95 -23t-99.5 -13.5t-110 -4.5q-167 0 -290 53.5t-203 150.5t-118.5 233.5t-38.5 304.5zM618 1728q0 43 12.5 71t35 45.5t52.5 24t64 6.5t63.5 -6.5t51.5 -24t35.5 -45.5t13.5 -71q0 -42 -13.5 -70.5t-35.5 -46t-51.5 -25t-63.5 -7.5t-64 7.5t-52.5 25t-35 46t-12.5 70.5z " />
<glyph unicode="&#x10b;" horiz-adv-x="1011" d="M101 547q0 166 37 277.5t105 178.5t163.5 96t212.5 29q85 0 169 -21t158 -59l-87 -229q-65 28 -125.5 46.5t-114.5 18.5q-110 0 -159.5 -83.5t-49.5 -251.5q0 -166 49.5 -245t155.5 -79q86 0 156.5 22t143.5 57v-252q-37 -17 -71.5 -31t-69.5 -23t-73.5 -13.5t-81.5 -4.5 q-119 0 -214.5 33t-163.5 101.5t-104 176t-36 256.5zM440 1393q0 43 12.5 71t35 45.5t52.5 24t64 6.5t63.5 -6.5t51.5 -24t35.5 -45.5t13.5 -71q0 -42 -13.5 -70.5t-35.5 -46t-51.5 -25t-63.5 -7.5t-64 7.5t-52.5 25t-35 46t-12.5 70.5z" />
<glyph unicode="&#x10c;" horiz-adv-x="1291" d="M118 722q0 164 44.5 301t130.5 236t213 154t291 55q108 0 216.5 -27t207.5 -75l-99 -249q-82 38 -164 67t-161 29q-88 0 -156 -34.5t-114 -98t-69.5 -155t-23.5 -205.5q0 -116 21 -206t65 -152t113 -94t164 -32q88 0 176.5 19.5t192.5 56.5v-258q-47 -19 -93.5 -33 t-95 -23t-99.5 -13.5t-110 -4.5q-167 0 -290 53.5t-203 150.5t-118.5 233.5t-38.5 304.5zM358 1862v26h201q51 -33 102.5 -76t104.5 -98q52 55 106 98t105 76h201v-26q-25 -29 -57 -66.5t-64 -78t-62 -80t-51 -73.5h-352q-22 34 -51.5 73.5t-62 80t-63.5 78t-57 66.5z" />
<glyph unicode="&#x10d;" horiz-adv-x="1011" d="M101 547q0 166 37 277.5t105 178.5t163.5 96t212.5 29q85 0 169 -21t158 -59l-87 -229q-65 28 -125.5 46.5t-114.5 18.5q-110 0 -159.5 -83.5t-49.5 -251.5q0 -166 49.5 -245t155.5 -79q86 0 156.5 22t143.5 57v-252q-37 -17 -71.5 -31t-69.5 -23t-73.5 -13.5t-81.5 -4.5 q-119 0 -214.5 33t-163.5 101.5t-104 176t-36 256.5zM182 1527v26h201q51 -33 102.5 -76t104.5 -98q52 55 106 98t105 76h201v-26q-25 -29 -57 -66.5t-64 -78t-62 -80t-51 -73.5h-352q-22 34 -51.5 73.5t-62 80t-63.5 78t-57 66.5z" />
<glyph unicode="&#x10e;" horiz-adv-x="1419" d="M182 0v1447h424q159 0 287.5 -45.5t219.5 -135t140 -222t49 -306.5q0 -184 -50 -322t-144.5 -230.5t-231.5 -139t-313 -46.5h-381zM489 253h113q194 0 291.5 119t97.5 358q0 120 -24.5 208t-70.5 145t-112.5 85t-152.5 28h-142v-943zM257 1862v26h201q51 -33 102.5 -76 t104.5 -98q52 55 106 98t105 76h201v-26q-25 -29 -57 -66.5t-64 -78t-62 -80t-51 -73.5h-352q-22 34 -51.5 73.5t-62 80t-63.5 78t-57 66.5z" />
<glyph unicode="&#x10f;" horiz-adv-x="1232" d="M101 551q0 143 28 250.5t80 180t124.5 109.5t159.5 37q53 0 98 -12.5t80.5 -35t63.5 -51.5t50 -64h10q-6 39 -11 78q-5 34 -8.5 72t-3.5 71v354h302v-1540h-231l-58 144h-13q-21 -34 -47.5 -64t-61.5 -52t-79 -35t-100 -13q-85 0 -155.5 36.5t-121 108.5t-78.5 179 t-28 247zM408 547q0 -163 45 -244.5t141 -81.5q53 0 91 18t61 55.5t34.5 93t12.5 129.5v32q0 81 -10 143t-32.5 104.5t-61.5 64t-97 21.5q-95 0 -139.5 -85.5t-44.5 -249.5zM1165 1217v25q9 30 18 68t17.5 78.5t15.5 80t11 71.5h279v-19q-31 -68 -71.5 -146t-92.5 -158h-177 z" />
<glyph unicode="&#x110;" horiz-adv-x="1419" d="M47 590v252h135v605h424q159 0 287.5 -45.5t219.5 -135t140 -222t49 -306.5q0 -184 -50 -322t-144.5 -230.5t-231.5 -139t-313 -46.5h-381v590h-135zM489 253h113q194 0 291.5 119t97.5 358q0 120 -24.5 208t-70.5 145t-112.5 85t-152.5 28h-142v-354h235v-252h-235v-337 z" />
<glyph unicode="&#x111;" horiz-adv-x="1232" d="M101 521q0 134 28 236t80 171t124.5 103.5t159.5 34.5q53 0 98 -12.5t80.5 -34t63.5 -51t50 -64.5h10q-6 39 -11 79q-5 35 -8.5 75t-3.5 76v50h-312v197h312v159h302v-159h155v-197h-155v-1184h-231l-58 144h-13q-21 -34 -47.5 -64t-61.5 -52t-79 -35t-100 -13 q-85 0 -155.5 35t-121 103t-78.5 169t-28 234zM430 517q0 -148 42 -222t134 -74q51 0 86.5 16.5t57 50.5t32 84.5t11.5 118.5v28q0 73 -9.5 129.5t-31 94.5t-58 58t-90.5 20q-90 0 -132 -78t-42 -226z" />
<glyph unicode="&#x112;" horiz-adv-x="1135" d="M182 0v1447h834v-251h-527v-318h490v-251h-490v-374h527v-253h-834zM294 1564v208h611v-208h-611z" />
<glyph unicode="&#x113;" horiz-adv-x="1178" d="M101 545q0 146 36.5 255t102.5 181.5t158.5 109.5t205.5 37q110 0 198.5 -33.5t150.5 -97.5t95 -158t33 -214v-147h-675q2 -63 20.5 -114t51.5 -86t80 -54t107 -19q51 0 96 5.5t87.5 16.5t84 27t85.5 38v-234q-40 -20 -80 -34.5t-84.5 -24.5t-96 -14.5t-113.5 -4.5 q-118 0 -218 35t-172.5 104.5t-112.5 176t-40 249.5zM412 679h385q-1 51 -13 93.5t-35.5 73.5t-59.5 49t-83 18q-80 0 -133 -56.5t-61 -177.5zM298 1229v208h611v-208h-611z" />
<glyph unicode="&#x114;" horiz-adv-x="1135" d="M182 0v1447h834v-251h-527v-318h490v-251h-490v-374h527v-253h-834zM243 1898h168q4 -42 18 -67t37.5 -37.5t57 -16t76.5 -3.5q36 0 68 4.5t57.5 18t42 38t20.5 63.5h172q-4 -74 -30 -135.5t-71.5 -105.5t-111 -68.5t-149.5 -24.5q-87 0 -152.5 23.5t-109 67t-66.5 105.5 t-27 138z" />
<glyph unicode="&#x115;" horiz-adv-x="1178" d="M101 545q0 146 36.5 255t102.5 181.5t158.5 109.5t205.5 37q110 0 198.5 -33.5t150.5 -97.5t95 -158t33 -214v-147h-675q2 -63 20.5 -114t51.5 -86t80 -54t107 -19q51 0 96 5.5t87.5 16.5t84 27t85.5 38v-234q-40 -20 -80 -34.5t-84.5 -24.5t-96 -14.5t-113.5 -4.5 q-118 0 -218 35t-172.5 104.5t-112.5 176t-40 249.5zM412 679h385q-1 51 -13 93.5t-35.5 73.5t-59.5 49t-83 18q-80 0 -133 -56.5t-61 -177.5zM233 1563h168q4 -42 18 -67t37.5 -37.5t57 -16t76.5 -3.5q36 0 68 4.5t57.5 18t42 38t20.5 63.5h172q-4 -74 -30 -135.5 t-71.5 -105.5t-111 -68.5t-149.5 -24.5q-87 0 -152.5 23.5t-109 67t-66.5 105.5t-27 138z" />
<glyph unicode="&#x116;" horiz-adv-x="1135" d="M182 0v1447h834v-251h-527v-318h490v-251h-490v-374h527v-253h-834zM432 1699q0 43 12.5 71t35 45.5t52.5 24t64 6.5t63.5 -6.5t51.5 -24t35.5 -45.5t13.5 -71q0 -42 -13.5 -70.5t-35.5 -46t-51.5 -25t-63.5 -7.5t-64 7.5t-52.5 25t-35 46t-12.5 70.5z" />
<glyph unicode="&#x117;" horiz-adv-x="1178" d="M101 545q0 146 36.5 255t102.5 181.5t158.5 109.5t205.5 37q110 0 198.5 -33.5t150.5 -97.5t95 -158t33 -214v-147h-675q2 -63 20.5 -114t51.5 -86t80 -54t107 -19q51 0 96 5.5t87.5 16.5t84 27t85.5 38v-234q-40 -20 -80 -34.5t-84.5 -24.5t-96 -14.5t-113.5 -4.5 q-118 0 -218 35t-172.5 104.5t-112.5 176t-40 249.5zM412 679h385q-1 51 -13 93.5t-35.5 73.5t-59.5 49t-83 18q-80 0 -133 -56.5t-61 -177.5zM432 1393q0 43 12.5 71t35 45.5t52.5 24t64 6.5t63.5 -6.5t51.5 -24t35.5 -45.5t13.5 -71q0 -42 -13.5 -70.5t-35.5 -46 t-51.5 -25t-63.5 -7.5t-64 7.5t-52.5 25t-35 46t-12.5 70.5z" />
<glyph unicode="&#x118;" horiz-adv-x="1135" d="M182 0v1447h834v-251h-527v-318h490v-251h-490v-374h527v-253h-834zM550 -259q0 42 14 77.5t38 67t56.5 59t69.5 55.5h177q-69 -65 -107.5 -119t-38.5 -106q0 -41 22 -61t57 -20q32 0 63 6t51 12v-176q-32 -9 -68.5 -16t-86.5 -7q-57 0 -102.5 17t-77.5 47t-49.5 71.5 t-17.5 92.5z" />
<glyph unicode="&#x119;" horiz-adv-x="1178" d="M101 545q0 146 36.5 255t102.5 181.5t158.5 109.5t205.5 37q110 0 198.5 -33.5t150.5 -97.5t95 -158t33 -214v-147h-675q2 -63 20.5 -114t51.5 -86t80 -54t107 -19q51 0 96 5.5t87.5 16.5t84 27t85.5 38v-234q-40 -20 -80 -34.5t-84.5 -24.5t-96 -14.5t-113.5 -4.5 q-118 0 -218 35t-172.5 104.5t-112.5 176t-40 249.5zM412 679h385q-1 51 -13 93.5t-35.5 73.5t-59.5 49t-83 18q-80 0 -133 -56.5t-61 -177.5zM573 -239q0 42 14 77.5t38 67t56.5 59t69.5 55.5h177q-69 -65 -107.5 -119t-38.5 -106q0 -41 22 -61t57 -20q32 0 63 6t51 12 v-176q-32 -9 -68.5 -16t-86.5 -7q-57 0 -102.5 17t-77.5 47t-49.5 71.5t-17.5 92.5z" />
<glyph unicode="&#x11a;" horiz-adv-x="1135" d="M182 0v1447h834v-251h-527v-318h490v-251h-490v-374h527v-253h-834zM180 1862v26h201q51 -33 102.5 -76t104.5 -98q52 55 106 98t105 76h201v-26q-25 -29 -57 -66.5t-64 -78t-62 -80t-51 -73.5h-352q-22 34 -51.5 73.5t-62 80t-63.5 78t-57 66.5z" />
<glyph unicode="&#x11b;" horiz-adv-x="1178" d="M101 545q0 146 36.5 255t102.5 181.5t158.5 109.5t205.5 37q110 0 198.5 -33.5t150.5 -97.5t95 -158t33 -214v-147h-675q2 -63 20.5 -114t51.5 -86t80 -54t107 -19q51 0 96 5.5t87.5 16.5t84 27t85.5 38v-234q-40 -20 -80 -34.5t-84.5 -24.5t-96 -14.5t-113.5 -4.5 q-118 0 -218 35t-172.5 104.5t-112.5 176t-40 249.5zM412 679h385q-1 51 -13 93.5t-35.5 73.5t-59.5 49t-83 18q-80 0 -133 -56.5t-61 -177.5zM199 1527v26h201q51 -33 102.5 -76t104.5 -98q52 55 106 98t105 76h201v-26q-25 -29 -57 -66.5t-64 -78t-62 -80t-51 -73.5h-352 q-22 34 -51.5 73.5t-62 80t-63.5 78t-57 66.5z" />
<glyph unicode="&#x11c;" horiz-adv-x="1468" d="M118 726q0 170 49.5 307.5t146 234t237.5 148.5t323 52q116 0 227 -24.5t203 -64.5l-102 -245q-67 33 -152 56t-178 23q-101 0 -181.5 -35.5t-138 -99.5t-88 -155t-30.5 -203q0 -107 21 -195.5t66.5 -153t117.5 -100t172 -35.5q65 0 110 6t85 13v302h-274v256h574v-751 q-58 -18 -116 -33.5t-121 -26t-132 -16.5t-146 -6q-162 0 -287.5 48t-211 142.5t-130 234t-44.5 321.5zM387 1564v26q26 29 57 66.5t63.5 77.5t62 80.5t51.5 73.5h352q21 -33 51 -73.5t62 -80.5t64 -77.5t57 -66.5v-26h-201q-51 33 -105 75.5t-106 98.5 q-53 -56 -104.5 -98.5t-102.5 -75.5h-201z" />
<glyph unicode="&#x11d;" horiz-adv-x="1118" d="M20 -180q0 60 20.5 104.5t55.5 76.5t79 51.5t90 30.5q-20 9 -40.5 25t-37 36.5t-27 46t-10.5 53.5q0 31 9.5 57t27.5 48t44.5 42t60.5 41q-87 37 -138 120.5t-51 195.5q0 90 27.5 160t81 119t133 75t182.5 26q19 0 44 -2.5t49 -6t45 -7.5t33 -7h376v-165l-161 -50 q20 -34 27.5 -70t7.5 -78q0 -84 -26.5 -153.5t-79 -119t-131.5 -77t-184 -27.5q-23 0 -50 2.5t-39 5.5q-20 -17 -31.5 -35t-11.5 -44q0 -21 13 -33.5t33.5 -19.5t48.5 -9.5t57 -2.5h173q80 0 143.5 -18.5t107.5 -56t67.5 -95.5t23.5 -138q0 -94 -37.5 -170t-112 -129 t-185.5 -81t-257 -28q-113 0 -197 21t-140.5 61.5t-84.5 97t-28 127.5zM282 -156q0 -25 10.5 -48.5t34 -41t62.5 -28t95 -10.5q155 0 233 43.5t78 116.5q0 63 -48.5 83.5t-150.5 20.5h-140q-26 0 -57 -6.5t-56.5 -22t-43 -42t-17.5 -65.5zM391 744q0 -90 33.5 -139.5 t102.5 -49.5q71 0 102.5 49.5t31.5 139.5t-31 142.5t-103 52.5q-136 0 -136 -195zM117 1229v26q26 29 57 66.5t63.5 77.5t62 80.5t51.5 73.5h352q21 -33 51 -73.5t62 -80.5t64 -77.5t57 -66.5v-26h-201q-51 33 -105 75.5t-106 98.5q-53 -56 -104.5 -98.5t-102.5 -75.5h-201z " />
<glyph unicode="&#x11e;" horiz-adv-x="1468" d="M118 726q0 170 49.5 307.5t146 234t237.5 148.5t323 52q116 0 227 -24.5t203 -64.5l-102 -245q-67 33 -152 56t-178 23q-101 0 -181.5 -35.5t-138 -99.5t-88 -155t-30.5 -203q0 -107 21 -195.5t66.5 -153t117.5 -100t172 -35.5q65 0 110 6t85 13v302h-274v256h574v-751 q-58 -18 -116 -33.5t-121 -26t-132 -16.5t-146 -6q-162 0 -287.5 48t-211 142.5t-130 234t-44.5 321.5zM424 1898h168q4 -42 18 -67t37.5 -37.5t57 -16t76.5 -3.5q36 0 68 4.5t57.5 18t42 38t20.5 63.5h172q-4 -74 -30 -135.5t-71.5 -105.5t-111 -68.5t-149.5 -24.5 q-87 0 -152.5 23.5t-109 67t-66.5 105.5t-27 138z" />
<glyph unicode="&#x11f;" horiz-adv-x="1118" d="M20 -180q0 60 20.5 104.5t55.5 76.5t79 51.5t90 30.5q-20 9 -40.5 25t-37 36.5t-27 46t-10.5 53.5q0 31 9.5 57t27.5 48t44.5 42t60.5 41q-87 37 -138 120.5t-51 195.5q0 90 27.5 160t81 119t133 75t182.5 26q19 0 44 -2.5t49 -6t45 -7.5t33 -7h376v-165l-161 -50 q20 -34 27.5 -70t7.5 -78q0 -84 -26.5 -153.5t-79 -119t-131.5 -77t-184 -27.5q-23 0 -50 2.5t-39 5.5q-20 -17 -31.5 -35t-11.5 -44q0 -21 13 -33.5t33.5 -19.5t48.5 -9.5t57 -2.5h173q80 0 143.5 -18.5t107.5 -56t67.5 -95.5t23.5 -138q0 -94 -37.5 -170t-112 -129 t-185.5 -81t-257 -28q-113 0 -197 21t-140.5 61.5t-84.5 97t-28 127.5zM282 -156q0 -25 10.5 -48.5t34 -41t62.5 -28t95 -10.5q155 0 233 43.5t78 116.5q0 63 -48.5 83.5t-150.5 20.5h-140q-26 0 -57 -6.5t-56.5 -22t-43 -42t-17.5 -65.5zM391 744q0 -90 33.5 -139.5 t102.5 -49.5q71 0 102.5 49.5t31.5 139.5t-31 142.5t-103 52.5q-136 0 -136 -195zM147 1563h168q4 -42 18 -67t37.5 -37.5t57 -16t76.5 -3.5q36 0 68 4.5t57.5 18t42 38t20.5 63.5h172q-4 -74 -30 -135.5t-71.5 -105.5t-111 -68.5t-149.5 -24.5q-87 0 -152.5 23.5t-109 67 t-66.5 105.5t-27 138z" />
<glyph unicode="&#x120;" horiz-adv-x="1468" d="M118 726q0 170 49.5 307.5t146 234t237.5 148.5t323 52q116 0 227 -24.5t203 -64.5l-102 -245q-67 33 -152 56t-178 23q-101 0 -181.5 -35.5t-138 -99.5t-88 -155t-30.5 -203q0 -107 21 -195.5t66.5 -153t117.5 -100t172 -35.5q65 0 110 6t85 13v302h-274v256h574v-751 q-58 -18 -116 -33.5t-121 -26t-132 -16.5t-146 -6q-162 0 -287.5 48t-211 142.5t-130 234t-44.5 321.5zM637 1728q0 43 12.5 71t35 45.5t52.5 24t64 6.5t63.5 -6.5t51.5 -24t35.5 -45.5t13.5 -71q0 -42 -13.5 -70.5t-35.5 -46t-51.5 -25t-63.5 -7.5t-64 7.5t-52.5 25t-35 46 t-12.5 70.5z" />
<glyph unicode="&#x121;" horiz-adv-x="1118" d="M20 -180q0 60 20.5 104.5t55.5 76.5t79 51.5t90 30.5q-20 9 -40.5 25t-37 36.5t-27 46t-10.5 53.5q0 31 9.5 57t27.5 48t44.5 42t60.5 41q-87 37 -138 120.5t-51 195.5q0 90 27.5 160t81 119t133 75t182.5 26q19 0 44 -2.5t49 -6t45 -7.5t33 -7h376v-165l-161 -50 q20 -34 27.5 -70t7.5 -78q0 -84 -26.5 -153.5t-79 -119t-131.5 -77t-184 -27.5q-23 0 -50 2.5t-39 5.5q-20 -17 -31.5 -35t-11.5 -44q0 -21 13 -33.5t33.5 -19.5t48.5 -9.5t57 -2.5h173q80 0 143.5 -18.5t107.5 -56t67.5 -95.5t23.5 -138q0 -94 -37.5 -170t-112 -129 t-185.5 -81t-257 -28q-113 0 -197 21t-140.5 61.5t-84.5 97t-28 127.5zM282 -156q0 -25 10.5 -48.5t34 -41t62.5 -28t95 -10.5q155 0 233 43.5t78 116.5q0 63 -48.5 83.5t-150.5 20.5h-140q-26 0 -57 -6.5t-56.5 -22t-43 -42t-17.5 -65.5zM391 744q0 -90 33.5 -139.5 t102.5 -49.5q71 0 102.5 49.5t31.5 139.5t-31 142.5t-103 52.5q-136 0 -136 -195zM367 1393q0 43 12.5 71t35 45.5t52.5 24t64 6.5t63.5 -6.5t51.5 -24t35.5 -45.5t13.5 -71q0 -42 -13.5 -70.5t-35.5 -46t-51.5 -25t-63.5 -7.5t-64 7.5t-52.5 25t-35 46t-12.5 70.5z" />
<glyph unicode="&#x122;" horiz-adv-x="1468" d="M118 726q0 170 49.5 307.5t146 234t237.5 148.5t323 52q116 0 227 -24.5t203 -64.5l-102 -245q-67 33 -152 56t-178 23q-101 0 -181.5 -35.5t-138 -99.5t-88 -155t-30.5 -203q0 -107 21 -195.5t66.5 -153t117.5 -100t172 -35.5q65 0 110 6t85 13v302h-274v256h574v-751 q-58 -18 -116 -33.5t-121 -26t-132 -16.5t-146 -6q-162 0 -287.5 48t-211 142.5t-130 234t-44.5 321.5zM622 -422q9 30 18 68t17.5 78t15.5 80t11 72h279v-20q-31 -68 -71.5 -145.5t-92.5 -158.5h-177v26z" />
<glyph unicode="&#x123;" horiz-adv-x="1118" d="M20 -180q0 60 20.5 104.5t55.5 76.5t79 51.5t90 30.5q-20 9 -40.5 25t-37 36.5t-27 46t-10.5 53.5q0 31 9.5 57t27.5 48t44.5 42t60.5 41q-87 37 -138 120.5t-51 195.5q0 90 27.5 160t81 119t133 75t182.5 26q19 0 44 -2.5t49 -6t45 -7.5t33 -7h376v-165l-161 -50 q20 -34 27.5 -70t7.5 -78q0 -84 -26.5 -153.5t-79 -119t-131.5 -77t-184 -27.5q-23 0 -50 2.5t-39 5.5q-20 -17 -31.5 -35t-11.5 -44q0 -21 13 -33.5t33.5 -19.5t48.5 -9.5t57 -2.5h173q80 0 143.5 -18.5t107.5 -56t67.5 -95.5t23.5 -138q0 -94 -37.5 -170t-112 -129 t-185.5 -81t-257 -28q-113 0 -197 21t-140.5 61.5t-84.5 97t-28 127.5zM282 -156q0 -25 10.5 -48.5t34 -41t62.5 -28t95 -10.5q155 0 233 43.5t78 116.5q0 63 -48.5 83.5t-150.5 20.5h-140q-26 0 -57 -6.5t-56.5 -22t-43 -42t-17.5 -65.5zM391 744q0 -90 33.5 -139.5 t102.5 -49.5q71 0 102.5 49.5t31.5 139.5t-31 142.5t-103 52.5q-136 0 -136 -195zM385 1229v20q30 68 71 145.5t93 158.5h176v-26q-9 -30 -18 -68t-17 -78.5t-15 -80t-11 -71.5h-279z" />
<glyph unicode="&#x124;" horiz-adv-x="1470" d="M182 0v1447h307v-567h492v567h306v-1447h-306v625h-492v-625h-307zM318 1564v26q26 29 57 66.5t63.5 77.5t62 80.5t51.5 73.5h352q21 -33 51 -73.5t62 -80.5t64 -77.5t57 -66.5v-26h-201q-51 33 -105 75.5t-106 98.5q-53 -56 -104.5 -98.5t-102.5 -75.5h-201z" />
<glyph unicode="&#x125;" horiz-adv-x="1271" d="M158 0v1540h302v-313q0 -42 -2 -88t-5 -85q-4 -45 -7 -89h16q49 86 124 124.5t170 38.5q83 0 149.5 -23.5t114 -73t73.5 -126t26 -183.5v-722h-302v646q0 120 -37.5 180t-114.5 60q-58 0 -97.5 -23.5t-63.5 -70.5t-34 -115t-10 -156v-521h-302zM247 1618v26 q26 29 57 66.5t63.5 77.5t62 80.5t51.5 73.5h352q21 -33 51 -73.5t62 -80.5t64 -77.5t57 -66.5v-26h-201q-51 33 -105 75.5t-106 98.5q-53 -56 -104.5 -98.5t-102.5 -75.5h-201z" />
<glyph unicode="&#x126;" horiz-adv-x="1470" d="M0 1058v197h182v192h307v-192h492v192h306v-192h183v-197h-183v-1058h-306v625h-492v-625h-307v1058h-182zM489 880h492v178h-492v-178z" />
<glyph unicode="&#x127;" horiz-adv-x="1271" d="M4 1184v197h154v159h302v-159h312v-197h-312v-18q0 -41 -2 -87t-5 -85l-7 -90h16q49 86 124 124t170 38q83 0 149.5 -23t114 -72.5t73.5 -126.5t26 -183v-661h-302v586q0 120 -37.5 180t-114.5 60q-58 0 -97.5 -24.5t-63.5 -71t-34 -114.5t-10 -156v-460h-302v1184h-154z " />
<glyph unicode="&#x128;" horiz-adv-x="789" d="M65 0v174l177 81v937l-177 81v174h659v-174l-177 -81v-937l177 -81v-174h-659zM5 1562q6 79 26 136.5t52 95t75.5 56t96.5 18.5q40 0 78.5 -16t77 -35.5t75.5 -35.5t72 -16q31 0 49 25.5t31 78.5h147q-6 -78 -26 -135.5t-53 -95.5t-76 -56t-94 -18q-40 0 -79.5 16 t-77 35.5t-75 36t-72.5 16.5q-31 0 -49.5 -26.5t-29.5 -79.5h-148z" />
<glyph unicode="&#x129;" horiz-adv-x="618" d="M158 0v1107h302v-1107h-302zM-82 1227q6 79 26 136.5t52 95t75.5 56t96.5 18.5q40 0 78.5 -16t77 -35.5t75.5 -35.5t72 -16q31 0 49 25.5t31 78.5h147q-6 -78 -26 -135.5t-53 -95.5t-76 -56t-94 -18q-40 0 -79.5 16t-77 35.5t-75 36t-72.5 16.5q-31 0 -49.5 -26.5 t-29.5 -79.5h-148z" />
<glyph unicode="&#x12a;" horiz-adv-x="789" d="M65 0v174l177 81v937l-177 81v174h659v-174l-177 -81v-937l177 -81v-174h-659zM90 1564v208h611v-208h-611z" />
<glyph unicode="&#x12b;" horiz-adv-x="618" d="M158 0v1107h302v-1107h-302zM5 1229v208h611v-208h-611z" />
<glyph unicode="&#x12c;" horiz-adv-x="789" d="M65 0v174l177 81v937l-177 81v174h659v-174l-177 -81v-937l177 -81v-174h-659zM33 1898h168q4 -42 18 -67t37.5 -37.5t57 -16t76.5 -3.5q36 0 68 4.5t57.5 18t42 38t20.5 63.5h172q-4 -74 -30 -135.5t-71.5 -105.5t-111 -68.5t-149.5 -24.5q-87 0 -152.5 23.5t-109 67 t-66.5 105.5t-27 138z" />
<glyph unicode="&#x12d;" horiz-adv-x="618" d="M158 0v1107h302v-1107h-302zM-50 1563h168q4 -42 18 -67t37.5 -37.5t57 -16t76.5 -3.5q36 0 68 4.5t57.5 18t42 38t20.5 63.5h172q-4 -74 -30 -135.5t-71.5 -105.5t-111 -68.5t-149.5 -24.5q-87 0 -152.5 23.5t-109 67t-66.5 105.5t-27 138z" />
<glyph unicode="&#x12e;" horiz-adv-x="789" d="M65 0v174l177 81v937l-177 81v174h659v-174l-177 -81v-937l177 -81v-174h-659zM188 -259q0 42 14 77.5t38 67t56.5 59t69.5 55.5h177q-69 -65 -107.5 -119t-38.5 -106q0 -41 22 -61t57 -20q32 0 63 6t51 12v-176q-32 -9 -68.5 -16t-86.5 -7q-57 0 -102.5 17t-77.5 47 t-49.5 71.5t-17.5 92.5z" />
<glyph unicode="&#x12f;" horiz-adv-x="618" d="M146 1393q0 43 12.5 71t35 45.5t52.5 24t64 6.5t63.5 -6.5t51.5 -24t35.5 -45.5t13.5 -71q0 -42 -13.5 -70.5t-35.5 -46t-51.5 -25t-63.5 -7.5t-64 7.5t-52.5 25t-35 46t-12.5 70.5zM158 0v1107h302v-1107h-302zM105 -259q0 42 14 77.5t38 67t56.5 59t69.5 55.5h177 q-69 -65 -107.5 -119t-38.5 -106q0 -41 22 -61t57 -20q32 0 63 6t51 12v-176q-32 -9 -68.5 -16t-86.5 -7q-57 0 -102.5 17t-77.5 47t-49.5 71.5t-17.5 92.5z" />
<glyph unicode="&#x130;" horiz-adv-x="789" d="M65 0v174l177 81v937l-177 81v174h659v-174l-177 -81v-937l177 -81v-174h-659zM225 1728q0 43 12.5 71t35 45.5t52.5 24t64 6.5t63.5 -6.5t51.5 -24t35.5 -45.5t13.5 -71q0 -42 -13.5 -70.5t-35.5 -46t-51.5 -25t-63.5 -7.5t-64 7.5t-52.5 25t-35 46t-12.5 70.5z" />
<glyph unicode="&#x131;" horiz-adv-x="618" d="M158 0v1107h302v-1107h-302z" />
<glyph unicode="&#x132;" horiz-adv-x="1460" d="M65 0v174l177 81v937l-177 81v174h659v-174l-177 -81v-937l177 -81v-174h-659zM592 -148q37 -8 77 -14t87 -6q46 0 85 10t68 34t45.5 64.5t16.5 102.5v1404h307v-1395q0 -124 -36 -214t-101 -149t-155 -87t-199 -28q-64 0 -112.5 6.5t-82.5 15.5v256z" />
<glyph unicode="&#x133;" horiz-adv-x="1197" d="M146 1393q0 43 12.5 71t35 45.5t52.5 24t64 6.5t63.5 -6.5t51.5 -24t35.5 -45.5t13.5 -71q0 -42 -13.5 -70.5t-35.5 -46t-51.5 -25t-63.5 -7.5t-64 7.5t-52.5 25t-35 46t-12.5 70.5zM158 0v1107h302v-1107h-302zM499 -225q31 -10 57.5 -14.5t60.5 -4.5q24 0 46.5 7.5 t39 27t26 51.5t9.5 83v1182h302v-1227q0 -76 -19 -143t-62 -117t-111.5 -78.5t-166.5 -28.5q-48 0 -98.5 7t-83.5 18v237zM726 1393q0 43 12.5 71t35 45.5t52.5 24t64 6.5t63.5 -6.5t51.5 -24t35.5 -45.5t13.5 -71q0 -42 -13.5 -70.5t-35.5 -46t-51.5 -25t-63.5 -7.5 t-64 7.5t-52.5 25t-35 46t-12.5 70.5z" />
<glyph unicode="&#x134;" horiz-adv-x="671" d="M-197 -148q37 -8 77 -14t87 -6q46 0 85 10t68 34t45.5 64.5t16.5 102.5v1404h307v-1395q0 -124 -36 -214t-101 -149t-155 -87t-199 -28q-64 0 -112.5 6.5t-82.5 15.5v256zM-80 1564v26q26 29 57 66.5t63.5 77.5t62 80.5t51.5 73.5h352q21 -33 51 -73.5t62 -80.5t64 -77.5 t57 -66.5v-26h-201q-51 33 -105 75.5t-106 98.5q-53 -56 -104.5 -98.5t-102.5 -75.5h-201z" />
<glyph unicode="&#x135;" horiz-adv-x="618" d="M-81 -225q31 -10 57.5 -14.5t60.5 -4.5q24 0 46.5 7.5t39 27t26 51.5t9.5 83v1182h302v-1227q0 -76 -19 -143t-62 -117t-111.5 -78.5t-166.5 -28.5q-48 0 -98.5 7t-83.5 18v237zM-103 1229v26q26 29 57 66.5t63.5 77.5t62 80.5t51.5 73.5h352q21 -33 51 -73.5t62 -80.5 t64 -77.5t57 -66.5v-26h-201q-51 33 -105 75.5t-106 98.5q-53 -56 -104.5 -98.5t-102.5 -75.5h-201z" />
<glyph unicode="&#x136;" horiz-adv-x="1285" d="M182 0v1447h307v-697l121 205l330 492h341l-462 -652l466 -795h-348l-333 602l-115 -85v-517h-307zM437 -422q9 30 18 68t17.5 78t15.5 80t11 72h279v-20q-31 -68 -71.5 -145.5t-92.5 -158.5h-177v26z" />
<glyph unicode="&#x137;" horiz-adv-x="1195" d="M158 0v1540h302v-687l-15 -251h3l111 168l271 337h340l-400 -480l426 -627h-349l-269 426l-118 -81v-345h-302zM441 -422q9 30 18 68t17.5 78t15.5 80t11 72h279v-20q-31 -68 -71.5 -145.5t-92.5 -158.5h-177v26z" />
<glyph unicode="&#x138;" horiz-adv-x="1195" d="M158 0v1107h302v-290q0 -40 -2.5 -85t-5.5 -84q-4 -45 -7 -89h3l126 193l273 355h323l-400 -492l426 -615h-341l-277 414l-118 -81v-333h-302z" />
<glyph unicode="&#x139;" horiz-adv-x="1085" d="M182 0v1447h307v-1194h527v-253h-834zM265 1564v26q20 29 44 66.5t47.5 77.5t44 80.5t36.5 73.5h339v-20q-11 -18 -32 -42.5t-47.5 -52t-57.5 -57t-62 -57t-60 -52.5t-51 -43h-201z" />
<glyph unicode="&#x13a;" horiz-adv-x="618" d="M158 0v1540h302v-1540h-302zM178 1620v26q20 29 44 66.5t47.5 77.5t44 80.5t36.5 73.5h339v-20q-11 -18 -32 -42.5t-47.5 -52t-57.5 -57t-62 -57t-60 -52.5t-51 -43h-201z" />
<glyph unicode="&#x13b;" horiz-adv-x="1085" d="M182 0v1447h307v-1194h527v-253h-834zM391 -422q9 30 18 68t17.5 78t15.5 80t11 72h279v-20q-31 -68 -71.5 -145.5t-92.5 -158.5h-177v26z" />
<glyph unicode="&#x13c;" horiz-adv-x="618" d="M158 0v1540h302v-1540h-302zM118 -422q9 30 18 68t17.5 78t15.5 80t11 72h279v-20q-31 -68 -71.5 -145.5t-92.5 -158.5h-177v26z" />
<glyph unicode="&#x13d;" horiz-adv-x="1085" d="M182 0v1447h307v-1194h527v-253h-834zM646 1125v25q9 30 18 68t17.5 78.5t15.5 80t11 71.5h279v-19q-31 -68 -71.5 -146t-92.5 -158h-177z" />
<glyph unicode="&#x13e;" horiz-adv-x="618" d="M158 0v1540h302v-1540h-302zM551 1217v25q9 30 18 68t17.5 78.5t15.5 80t11 71.5h279v-19q-31 -68 -71.5 -146t-92.5 -158h-177z" />
<glyph unicode="&#x13f;" horiz-adv-x="1085" d="M182 0v1447h307v-1194h527v-253h-834zM659 744q0 43 12.5 71t35 45.5t52.5 24t64 6.5t63.5 -6.5t51.5 -24t35.5 -45.5t13.5 -71q0 -42 -13.5 -70.5t-35.5 -46t-51.5 -25t-63.5 -7.5t-64 7.5t-52.5 25t-35 46t-12.5 70.5z" />
<glyph unicode="&#x140;" horiz-adv-x="880" d="M158 0v1540h302v-1540h-302zM576 688q0 43 12.5 71t35 45.5t52.5 24t64 6.5t63.5 -6.5t51.5 -24t35.5 -45.5t13.5 -71q0 -42 -13.5 -70.5t-35.5 -46t-51.5 -25t-63.5 -7.5t-64 7.5t-52.5 25t-35 46t-12.5 70.5z" />
<glyph unicode="&#x141;" horiz-adv-x="1085" d="M2 641l180 109v697h307v-510l142 87l115 -194l-257 -157v-420h527v-253h-834v487l-68 -41z" />
<glyph unicode="&#x142;" horiz-adv-x="669" d="M0 625l182 111v804h302v-619l69 42l116 -195l-185 -111v-657h-302v472l-70 -42z" />
<glyph unicode="&#x143;" horiz-adv-x="1587" d="M182 0v1447h387l569 -1084h5q-3 76 -6 149q-1 32 -2.5 65t-2.5 66t-1.5 64t-0.5 55v685h275v-1447h-389l-570 1095h-8q6 -76 9 -152q4 -64 6.5 -134.5t2.5 -127.5v-681h-274zM609 1564v26q20 29 44 66.5t47.5 77.5t44 80.5t36.5 73.5h339v-20q-11 -18 -32 -42.5 t-47.5 -52t-57.5 -57t-62 -57t-60 -52.5t-51 -43h-201z" />
<glyph unicode="&#x144;" horiz-adv-x="1271" d="M158 0v1107h231l41 -142h16q24 43 58.5 73.5t75 50.5t86 29.5t92.5 9.5q82 0 148 -23.5t113.5 -73t73.5 -126t26 -183.5v-722h-302v646q0 120 -36.5 180t-115.5 60q-59 0 -98.5 -23.5t-63 -70.5t-33.5 -115t-10 -156v-521h-302zM467 1229v26q20 29 44 66.5t47.5 77.5 t44 80.5t36.5 73.5h339v-20q-11 -18 -32 -42.5t-47.5 -52t-57.5 -57t-62 -57t-60 -52.5t-51 -43h-201z" />
<glyph unicode="&#x145;" horiz-adv-x="1587" d="M182 0v1447h387l569 -1084h5q-3 76 -6 149q-1 32 -2.5 65t-2.5 66t-1.5 64t-0.5 55v685h275v-1447h-389l-570 1095h-8q6 -76 9 -152q4 -64 6.5 -134.5t2.5 -127.5v-681h-274zM561 -422q9 30 18 68t17.5 78t15.5 80t11 72h279v-20q-31 -68 -71.5 -145.5t-92.5 -158.5h-177 v26z" />
<glyph unicode="&#x146;" horiz-adv-x="1271" d="M158 0v1107h231l41 -142h16q24 43 58.5 73.5t75 50.5t86 29.5t92.5 9.5q82 0 148 -23.5t113.5 -73t73.5 -126t26 -183.5v-722h-302v646q0 120 -36.5 180t-115.5 60q-59 0 -98.5 -23.5t-63 -70.5t-33.5 -115t-10 -156v-521h-302zM462 -422q9 30 18 68t17.5 78t15.5 80 t11 72h279v-20q-31 -68 -71.5 -145.5t-92.5 -158.5h-177v26z" />
<glyph unicode="&#x147;" horiz-adv-x="1587" d="M182 0v1447h387l569 -1084h5q-3 76 -6 149q-1 32 -2.5 65t-2.5 66t-1.5 64t-0.5 55v685h275v-1447h-389l-570 1095h-8q6 -76 9 -152q4 -64 6.5 -134.5t2.5 -127.5v-681h-274zM369 1862v26h201q51 -33 102.5 -76t104.5 -98q52 55 106 98t105 76h201v-26q-25 -29 -57 -66.5 t-64 -78t-62 -80t-51 -73.5h-352q-22 34 -51.5 73.5t-62 80t-63.5 78t-57 66.5z" />
<glyph unicode="&#x148;" horiz-adv-x="1271" d="M158 0v1107h231l41 -142h16q24 43 58.5 73.5t75 50.5t86 29.5t92.5 9.5q82 0 148 -23.5t113.5 -73t73.5 -126t26 -183.5v-722h-302v646q0 120 -36.5 180t-115.5 60q-59 0 -98.5 -23.5t-63 -70.5t-33.5 -115t-10 -156v-521h-302zM224 1527v26h201q51 -33 102.5 -76 t104.5 -98q52 55 106 98t105 76h201v-26q-25 -29 -57 -66.5t-64 -78t-62 -80t-51 -73.5h-352q-22 34 -51.5 73.5t-62 80t-63.5 78t-57 66.5z" />
<glyph unicode="&#x149;" horiz-adv-x="1518" d="M406 0v1107h231l41 -142h16q24 43 58.5 73.5t75 50.5t86 29.5t92.5 9.5q82 0 148 -23.5t113.5 -73t73.5 -126t26 -183.5v-722h-302v646q0 120 -36.5 180t-115.5 60q-59 0 -98.5 -23.5t-63 -70.5t-33.5 -115t-10 -156v-521h-302zM23 951q14 60 28 125t27.5 130.5t24.5 127 t19 113.5h277l15 -21q-14 -55 -33.5 -115t-42.5 -121.5t-48.5 -122t-49.5 -116.5h-217z" />
<glyph unicode="&#x14a;" horiz-adv-x="1551" d="M164 0v1447h387l568 -882h7q-3 77 -7 150q-1 31 -2.5 64.5t-3 66.5t-2 63.5t-0.5 55.5v482h276v-1447q0 -110 -33.5 -190.5t-94 -132.5t-145 -77.5t-187.5 -25.5q-65 0 -113.5 6.5t-81.5 15.5v256q36 -8 76 -14t88 -6q42 0 81.5 8t71 27.5t53.5 52.5t28 84l-702 1091h-8 q5 -76 9 -152q4 -64 6.5 -134.5t2.5 -127.5v-681h-274z" />
<glyph unicode="&#x14b;" horiz-adv-x="1271" d="M158 0v1107h231l41 -142h16q24 43 58.5 73.5t75 50.5t86 29.5t92.5 9.5q82 0 148 -23.5t113.5 -73t73.5 -126t26 -183.5v-842q0 -76 -19.5 -143t-62.5 -117t-111.5 -78.5t-165.5 -28.5q-47 0 -97.5 7t-84.5 18v237q31 -10 57 -14.5t60 -4.5q26 0 47.5 7.5t38.5 27 t26.5 51.5t9.5 83v744q0 108 -38.5 162.5t-113.5 54.5q-59 0 -98.5 -23.5t-63 -70.5t-33.5 -115t-10 -156v-521h-302z" />
<glyph unicode="&#x14c;" horiz-adv-x="1532" d="M118 728q0 168 39 305t119 234t202.5 150t289.5 53t288.5 -53t201 -150.5t119 -234.5t39.5 -306q0 -168 -39.5 -305.5t-119.5 -235.5t-202 -151.5t-289 -53.5q-166 0 -288.5 53.5t-202 151.5t-118.5 236t-39 307zM434 726q0 -114 19.5 -204.5t60.5 -153.5t103.5 -96.5 t148.5 -33.5q88 0 151 33.5t103 96.5t59.5 153.5t19.5 204.5t-19.5 204.5t-59.5 153.5t-102.5 97t-149.5 34q-86 0 -149.5 -34t-104.5 -97t-60.5 -153.5t-19.5 -204.5zM460 1564v208h611v-208h-611z" />
<glyph unicode="&#x14d;" horiz-adv-x="1214" d="M101 555q0 138 35 245t101 179.5t160 110.5t213 38q110 0 202 -38t159 -110.5t104.5 -179.5t37.5 -245t-35.5 -245t-101 -180.5t-160 -111.5t-212.5 -38q-110 0 -202 38t-159 111.5t-104.5 180.5t-37.5 245zM410 555q0 -165 46.5 -248.5t151.5 -83.5q104 0 150.5 84 t46.5 248q0 166 -46.5 247.5t-152.5 81.5q-104 0 -150 -81.5t-46 -247.5zM300 1229v208h611v-208h-611z" />
<glyph unicode="&#x14e;" horiz-adv-x="1532" d="M118 728q0 168 39 305t119 234t202.5 150t289.5 53t288.5 -53t201 -150.5t119 -234.5t39.5 -306q0 -168 -39.5 -305.5t-119.5 -235.5t-202 -151.5t-289 -53.5q-166 0 -288.5 53.5t-202 151.5t-118.5 236t-39 307zM434 726q0 -114 19.5 -204.5t60.5 -153.5t103.5 -96.5 t148.5 -33.5q88 0 151 33.5t103 96.5t59.5 153.5t19.5 204.5t-19.5 204.5t-59.5 153.5t-102.5 97t-149.5 34q-86 0 -149.5 -34t-104.5 -97t-60.5 -153.5t-19.5 -204.5zM405 1898h168q4 -42 18 -67t37.5 -37.5t57 -16t76.5 -3.5q36 0 68 4.5t57.5 18t42 38t20.5 63.5h172 q-4 -74 -30 -135.5t-71.5 -105.5t-111 -68.5t-149.5 -24.5q-87 0 -152.5 23.5t-109 67t-66.5 105.5t-27 138z" />
<glyph unicode="&#x14f;" horiz-adv-x="1214" d="M101 555q0 138 35 245t101 179.5t160 110.5t213 38q110 0 202 -38t159 -110.5t104.5 -179.5t37.5 -245t-35.5 -245t-101 -180.5t-160 -111.5t-212.5 -38q-110 0 -202 38t-159 111.5t-104.5 180.5t-37.5 245zM410 555q0 -165 46.5 -248.5t151.5 -83.5q104 0 150.5 84 t46.5 248q0 166 -46.5 247.5t-152.5 81.5q-104 0 -150 -81.5t-46 -247.5zM245 1563h168q4 -42 18 -67t37.5 -37.5t57 -16t76.5 -3.5q36 0 68 4.5t57.5 18t42 38t20.5 63.5h172q-4 -74 -30 -135.5t-71.5 -105.5t-111 -68.5t-149.5 -24.5q-87 0 -152.5 23.5t-109 67 t-66.5 105.5t-27 138z" />
<glyph unicode="&#x150;" horiz-adv-x="1532" d="M118 728q0 168 39 305t119 234t202.5 150t289.5 53t288.5 -53t201 -150.5t119 -234.5t39.5 -306q0 -168 -39.5 -305.5t-119.5 -235.5t-202 -151.5t-289 -53.5q-166 0 -288.5 53.5t-202 151.5t-118.5 236t-39 307zM434 726q0 -114 19.5 -204.5t60.5 -153.5t103.5 -96.5 t148.5 -33.5q88 0 151 33.5t103 96.5t59.5 153.5t19.5 204.5t-19.5 204.5t-59.5 153.5t-102.5 97t-149.5 34q-86 0 -149.5 -34t-104.5 -97t-60.5 -153.5t-19.5 -204.5zM452 1564v26q21 29 45 66.5t47 77.5t44 80.5t37 73.5h298v-20q-11 -18 -32 -42.5t-47.5 -52t-58 -57 t-62 -57t-59.5 -52.5t-52 -43h-160zM845 1564v26q21 29 45 66.5t47 77.5t44 80.5t37 73.5h298v-20q-11 -18 -32 -42.5t-47.5 -52t-57.5 -57t-62 -57t-59.5 -52.5t-51.5 -43h-161z" />
<glyph unicode="&#x151;" horiz-adv-x="1214" d="M101 555q0 138 35 245t101 179.5t160 110.5t213 38q110 0 202 -38t159 -110.5t104.5 -179.5t37.5 -245t-35.5 -245t-101 -180.5t-160 -111.5t-212.5 -38q-110 0 -202 38t-159 111.5t-104.5 180.5t-37.5 245zM410 555q0 -165 46.5 -248.5t151.5 -83.5q104 0 150.5 84 t46.5 248q0 166 -46.5 247.5t-152.5 81.5q-104 0 -150 -81.5t-46 -247.5zM266 1229v26q21 29 45 66.5t47 77.5t44 80.5t37 73.5h298v-20q-11 -18 -32 -42.5t-47.5 -52t-58 -57t-62 -57t-59.5 -52.5t-52 -43h-160zM659 1229v26q21 29 45 66.5t47 77.5t44 80.5t37 73.5h298 v-20q-11 -18 -32 -42.5t-47.5 -52t-57.5 -57t-62 -57t-59.5 -52.5t-51.5 -43h-161z" />
<glyph unicode="&#x152;" horiz-adv-x="1911" d="M118 728q0 168 39 305t119 234t202.5 150t289.5 53q54 0 102.5 -6t92.5 -17h829v-251h-527v-318h491v-251h-491v-374h527v-253h-833q-44 -9 -92 -14.5t-101 -5.5q-166 0 -288.5 53.5t-202 151.5t-118.5 236t-39 307zM434 726q0 -114 19.5 -204.5t60.5 -153.5t103.5 -96.5 t148.5 -33.5q60 0 108 9.5t85 28.5v898q-36 20 -83.5 30.5t-107.5 10.5q-86 0 -149.5 -34t-104.5 -97t-60.5 -153.5t-19.5 -204.5z" />
<glyph unicode="&#x153;" horiz-adv-x="1881" d="M101 555q0 138 35 245t101 179.5t160 110.5t213 38q105 0 192.5 -39.5t152.5 -115.5q66 77 155.5 116t197.5 39q110 0 198.5 -33.5t150 -97.5t94.5 -158t33 -214v-147h-675v-8q6 -125 73 -195t186 -70q51 0 96 5.5t88 16.5t84.5 27t85.5 38v-234q-40 -20 -80 -34.5 t-84.5 -24.5t-96 -14.5t-113.5 -4.5q-117 0 -216 37t-171 117q-65 -78 -155 -116t-202 -38q-110 0 -202 38t-159 111.5t-104.5 180.5t-37.5 245zM410 555q0 -165 46.5 -248.5t151.5 -83.5q104 0 150.5 84t46.5 248q0 166 -46.5 247.5t-152.5 81.5q-104 0 -150 -81.5 t-46 -247.5zM1115 679h386q-1 51 -13 93.5t-35.5 73.5t-59.5 49t-83 18q-41 0 -75 -14t-59.5 -42.5t-41 -72.5t-19.5 -105z" />
<glyph unicode="&#x154;" horiz-adv-x="1277" d="M182 0v1447h396q278 0 411 -107t133 -326q0 -74 -20 -134.5t-53 -107.5t-76 -82.5t-91 -58.5q110 -177 197 -315q38 -60 73 -116t62.5 -101t45.5 -71l17 -28h-340l-314 555h-134v-555h-307zM489 805h83q128 0 183.5 51t55.5 150q0 103 -59.5 146.5t-184.5 43.5h-78v-391z M453 1564v26q20 29 44 66.5t47.5 77.5t44 80.5t36.5 73.5h339v-20q-11 -18 -32 -42.5t-47.5 -52t-57.5 -57t-62 -57t-60 -52.5t-51 -43h-201z" />
<glyph unicode="&#x155;" horiz-adv-x="880" d="M158 0v1107h229l45 -167h14q24 43 52 77.5t62 59t77 38t99 13.5q11 0 25.5 -0.5t28 -2t25 -3t17.5 -3.5v-283q-8 2 -22 4t-29.5 3t-30 1.5t-24.5 0.5q-59 0 -108 -14.5t-84 -48t-54.5 -87t-19.5 -132.5v-563h-302zM335 1229v26q20 29 44 66.5t47.5 77.5t44 80.5 t36.5 73.5h339v-20q-11 -18 -32 -42.5t-47.5 -52t-57.5 -57t-62 -57t-60 -52.5t-51 -43h-201z" />
<glyph unicode="&#x156;" horiz-adv-x="1277" d="M182 0v1447h396q278 0 411 -107t133 -326q0 -74 -20 -134.5t-53 -107.5t-76 -82.5t-91 -58.5q110 -177 197 -315q38 -60 73 -116t62.5 -101t45.5 -71l17 -28h-340l-314 555h-134v-555h-307zM489 805h83q128 0 183.5 51t55.5 150q0 103 -59.5 146.5t-184.5 43.5h-78v-391z M484 -422q9 30 18 68t17.5 78t15.5 80t11 72h279v-20q-31 -68 -71.5 -145.5t-92.5 -158.5h-177v26z" />
<glyph unicode="&#x157;" horiz-adv-x="880" d="M158 0v1107h229l45 -167h14q24 43 52 77.5t62 59t77 38t99 13.5q11 0 25.5 -0.5t28 -2t25 -3t17.5 -3.5v-283q-8 2 -22 4t-29.5 3t-30 1.5t-24.5 0.5q-59 0 -108 -14.5t-84 -48t-54.5 -87t-19.5 -132.5v-563h-302zM111 -422q9 30 18 68t17.5 78t15.5 80t11 72h279v-20 q-31 -68 -71.5 -145.5t-92.5 -158.5h-177v26z" />
<glyph unicode="&#x158;" horiz-adv-x="1277" d="M182 0v1447h396q278 0 411 -107t133 -326q0 -74 -20 -134.5t-53 -107.5t-76 -82.5t-91 -58.5q110 -177 197 -315q38 -60 73 -116t62.5 -101t45.5 -71l17 -28h-340l-314 555h-134v-555h-307zM489 805h83q128 0 183.5 51t55.5 150q0 103 -59.5 146.5t-184.5 43.5h-78v-391z M207 1862v26h201q51 -33 102.5 -76t104.5 -98q52 55 106 98t105 76h201v-26q-25 -29 -57 -66.5t-64 -78t-62 -80t-51 -73.5h-352q-22 34 -51.5 73.5t-62 80t-63.5 78t-57 66.5z" />
<glyph unicode="&#x159;" horiz-adv-x="880" d="M158 0v1107h229l45 -167h14q24 43 52 77.5t62 59t77 38t99 13.5q11 0 25.5 -0.5t28 -2t25 -3t17.5 -3.5v-283q-8 2 -22 4t-29.5 3t-30 1.5t-24.5 0.5q-59 0 -108 -14.5t-84 -48t-54.5 -87t-19.5 -132.5v-563h-302zM82 1527v26h201q51 -33 102.5 -76t104.5 -98 q52 55 106 98t105 76h201v-26q-25 -29 -57 -66.5t-64 -78t-62 -80t-51 -73.5h-352q-22 34 -51.5 73.5t-62 80t-63.5 78t-57 66.5z" />
<glyph unicode="&#x15a;" horiz-adv-x="1062" d="M93 67v285q48 -22 96.5 -43.5t98.5 -38.5t100 -26.5t99 -9.5q51 0 87 11t58 31.5t32.5 48.5t10.5 62q0 41 -17 72t-48.5 58t-75.5 53t-98 55q-46 23 -102.5 57t-106.5 84t-83.5 120.5t-33.5 169.5q0 97 32 174t91.5 130t144 80.5t189.5 27.5q53 0 103 -7t99 -19.5 t98.5 -31.5t101.5 -44l-99 -238q-44 20 -83 36t-75.5 27t-71.5 16.5t-71 5.5q-77 0 -118 -41t-41 -110q0 -36 12.5 -64.5t39.5 -53t70 -50.5t105 -58q74 -40 136.5 -81t107.5 -91t69.5 -113.5t24.5 -148.5q0 -97 -33 -175t-97 -132.5t-156.5 -84.5t-212.5 -30 q-105 0 -202.5 22t-180.5 65zM406 1564v26q20 29 44 66.5t47.5 77.5t44 80.5t36.5 73.5h339v-20q-11 -18 -32 -42.5t-47.5 -52t-57.5 -57t-62 -57t-60 -52.5t-51 -43h-201z" />
<glyph unicode="&#x15b;" horiz-adv-x="975" d="M97 819q0 77 29.5 135t84 96.5t131.5 58t171 19.5q99 0 188 -23t183 -68l-91 -214q-75 35 -143.5 58t-136.5 23q-62 0 -89 -22t-27 -59q0 -20 7 -35.5t27.5 -31.5t58.5 -35.5t98 -47.5q70 -30 126.5 -60.5t97 -69t62.5 -90t22 -124.5q0 -87 -31.5 -152.5t-90 -109 t-142 -65.5t-186.5 -22q-54 0 -100.5 3.5t-88 11.5t-80 20t-78.5 30v249q42 -21 88 -37.5t91.5 -29t88.5 -19.5t79 -7q41 0 69.5 7.5t47 21t27 31.5t8.5 39t-6.5 37t-29 34.5t-67 42t-118.5 56.5q-72 33 -125 65t-87 71.5t-51 90.5t-17 122zM339 1229v26q20 29 44 66.5 t47.5 77.5t44 80.5t36.5 73.5h339v-20q-11 -18 -32 -42.5t-47.5 -52t-57.5 -57t-62 -57t-60 -52.5t-51 -43h-201z" />
<glyph unicode="&#x15c;" horiz-adv-x="1062" d="M93 67v285q48 -22 96.5 -43.5t98.5 -38.5t100 -26.5t99 -9.5q51 0 87 11t58 31.5t32.5 48.5t10.5 62q0 41 -17 72t-48.5 58t-75.5 53t-98 55q-46 23 -102.5 57t-106.5 84t-83.5 120.5t-33.5 169.5q0 97 32 174t91.5 130t144 80.5t189.5 27.5q53 0 103 -7t99 -19.5 t98.5 -31.5t101.5 -44l-99 -238q-44 20 -83 36t-75.5 27t-71.5 16.5t-71 5.5q-77 0 -118 -41t-41 -110q0 -36 12.5 -64.5t39.5 -53t70 -50.5t105 -58q74 -40 136.5 -81t107.5 -91t69.5 -113.5t24.5 -148.5q0 -97 -33 -175t-97 -132.5t-156.5 -84.5t-212.5 -30 q-105 0 -202.5 22t-180.5 65zM155 1564v26q26 29 57 66.5t63.5 77.5t62 80.5t51.5 73.5h352q21 -33 51 -73.5t62 -80.5t64 -77.5t57 -66.5v-26h-201q-51 33 -105 75.5t-106 98.5q-53 -56 -104.5 -98.5t-102.5 -75.5h-201z" />
<glyph unicode="&#x15d;" horiz-adv-x="975" d="M97 819q0 77 29.5 135t84 96.5t131.5 58t171 19.5q99 0 188 -23t183 -68l-91 -214q-75 35 -143.5 58t-136.5 23q-62 0 -89 -22t-27 -59q0 -20 7 -35.5t27.5 -31.5t58.5 -35.5t98 -47.5q70 -30 126.5 -60.5t97 -69t62.5 -90t22 -124.5q0 -87 -31.5 -152.5t-90 -109 t-142 -65.5t-186.5 -22q-54 0 -100.5 3.5t-88 11.5t-80 20t-78.5 30v249q42 -21 88 -37.5t91.5 -29t88.5 -19.5t79 -7q41 0 69.5 7.5t47 21t27 31.5t8.5 39t-6.5 37t-29 34.5t-67 42t-118.5 56.5q-72 33 -125 65t-87 71.5t-51 90.5t-17 122zM104 1229v26q26 29 57 66.5 t63.5 77.5t62 80.5t51.5 73.5h352q21 -33 51 -73.5t62 -80.5t64 -77.5t57 -66.5v-26h-201q-51 33 -105 75.5t-106 98.5q-53 -56 -104.5 -98.5t-102.5 -75.5h-201z" />
<glyph unicode="&#x15e;" horiz-adv-x="1062" d="M93 67v285q48 -22 96.5 -43.5t98.5 -38.5t100 -26.5t99 -9.5q51 0 87 11t58 31.5t32.5 48.5t10.5 62q0 41 -17 72t-48.5 58t-75.5 53t-98 55q-46 23 -102.5 57t-106.5 84t-83.5 120.5t-33.5 169.5q0 97 32 174t91.5 130t144 80.5t189.5 27.5q53 0 103 -7t99 -19.5 t98.5 -31.5t101.5 -44l-99 -238q-44 20 -83 36t-75.5 27t-71.5 16.5t-71 5.5q-77 0 -118 -41t-41 -110q0 -36 12.5 -64.5t39.5 -53t70 -50.5t105 -58q74 -40 136.5 -81t107.5 -91t69.5 -113.5t24.5 -148.5q0 -97 -33 -175t-97 -132.5t-156.5 -84.5t-212.5 -30 q-105 0 -202.5 22t-180.5 65zM294 -300q15 -4 33.5 -7.5t37.5 -6.5t37.5 -5t33.5 -2q29 0 50 13.5t21 48.5q0 36 -36.5 64.5t-127.5 42.5l77 152h191l-27 -60q31 -10 60 -27t51 -40t36 -53.5t14 -67.5q0 -56 -15.5 -100.5t-51 -75t-94.5 -47t-145 -16.5q-45 0 -80.5 6 t-64.5 15v166z" />
<glyph unicode="&#x15f;" horiz-adv-x="975" d="M97 819q0 77 29.5 135t84 96.5t131.5 58t171 19.5q99 0 188 -23t183 -68l-91 -214q-75 35 -143.5 58t-136.5 23q-62 0 -89 -22t-27 -59q0 -20 7 -35.5t27.5 -31.5t58.5 -35.5t98 -47.5q70 -30 126.5 -60.5t97 -69t62.5 -90t22 -124.5q0 -87 -31.5 -152.5t-90 -109 t-142 -65.5t-186.5 -22q-54 0 -100.5 3.5t-88 11.5t-80 20t-78.5 30v249q42 -21 88 -37.5t91.5 -29t88.5 -19.5t79 -7q41 0 69.5 7.5t47 21t27 31.5t8.5 39t-6.5 37t-29 34.5t-67 42t-118.5 56.5q-72 33 -125 65t-87 71.5t-51 90.5t-17 122zM239 -300q15 -4 33.5 -7.5 t37.5 -6.5t37.5 -5t33.5 -2q29 0 50 13.5t21 48.5q0 36 -36.5 64.5t-127.5 42.5l77 152h191l-27 -60q31 -10 60 -27t51 -40t36 -53.5t14 -67.5q0 -56 -15.5 -100.5t-51 -75t-94.5 -47t-145 -16.5q-45 0 -80.5 6t-64.5 15v166z" />
<glyph unicode="&#x160;" horiz-adv-x="1062" d="M93 67v285q48 -22 96.5 -43.5t98.5 -38.5t100 -26.5t99 -9.5q51 0 87 11t58 31.5t32.5 48.5t10.5 62q0 41 -17 72t-48.5 58t-75.5 53t-98 55q-46 23 -102.5 57t-106.5 84t-83.5 120.5t-33.5 169.5q0 97 32 174t91.5 130t144 80.5t189.5 27.5q53 0 103 -7t99 -19.5 t98.5 -31.5t101.5 -44l-99 -238q-44 20 -83 36t-75.5 27t-71.5 16.5t-71 5.5q-77 0 -118 -41t-41 -110q0 -36 12.5 -64.5t39.5 -53t70 -50.5t105 -58q74 -40 136.5 -81t107.5 -91t69.5 -113.5t24.5 -148.5q0 -97 -33 -175t-97 -132.5t-156.5 -84.5t-212.5 -30 q-105 0 -202.5 22t-180.5 65zM136 1862v26h201q51 -33 102.5 -76t104.5 -98q52 55 106 98t105 76h201v-26q-25 -29 -57 -66.5t-64 -78t-62 -80t-51 -73.5h-352q-22 34 -51.5 73.5t-62 80t-63.5 78t-57 66.5z" />
<glyph unicode="&#x161;" horiz-adv-x="975" d="M97 819q0 77 29.5 135t84 96.5t131.5 58t171 19.5q99 0 188 -23t183 -68l-91 -214q-75 35 -143.5 58t-136.5 23q-62 0 -89 -22t-27 -59q0 -20 7 -35.5t27.5 -31.5t58.5 -35.5t98 -47.5q70 -30 126.5 -60.5t97 -69t62.5 -90t22 -124.5q0 -87 -31.5 -152.5t-90 -109 t-142 -65.5t-186.5 -22q-54 0 -100.5 3.5t-88 11.5t-80 20t-78.5 30v249q42 -21 88 -37.5t91.5 -29t88.5 -19.5t79 -7q41 0 69.5 7.5t47 21t27 31.5t8.5 39t-6.5 37t-29 34.5t-67 42t-118.5 56.5q-72 33 -125 65t-87 71.5t-51 90.5t-17 122zM92 1527v26h201 q51 -33 102.5 -76t104.5 -98q52 55 106 98t105 76h201v-26q-25 -29 -57 -66.5t-64 -78t-62 -80t-51 -73.5h-352q-22 34 -51.5 73.5t-62 80t-63.5 78t-57 66.5z" />
<glyph unicode="&#x162;" horiz-adv-x="1112" d="M41 1192v255h1031v-255h-362v-1192h-306v1192h-363zM364 -422q9 30 18 68t17.5 78t15.5 80t11 72h279v-20q-31 -68 -71.5 -145.5t-92.5 -158.5h-177v26z" />
<glyph unicode="&#x163;" horiz-adv-x="839" d="M47 880v128l166 101l87 233h193v-235h269v-227h-269v-534q0 -64 31.5 -94.5t83.5 -30.5q44 0 84.5 10t81.5 24v-224q-42 -22 -105 -36.5t-137 -14.5q-73 0 -135 17t-107.5 59t-72 113t-26.5 177v534h-144zM254 -422q9 30 18 68t17.5 78t15.5 80t11 72h279v-20 q-31 -68 -71.5 -145.5t-92.5 -158.5h-177v26z" />
<glyph unicode="&#x164;" horiz-adv-x="1112" d="M41 1192v255h1031v-255h-362v-1192h-306v1192h-363zM148 1862v26h201q51 -33 102.5 -76t104.5 -98q52 55 106 98t105 76h201v-26q-25 -29 -57 -66.5t-64 -78t-62 -80t-51 -73.5h-352q-22 34 -51.5 73.5t-62 80t-63.5 78t-57 66.5z" />
<glyph unicode="&#x165;" horiz-adv-x="839" d="M47 880v128l166 101l87 233h193v-235h269v-227h-269v-534q0 -64 31.5 -94.5t83.5 -30.5q44 0 84.5 10t81.5 24v-224q-42 -22 -105 -36.5t-137 -14.5q-73 0 -135 17t-107.5 59t-72 113t-26.5 177v534h-144zM613 1237v25q9 30 18 68t17.5 78.5t15.5 80t11 71.5h279v-19 q-31 -68 -71.5 -146t-92.5 -158h-177z" />
<glyph unicode="&#x166;" horiz-adv-x="1112" d="M41 1192v255h1031v-255h-362v-350h234v-252h-234v-590h-306v590h-236v252h236v350h-363z" />
<glyph unicode="&#x167;" horiz-adv-x="839" d="M47 876v132l166 101l87 233h193v-235h269v-231h-269v-187h235v-196h-235v-147q0 -64 31.5 -94.5t83.5 -30.5q44 0 84.5 10t81.5 24v-224q-42 -22 -105 -36.5t-137 -14.5q-73 0 -135 17t-107.5 59t-72 113t-26.5 177v147h-126v196h126v187h-144z" />
<glyph unicode="&#x168;" horiz-adv-x="1451" d="M172 515v932h306v-909q0 -81 16 -137.5t47 -93t77.5 -53t109.5 -16.5q129 0 187 75t58 227v907h306v-936q0 -113 -34 -210t-104 -168.5t-175 -112t-246 -40.5q-134 0 -236.5 38t-171 108.5t-104.5 169t-36 219.5zM331 1562q6 79 26 136.5t52 95t75.5 56t96.5 18.5 q40 0 78.5 -16t77 -35.5t75.5 -35.5t72 -16q31 0 49 25.5t31 78.5h147q-6 -78 -26 -135.5t-53 -95.5t-76 -56t-94 -18q-40 0 -79.5 16t-77 35.5t-75 36t-72.5 16.5q-31 0 -49.5 -26.5t-29.5 -79.5h-148z" />
<glyph unicode="&#x169;" horiz-adv-x="1271" d="M152 385v722h302v-647q0 -119 36.5 -179t115.5 -60q59 0 98.5 23.5t63 70t33.5 115t10 156.5v521h302v-1107h-231l-40 142h-16q-25 -43 -59 -73t-75 -50t-86.5 -29.5t-92.5 -9.5q-81 0 -147.5 23.5t-114 73t-73.5 125.5t-26 183zM244 1227q6 79 26 136.5t52 95t75.5 56 t96.5 18.5q40 0 78.5 -16t77 -35.5t75.5 -35.5t72 -16q31 0 49 25.5t31 78.5h147q-6 -78 -26 -135.5t-53 -95.5t-76 -56t-94 -18q-40 0 -79.5 16t-77 35.5t-75 36t-72.5 16.5q-31 0 -49.5 -26.5t-29.5 -79.5h-148z" />
<glyph unicode="&#x16a;" horiz-adv-x="1451" d="M172 515v932h306v-909q0 -81 16 -137.5t47 -93t77.5 -53t109.5 -16.5q129 0 187 75t58 227v907h306v-936q0 -113 -34 -210t-104 -168.5t-175 -112t-246 -40.5q-134 0 -236.5 38t-171 108.5t-104.5 169t-36 219.5zM417 1564v208h611v-208h-611z" />
<glyph unicode="&#x16b;" horiz-adv-x="1271" d="M152 385v722h302v-647q0 -119 36.5 -179t115.5 -60q59 0 98.5 23.5t63 70t33.5 115t10 156.5v521h302v-1107h-231l-40 142h-16q-25 -43 -59 -73t-75 -50t-86.5 -29.5t-92.5 -9.5q-81 0 -147.5 23.5t-114 73t-73.5 125.5t-26 183zM326 1229v208h611v-208h-611z" />
<glyph unicode="&#x16c;" horiz-adv-x="1451" d="M172 515v932h306v-909q0 -81 16 -137.5t47 -93t77.5 -53t109.5 -16.5q129 0 187 75t58 227v907h306v-936q0 -113 -34 -210t-104 -168.5t-175 -112t-246 -40.5q-134 0 -236.5 38t-171 108.5t-104.5 169t-36 219.5zM363 1898h168q4 -42 18 -67t37.5 -37.5t57 -16t76.5 -3.5 q36 0 68 4.5t57.5 18t42 38t20.5 63.5h172q-4 -74 -30 -135.5t-71.5 -105.5t-111 -68.5t-149.5 -24.5q-87 0 -152.5 23.5t-109 67t-66.5 105.5t-27 138z" />
<glyph unicode="&#x16d;" horiz-adv-x="1271" d="M152 385v722h302v-647q0 -119 36.5 -179t115.5 -60q59 0 98.5 23.5t63 70t33.5 115t10 156.5v521h302v-1107h-231l-40 142h-16q-25 -43 -59 -73t-75 -50t-86.5 -29.5t-92.5 -9.5q-81 0 -147.5 23.5t-114 73t-73.5 125.5t-26 183zM272 1563h168q4 -42 18 -67t37.5 -37.5 t57 -16t76.5 -3.5q36 0 68 4.5t57.5 18t42 38t20.5 63.5h172q-4 -74 -30 -135.5t-71.5 -105.5t-111 -68.5t-149.5 -24.5q-87 0 -152.5 23.5t-109 67t-66.5 105.5t-27 138z" />
<glyph unicode="&#x16e;" horiz-adv-x="1451" d="M172 515v932h306v-909q0 -81 16 -137.5t47 -93t77.5 -53t109.5 -16.5q129 0 187 75t58 227v907h306v-936q0 -113 -34 -210t-104 -168.5t-175 -112t-246 -40.5q-134 0 -236.5 38t-171 108.5t-104.5 169t-36 219.5zM483 1797q0 55 17.5 98.5t50 73.5t78 46.5t99.5 16.5 q53 0 98.5 -16.5t79.5 -46.5t54 -73t20 -97q0 -55 -19.5 -99t-53.5 -75t-79.5 -47t-99.5 -16t-99.5 16t-78 46.5t-50 74.5t-17.5 98zM633 1797q0 -44 24 -70t71 -26q42 0 68.5 26t26.5 70q0 45 -26.5 70t-68.5 25q-41 0 -68 -25t-27 -70z" />
<glyph unicode="&#x16f;" horiz-adv-x="1271" d="M152 385v722h302v-647q0 -119 36.5 -179t115.5 -60q59 0 98.5 23.5t63 70t33.5 115t10 156.5v521h302v-1107h-231l-40 142h-16q-25 -43 -59 -73t-75 -50t-86.5 -29.5t-92.5 -9.5q-81 0 -147.5 23.5t-114 73t-73.5 125.5t-26 183zM386 1462q0 55 17.5 98.5t50 73.5 t78 46.5t99.5 16.5q53 0 98.5 -16.5t79.5 -46.5t54 -73t20 -97q0 -55 -19.5 -99t-53.5 -75t-79.5 -47t-99.5 -16t-99.5 16t-78 46.5t-50 74.5t-17.5 98zM536 1462q0 -44 24 -70t71 -26q42 0 68.5 26t26.5 70q0 45 -26.5 70t-68.5 25q-41 0 -68 -25t-27 -70z" />
<glyph unicode="&#x170;" horiz-adv-x="1451" d="M172 515v932h306v-909q0 -81 16 -137.5t47 -93t77.5 -53t109.5 -16.5q129 0 187 75t58 227v907h306v-936q0 -113 -34 -210t-104 -168.5t-175 -112t-246 -40.5q-134 0 -236.5 38t-171 108.5t-104.5 169t-36 219.5zM396 1564v26q21 29 45 66.5t47 77.5t44 80.5t37 73.5h298 v-20q-11 -18 -32 -42.5t-47.5 -52t-58 -57t-62 -57t-59.5 -52.5t-52 -43h-160zM789 1564v26q21 29 45 66.5t47 77.5t44 80.5t37 73.5h298v-20q-11 -18 -32 -42.5t-47.5 -52t-57.5 -57t-62 -57t-59.5 -52.5t-51.5 -43h-161z" />
<glyph unicode="&#x171;" horiz-adv-x="1271" d="M152 385v722h302v-647q0 -119 36.5 -179t115.5 -60q59 0 98.5 23.5t63 70t33.5 115t10 156.5v521h302v-1107h-231l-40 142h-16q-25 -43 -59 -73t-75 -50t-86.5 -29.5t-92.5 -9.5q-81 0 -147.5 23.5t-114 73t-73.5 125.5t-26 183zM310 1229v26q21 29 45 66.5t47 77.5 t44 80.5t37 73.5h298v-20q-11 -18 -32 -42.5t-47.5 -52t-58 -57t-62 -57t-59.5 -52.5t-52 -43h-160zM703 1229v26q21 29 45 66.5t47 77.5t44 80.5t37 73.5h298v-20q-11 -18 -32 -42.5t-47.5 -52t-57.5 -57t-62 -57t-59.5 -52.5t-51.5 -43h-161z" />
<glyph unicode="&#x172;" horiz-adv-x="1451" d="M172 515v932h306v-909q0 -81 16 -137.5t47 -93t77.5 -53t109.5 -16.5q129 0 187 75t58 227v907h306v-936q0 -113 -34 -210t-104 -168.5t-175 -112t-246 -40.5q-134 0 -236.5 38t-171 108.5t-104.5 169t-36 219.5zM542 -259q0 42 14 77.5t38 67t56.5 59t69.5 55.5h177 q-69 -65 -107.5 -119t-38.5 -106q0 -41 22 -61t57 -20q32 0 63 6t51 12v-176q-32 -9 -68.5 -16t-86.5 -7q-57 0 -102.5 17t-77.5 47t-49.5 71.5t-17.5 92.5z" />
<glyph unicode="&#x173;" horiz-adv-x="1271" d="M152 385v722h302v-647q0 -119 36.5 -179t115.5 -60q59 0 98.5 23.5t63 70t33.5 115t10 156.5v521h302v-1107h-231l-40 142h-16q-25 -43 -59 -73t-75 -50t-86.5 -29.5t-92.5 -9.5q-81 0 -147.5 23.5t-114 73t-73.5 125.5t-26 183zM703 -259q0 42 14 77.5t38 67t56.5 59 t69.5 55.5h177q-69 -65 -107.5 -119t-38.5 -106q0 -41 22 -61t57 -20q32 0 63 6t51 12v-176q-32 -9 -68.5 -16t-86.5 -7q-57 0 -102.5 17t-77.5 47t-49.5 71.5t-17.5 92.5z" />
<glyph unicode="&#x174;" horiz-adv-x="1879" d="M0 1447h302l164 -790q3 -15 8.5 -45.5t12.5 -68t14.5 -79t14.5 -81t13 -74t9 -56.5q3 22 8 56t11 72t13.5 78.5t13.5 75.5t11.5 62.5t8.5 39.5l201 810h269l201 -810q3 -12 8.5 -39.5t12 -62.5t13.5 -75.5t13.5 -78.5t11.5 -72t8 -56q3 22 8.5 56.5t12.5 74t14.5 81 t14.5 79t12.5 68t8.5 45.5l164 790h302l-348 -1447h-349l-178 714q-4 15 -9.5 41.5t-12.5 60t-14 70.5t-13 71.5t-10.5 63.5t-5.5 47q-2 -18 -6.5 -47t-10.5 -63t-12.5 -71t-13 -70.5t-12.5 -61t-10 -43.5l-176 -712h-350zM526 1564v26q26 29 57 66.5t63.5 77.5t62 80.5 t51.5 73.5h352q21 -33 51 -73.5t62 -80.5t64 -77.5t57 -66.5v-26h-201q-51 33 -105 75.5t-106 98.5q-53 -56 -104.5 -98.5t-102.5 -75.5h-201z" />
<glyph unicode="&#x175;" horiz-adv-x="1634" d="M0 1107h300l112 -490q9 -39 18.5 -93t17.5 -109t15 -104l11 -77h6q1 18 4.5 48.5t8.5 65t10.5 70.5t11 68t10 56t7.5 34l120 531h333l116 -531q5 -22 13 -67.5t16 -97.5t14 -101t7 -76h6q3 24 10.5 72.5t16.5 104.5t19.5 111.5t19.5 94.5l115 490h296l-301 -1107h-329 l-85 387q-4 17 -10.5 48t-14.5 70t-16.5 83.5t-17.5 87.5q-19 102 -43 220h-6q-23 -118 -42 -221q-8 -43 -16.5 -87.5t-16 -84t-14 -71t-10.5 -49.5l-89 -383h-325zM405 1229v26q26 29 57 66.5t63.5 77.5t62 80.5t51.5 73.5h352q21 -33 51 -73.5t62 -80.5t64 -77.5t57 -66.5 v-26h-201q-51 33 -105 75.5t-106 98.5q-53 -56 -104.5 -98.5t-102.5 -75.5h-201z" />
<glyph unicode="&#x176;" horiz-adv-x="1184" d="M0 1447h333l259 -596l261 596h331l-440 -884v-563h-304v553zM180 1564v26q26 29 57 66.5t63.5 77.5t62 80.5t51.5 73.5h352q21 -33 51 -73.5t62 -80.5t64 -77.5t57 -66.5v-26h-201q-51 33 -105 75.5t-106 98.5q-53 -56 -104.5 -98.5t-102.5 -75.5h-201z" />
<glyph unicode="&#x177;" horiz-adv-x="1092" d="M0 1107h331l178 -623q16 -51 23.5 -109.5t9.5 -105.5h5q2 23 5.5 50.5t8.5 56.5t11.5 57t13.5 51l174 623h333l-438 -1249q-61 -175 -167 -260t-265 -85q-52 0 -89.5 5.5t-64.5 11.5v239q21 -5 52.5 -9t66.5 -4q48 0 81.5 13t57.5 36.5t41.5 56t30.5 73.5l19 55z M138 1229v26q26 29 57 66.5t63.5 77.5t62 80.5t51.5 73.5h352q21 -33 51 -73.5t62 -80.5t64 -77.5t57 -66.5v-26h-201q-51 33 -105 75.5t-106 98.5q-53 -56 -104.5 -98.5t-102.5 -75.5h-201z" />
<glyph unicode="&#x178;" horiz-adv-x="1184" d="M0 1447h333l259 -596l261 596h331l-440 -884v-563h-304v553zM254 1726q0 35 10.5 60t29 41.5t43.5 24.5t54 8t54 -8t44 -24.5t30.5 -41.5t11.5 -60q0 -34 -11.5 -58.5t-30.5 -41t-44 -24.5t-54 -8t-54 8t-43.5 24.5t-29 41t-10.5 58.5zM652 1726q0 35 11 60t30 41.5 t44.5 24.5t55.5 8q28 0 53 -8t44.5 -24.5t31 -41.5t11.5 -60q0 -34 -11.5 -58.5t-31 -41t-44.5 -24.5t-53 -8q-59 0 -100 33t-41 99z" />
<glyph unicode="&#x179;" horiz-adv-x="1092" d="M49 0v199l612 995h-594v253h959v-198l-612 -996h630v-253h-995zM385 1564v26q20 29 44 66.5t47.5 77.5t44 80.5t36.5 73.5h339v-20q-11 -18 -32 -42.5t-47.5 -52t-57.5 -57t-62 -57t-60 -52.5t-51 -43h-201z" />
<glyph unicode="&#x17a;" horiz-adv-x="926" d="M54 0v178l453 698h-422v231h764v-196l-437 -680h456v-231h-814zM310 1229v26q20 29 44 66.5t47.5 77.5t44 80.5t36.5 73.5h339v-20q-11 -18 -32 -42.5t-47.5 -52t-57.5 -57t-62 -57t-60 -52.5t-51 -43h-201z" />
<glyph unicode="&#x17b;" horiz-adv-x="1092" d="M49 0v199l612 995h-594v253h959v-198l-612 -996h630v-253h-995zM401 1728q0 43 12.5 71t35 45.5t52.5 24t64 6.5t63.5 -6.5t51.5 -24t35.5 -45.5t13.5 -71q0 -42 -13.5 -70.5t-35.5 -46t-51.5 -25t-63.5 -7.5t-64 7.5t-52.5 25t-35 46t-12.5 70.5z" />
<glyph unicode="&#x17c;" horiz-adv-x="926" d="M54 0v178l453 698h-422v231h764v-196l-437 -680h456v-231h-814zM312 1393q0 43 12.5 71t35 45.5t52.5 24t64 6.5t63.5 -6.5t51.5 -24t35.5 -45.5t13.5 -71q0 -42 -13.5 -70.5t-35.5 -46t-51.5 -25t-63.5 -7.5t-64 7.5t-52.5 25t-35 46t-12.5 70.5z" />
<glyph unicode="&#x17d;" horiz-adv-x="1092" d="M49 0v199l612 995h-594v253h959v-198l-612 -996h630v-253h-995zM121 1862v26h201q51 -33 102.5 -76t104.5 -98q52 55 106 98t105 76h201v-26q-25 -29 -57 -66.5t-64 -78t-62 -80t-51 -73.5h-352q-22 34 -51.5 73.5t-62 80t-63.5 78t-57 66.5z" />
<glyph unicode="&#x17e;" horiz-adv-x="926" d="M54 0v178l453 698h-422v231h764v-196l-437 -680h456v-231h-814zM72 1527v26h201q51 -33 102.5 -76t104.5 -98q52 55 106 98t105 76h201v-26q-25 -29 -57 -66.5t-64 -78t-62 -80t-51 -73.5h-352q-22 34 -51.5 73.5t-62 80t-63.5 78t-57 66.5z" />
<glyph unicode="&#x17f;" horiz-adv-x="735" d="M158 0v1188q0 106 26 176t73.5 111.5t115 58.5t150.5 17q92 0 154.5 -14t105.5 -32l-71 -222q-31 11 -64.5 20t-80.5 9q-58 0 -82.5 -38t-24.5 -98v-1176h-302z" />
<glyph unicode="&#x192;" d="M174 -225q31 -10 57.5 -14.5t60.5 -4.5q25 0 47 7.5t39.5 27t27.5 51.5t10 83v872h-167v145l167 82v81q0 106 25.5 175.5t73 111.5t115 59t150.5 17q92 0 154.5 -14.5t105.5 -31.5l-71 -222q-30 11 -64 20t-79 9q-60 0 -84 -38.5t-24 -97.5v-69h224v-227h-224l-2 -917 q0 -76 -19.5 -143t-62.5 -117t-111.5 -78.5t-166.5 -28.5q-47 0 -97.5 7t-84.5 18v237z" />
<glyph unicode="&#x1f0;" horiz-adv-x="618" d="M-81 -225q31 -10 57.5 -14.5t60.5 -4.5q24 0 46.5 7.5t39 27t26 51.5t9.5 83v1182h302v-1227q0 -76 -19 -143t-62 -117t-111.5 -78.5t-166.5 -28.5q-48 0 -98.5 7t-83.5 18v237zM-101 1527v26h201q51 -33 102.5 -76t104.5 -98q52 55 106 98t105 76h201v-26 q-25 -29 -57 -66.5t-64 -78t-62 -80t-51 -73.5h-352q-22 34 -51.5 73.5t-62 80t-63.5 78t-57 66.5z" />
<glyph unicode="&#x1fa;" horiz-adv-x="1317" d="M0 0l454 1302q-42 57 -42 143q0 56 17.5 99.5t50 73.5t78 46.5t99.5 16.5q53 0 98.5 -16.5t79.5 -46.5t54 -73t20 -98q0 -44 -13 -80t-35 -65l457 -1302h-310l-104 327h-492l-102 -327h-310zM484 584h354l-94 286q-5 15 -17 52t-25.5 81t-25.5 88.5t-17 74.5 q-4 -19 -10 -46t-14.5 -56t-17.5 -60t-17 -57t-14.5 -46.5t-9.5 -30.5zM538 1735v16l44 44q24 24 47 49.5t44 51t37 46.5h338v-12q-15 -17 -53 -43t-83.5 -54t-92.5 -54t-81 -44h-200zM561 1445q0 -42 21.5 -67.5t63.5 -27.5h19q38 2 62.5 27.5t24.5 67.5q0 45 -26.5 70 t-68.5 25q-41 0 -68.5 -25t-27.5 -70z" />
<glyph unicode="&#x1fb;" horiz-adv-x="1164" d="M85 331q0 176 113 259.5t338 92.5l176 6v83q0 69 -39.5 101.5t-111.5 32.5q-71 0 -139 -21t-136 -55l-98 200q83 46 184 73t212 27q207 0 317.5 -97t110.5 -295v-738h-211l-59 150h-8q-33 -44 -65.5 -76t-71.5 -53t-87 -31t-111 -10q-67 0 -124.5 21.5t-99.5 64.5 t-66 109t-24 156zM337 1422q0 54 17.5 97.5t50 74t78 46.5t99.5 16q53 0 98.5 -16t79.5 -46.5t54 -73.5t20 -96q0 -56 -19.5 -100t-53.5 -74.5t-79.5 -47t-99.5 -16.5t-99.5 16.5t-78 46.5t-50 74t-17.5 99zM395 329q0 -70 33.5 -99t88.5 -29q41 0 77 14.5t62 42.5t41 69 t15 95v91l-100 -4q-61 -2 -102.5 -16t-66.5 -37t-36.5 -55.5t-11.5 -71.5zM446 1735v16q21 20 45 44t47 49.5t44 51t37 46.5h338v-12q-16 -17 -53.5 -43t-83.5 -54t-92.5 -54t-81.5 -44h-200zM487 1422q0 -45 24 -70.5t71 -25.5q42 0 68.5 25.5t26.5 70.5q0 44 -26.5 69.5 t-68.5 25.5q-41 0 -68 -25.5t-27 -69.5z" />
<glyph unicode="&#x1fc;" horiz-adv-x="1869" d="M0 0l648 1447h1101v-251h-526v-318h491v-251h-491v-374h526v-253h-832v345h-457l-148 -345h-312zM572 602h345v584h-96zM973 1564v26q20 29 44 66.5t47.5 77.5t44 80.5t36.5 73.5h339v-20q-11 -18 -32 -42.5t-47.5 -52t-57.5 -57t-62 -57t-60 -52.5t-51 -43h-201z" />
<glyph unicode="&#x1fd;" horiz-adv-x="1787" d="M85 331q0 176 113 259.5t338 92.5l176 6v83q0 69 -39.5 101.5t-111.5 32.5q-71 0 -139 -21t-136 -55l-98 200q83 46 184 73t212 27q212 0 320 -130q125 128 311 128q110 0 198.5 -33.5t150 -97.5t94.5 -158t33 -214v-147h-675q2 -63 20 -114t51.5 -86t80.5 -54t107 -19 q93 0 179.5 21.5t174.5 65.5v-234q-40 -20 -80 -34.5t-84.5 -24.5t-96 -14.5t-113.5 -4.5q-129 0 -235 50t-175 154q-42 -53 -83.5 -91.5t-90 -63.5t-109.5 -37t-142 -12q-68 0 -128.5 21.5t-106.5 64.5t-73 109t-27 156zM395 329q0 -70 33.5 -99t88.5 -29q41 0 77 14.5 t62 42.5t41 69t15 95v91l-100 -4q-61 -2 -102.5 -16t-66.5 -37t-36.5 -55.5t-11.5 -71.5zM1022 679h385q-1 51 -13 93.5t-35 73.5t-59 49t-83 18q-81 0 -134 -56.5t-61 -177.5zM749 1229v26q20 29 44 66.5t47.5 77.5t44 80.5t36.5 73.5h339v-20q-11 -18 -32 -42.5t-47.5 -52 t-57.5 -57t-62 -57t-60 -52.5t-51 -43h-201z" />
<glyph unicode="&#x1fe;" horiz-adv-x="1532" d="M118 728q0 168 39 305t119 234t202.5 150t289.5 53q90 0 167 -16.5t141 -46.5l69 110l165 -95l-79 -128q93 -98 139 -242t46 -326q0 -168 -39.5 -305.5t-119.5 -235.5t-202 -151.5t-289 -53.5q-177 0 -304 61l-71 -116l-166 93l81 132q-96 99 -142 246t-46 332zM434 726 q0 -179 46 -292l453 738q-69 43 -165 43q-86 0 -149.5 -34t-104.5 -97t-60.5 -153.5t-19.5 -204.5zM606 276q34 -19 73.5 -28.5t86.5 -9.5q88 0 151 33.5t103 96.5t59.5 153.5t19.5 204.5q0 169 -43 284zM584 1564v26q20 29 44 66.5t47.5 77.5t44 80.5t36.5 73.5h339v-20 q-11 -18 -32 -42.5t-47.5 -52t-57.5 -57t-62 -57t-60 -52.5t-51 -43h-201z" />
<glyph unicode="&#x1ff;" horiz-adv-x="1214" d="M101 555q0 138 35 245t101 179.5t160 110.5t213 38q61 0 118 -13t108 -36l48 78l158 -95l-61 -97q62 -71 97 -174.5t35 -235.5q0 -138 -35.5 -245t-101 -180.5t-160 -111.5t-212.5 -38q-57 0 -108 10t-99 28l-56 -93l-161 89l68 110q-69 73 -108 181.5t-39 249.5z M410 555q0 -85 12 -149l280 453q-40 25 -96 25q-104 0 -150 -81.5t-46 -247.5zM534 238q16 -8 34.5 -11.5t39.5 -3.5q104 0 150.5 84t46.5 248q0 64 -6 112zM430 1229v26q20 29 44 66.5t47.5 77.5t44 80.5t36.5 73.5h339v-20q-11 -18 -32 -42.5t-47.5 -52t-57.5 -57t-62 -57 t-60 -52.5t-51 -43h-201z" />
<glyph unicode="&#x218;" horiz-adv-x="1062" d="M93 67v285q48 -22 96.5 -43.5t98.5 -38.5t100 -26.5t99 -9.5q51 0 87 11t58 31.5t32.5 48.5t10.5 62q0 41 -17 72t-48.5 58t-75.5 53t-98 55q-46 23 -102.5 57t-106.5 84t-83.5 120.5t-33.5 169.5q0 97 32 174t91.5 130t144 80.5t189.5 27.5q53 0 103 -7t99 -19.5 t98.5 -31.5t101.5 -44l-99 -238q-44 20 -83 36t-75.5 27t-71.5 16.5t-71 5.5q-77 0 -118 -41t-41 -110q0 -36 12.5 -64.5t39.5 -53t70 -50.5t105 -58q74 -40 136.5 -81t107.5 -91t69.5 -113.5t24.5 -148.5q0 -97 -33 -175t-97 -132.5t-156.5 -84.5t-212.5 -30 q-105 0 -202.5 22t-180.5 65zM346 -422q9 30 18 68t17.5 78t15.5 80t11 72h279v-20q-31 -68 -71.5 -145.5t-92.5 -158.5h-177v26z" />
<glyph unicode="&#x219;" horiz-adv-x="975" d="M97 819q0 77 29.5 135t84 96.5t131.5 58t171 19.5q99 0 188 -23t183 -68l-91 -214q-75 35 -143.5 58t-136.5 23q-62 0 -89 -22t-27 -59q0 -20 7 -35.5t27.5 -31.5t58.5 -35.5t98 -47.5q70 -30 126.5 -60.5t97 -69t62.5 -90t22 -124.5q0 -87 -31.5 -152.5t-90 -109 t-142 -65.5t-186.5 -22q-54 0 -100.5 3.5t-88 11.5t-80 20t-78.5 30v249q42 -21 88 -37.5t91.5 -29t88.5 -19.5t79 -7q41 0 69.5 7.5t47 21t27 31.5t8.5 39t-6.5 37t-29 34.5t-67 42t-118.5 56.5q-72 33 -125 65t-87 71.5t-51 90.5t-17 122zM316 -422q9 30 18 68t17.5 78 t15.5 80t11 72h279v-20q-31 -68 -71.5 -145.5t-92.5 -158.5h-177v26z" />
<glyph unicode="&#x2bc;" horiz-adv-x="435" d="M23 951q14 60 28 125t27.5 130.5t24.5 127t19 113.5h277l15 -21q-14 -55 -33.5 -115t-42.5 -121.5t-48.5 -122t-49.5 -116.5h-217z" />
<glyph unicode="&#x2c6;" horiz-adv-x="1170" d="M174 1229v26q26 29 57 66.5t63.5 77.5t62 80.5t51.5 73.5h352q21 -33 51 -73.5t62 -80.5t64 -77.5t57 -66.5v-26h-201q-51 33 -105 75.5t-106 98.5q-53 -56 -104.5 -98.5t-102.5 -75.5h-201z" />
<glyph unicode="&#x2c7;" horiz-adv-x="1170" d="M174 1527v26h201q51 -33 102.5 -76t104.5 -98q52 55 106 98t105 76h201v-26q-25 -29 -57 -66.5t-64 -78t-62 -80t-51 -73.5h-352q-22 34 -51.5 73.5t-62 80t-63.5 78t-57 66.5z" />
<glyph unicode="&#x2c9;" horiz-adv-x="1129" d="M259 1229v208h611v-208h-611z" />
<glyph unicode="&#x2d8;" horiz-adv-x="1170" d="M225 1563h168q4 -42 18 -67t37.5 -37.5t57 -16t76.5 -3.5q36 0 68 4.5t57.5 18t42 38t20.5 63.5h172q-4 -74 -30 -135.5t-71.5 -105.5t-111 -68.5t-149.5 -24.5q-87 0 -152.5 23.5t-109 67t-66.5 105.5t-27 138z" />
<glyph unicode="&#x2d9;" horiz-adv-x="618" d="M146 1393q0 43 12.5 71t35 45.5t52.5 24t64 6.5t63.5 -6.5t51.5 -24t35.5 -45.5t13.5 -71q0 -42 -13.5 -70.5t-35.5 -46t-51.5 -25t-63.5 -7.5t-64 7.5t-52.5 25t-35 46t-12.5 70.5z" />
<glyph unicode="&#x2da;" horiz-adv-x="1170" d="M337 1462q0 55 17.5 98.5t50 73.5t78 46.5t99.5 16.5q53 0 98.5 -16.5t79.5 -46.5t54 -73t20 -97q0 -55 -19.5 -99t-53.5 -75t-79.5 -47t-99.5 -16t-99.5 16t-78 46.5t-50 74.5t-17.5 98zM487 1462q0 -44 24 -70t71 -26q42 0 68.5 26t26.5 70q0 45 -26.5 70t-68.5 25 q-41 0 -68 -25t-27 -70z" />
<glyph unicode="&#x2db;" horiz-adv-x="417" d="M10 -259q0 42 14 77.5t38 67t56.5 59t69.5 55.5h177q-69 -65 -107.5 -119t-38.5 -106q0 -41 22 -61t57 -20q32 0 63 6t51 12v-176q-32 -9 -68.5 -16t-86.5 -7q-57 0 -102.5 17t-77.5 47t-49.5 71.5t-17.5 92.5z" />
<glyph unicode="&#x2dc;" horiz-adv-x="1170" d="M195 1227q6 79 26 136.5t52 95t75.5 56t96.5 18.5q40 0 78.5 -16t77 -35.5t75.5 -35.5t72 -16q31 0 49 25.5t31 78.5h147q-6 -78 -26 -135.5t-53 -95.5t-76 -56t-94 -18q-40 0 -79.5 16t-77 35.5t-75 36t-72.5 16.5q-31 0 -49.5 -26.5t-29.5 -79.5h-148z" />
<glyph unicode="&#x2dd;" horiz-adv-x="1170" d="M154 1229v26q21 29 45 66.5t47 77.5t44 80.5t37 73.5h298v-20q-11 -18 -32 -42.5t-47.5 -52t-58 -57t-62 -57t-59.5 -52.5t-52 -43h-160zM547 1229v26q21 29 45 66.5t47 77.5t44 80.5t37 73.5h298v-20q-11 -18 -32 -42.5t-47.5 -52t-57.5 -57t-62 -57t-59.5 -52.5 t-51.5 -43h-161z" />
<glyph unicode="&#x2f3;" horiz-adv-x="675" d="M87 -358q0 54 18 97.5t50 74t77 46.5t101 16q52 0 97.5 -16t79.5 -46.5t54 -73.5t20 -96q0 -56 -19.5 -100t-53.5 -74.5t-79.5 -47t-98.5 -16.5q-56 0 -101 16.5t-77 46.5t-50 73.5t-18 99.5zM238 -358q0 -45 23.5 -70.5t71.5 -25.5q41 0 68 25.5t27 70.5q0 44 -27 69.5 t-68 25.5q-42 0 -68.5 -25.5t-26.5 -69.5z" />
<glyph unicode="&#x384;" horiz-adv-x="1170" d="M466 1229v26q9 30 18 68t17.5 78t15 80t10.5 72h280v-20q-31 -68 -71.5 -145.5t-92.5 -158.5h-177z" />
<glyph unicode="&#x385;" horiz-adv-x="1170" d="M184 1391q0 70 35 102t93 32q56 0 93 -32t37 -102q0 -67 -37 -99.5t-93 -32.5q-58 0 -93 32.5t-35 99.5zM482 1375v26q9 30 18 68t17.5 78t15.5 79.5t11 72.5h259v-20q-31 -67 -79.5 -146t-104.5 -158h-137zM726 1391q0 70 35 102t94 32q57 0 93.5 -32t36.5 -102 q0 -67 -36.5 -99.5t-93.5 -32.5q-59 0 -94 32.5t-35 99.5z" />
<glyph unicode="&#x386;" horiz-adv-x="1317" d="M0 0l470 1453h375l473 -1453h-310l-99 345h-499l-100 -345h-310zM484 602h354l-94 317q-5 18 -17 58.5t-25.5 89.5t-25.5 98.5t-17 83.5q-4 -21 -10 -51t-14.5 -63t-17.5 -66.5t-17 -63.5t-14.5 -52.5t-9.5 -33.5zM-56 1125v26q9 30 18 68t17.5 78t15 80t10.5 72h280v-20 q-31 -68 -71.5 -145.5t-92.5 -158.5h-177z" />
<glyph unicode="&#x387;" horiz-adv-x="578" d="M116 714q0 46 13.5 78t37 52t55 29t68.5 9q35 0 66 -9t55 -29t37.5 -52t13.5 -78q0 -45 -13.5 -76.5t-37.5 -52.5t-55 -30.5t-66 -9.5q-37 0 -68.5 9.5t-55 30.5t-37 52.5t-13.5 76.5z" />
<glyph unicode="&#x388;" horiz-adv-x="1277" d="M324 0v1447h834v-251h-527v-318h490v-251h-490v-374h527v-253h-834zM-58 1125v26q9 30 18 68t17.5 78t15 80t10.5 72h280v-20q-31 -68 -71.5 -145.5t-92.5 -158.5h-177z" />
<glyph unicode="&#x389;" horiz-adv-x="1591" d="M304 0v1447h307v-567h492v567h306v-1447h-306v625h-492v-625h-307zM-58 1125v26q9 30 18 68t17.5 78t15 80t10.5 72h280v-20q-31 -68 -71.5 -145.5t-92.5 -158.5h-177z" />
<glyph unicode="&#x38a;" horiz-adv-x="1038" d="M314 0v174l177 81v937l-177 81v174h659v-174l-177 -81v-937l177 -81v-174h-659zM-58 1125v26q9 30 18 68t17.5 78t15 80t10.5 72h280v-20q-31 -68 -71.5 -145.5t-92.5 -158.5h-177z" />
<glyph unicode="&#x38c;" horiz-adv-x="1613" d="M199 728q0 168 39 305t119 234t202.5 150t289.5 53t288.5 -53t201 -150.5t119 -234.5t39.5 -306q0 -168 -39.5 -305.5t-119.5 -235.5t-202 -151.5t-289 -53.5q-166 0 -288.5 53.5t-202 151.5t-118.5 236t-39 307zM515 726q0 -114 19.5 -204.5t60.5 -153.5t103.5 -96.5 t148.5 -33.5q88 0 151 33.5t103 96.5t59.5 153.5t19.5 204.5t-19.5 204.5t-59.5 153.5t-102.5 97t-149.5 34q-86 0 -149.5 -34t-104.5 -97t-60.5 -153.5t-19.5 -204.5zM-58 1125v26q9 30 18 68t17.5 78t15 80t10.5 72h280v-20q-31 -68 -71.5 -145.5t-92.5 -158.5h-177z" />
<glyph unicode="&#x38e;" horiz-adv-x="1466" d="M282 1447h333l259 -596l261 596h331l-440 -884v-563h-304v553zM-58 1125v26q9 30 18 68t17.5 78t15 80t10.5 72h280v-20q-31 -68 -71.5 -145.5t-92.5 -158.5h-177z" />
<glyph unicode="&#x38f;" horiz-adv-x="1593" d="M143 0v257h368q-72 44 -130 106t-99 139t-63 168t-22 193q0 138 41.5 250t123.5 191.5t203.5 122.5t279.5 43q160 0 280.5 -43t203 -122.5t124 -192t41.5 -251.5q0 -102 -22.5 -192.5t-64 -167t-100 -138t-131.5 -106.5h371v-257h-637v276q76 40 127.5 94.5t82.5 121 t44.5 144.5t13.5 165q0 202 -79.5 308t-253.5 106q-173 0 -252.5 -106t-79.5 -310q0 -87 12.5 -165t43.5 -143.5t81.5 -119.5t125.5 -95v-276h-633zM-58 1125v26q9 30 18 68t17.5 78t15 80t10.5 72h280v-20q-31 -68 -71.5 -145.5t-92.5 -158.5h-177z" />
<glyph unicode="&#x390;" horiz-adv-x="785" d="M158 346v761h302v-761q0 -64 32 -94.5t84 -30.5q45 0 85 10t81 24v-224q-43 -22 -106 -36.5t-137 -14.5q-72 0 -134.5 17t-108 59t-72 113t-26.5 177zM-57 1391q0 70 35 102t93 32q56 0 93 -32t37 -102q0 -67 -37 -99.5t-93 -32.5q-58 0 -93 32.5t-35 99.5zM241 1375v26 q9 30 18 68t17.5 78t15.5 79.5t11 72.5h259v-20q-31 -67 -79.5 -146t-104.5 -158h-137zM485 1391q0 70 35 102t94 32q57 0 93.5 -32t36.5 -102q0 -67 -36.5 -99.5t-93.5 -32.5q-59 0 -94 32.5t-35 99.5z" />
<glyph unicode="&#x391;" horiz-adv-x="1317" d="M0 0l470 1453h375l473 -1453h-310l-99 345h-499l-100 -345h-310zM484 602h354l-94 317q-5 18 -17 58.5t-25.5 89.5t-25.5 98.5t-17 83.5q-4 -21 -10 -51t-14.5 -63t-17.5 -66.5t-17 -63.5t-14.5 -52.5t-9.5 -33.5z" />
<glyph unicode="&#x392;" horiz-adv-x="1301" d="M182 0v1447h424q136 0 239 -19t172.5 -62t104.5 -113t35 -172q0 -61 -14.5 -114.5t-43.5 -94t-70 -68t-94 -36.5v-10q54 -12 101 -34t82 -61t55.5 -98.5t20.5 -144.5q0 -99 -34.5 -177t-99.5 -132t-157.5 -82.5t-209.5 -28.5h-511zM489 253h180q61 0 102 14t66 40 t36 62.5t11 80.5q0 41 -11 74t-37 57t-68.5 37t-106.5 13h-172v-378zM489 874h159q58 0 96.5 10.5t62.5 31.5t34 52t10 72q0 84 -52 120t-164 36h-146v-322z" />
<glyph unicode="&#x393;" horiz-adv-x="1056" d="M182 0v1447h834v-253h-527v-1194h-307z" />
<glyph unicode="&#x394;" horiz-adv-x="1253" d="M56 0v176l398 1277h347l395 -1279v-174h-1140zM369 255h515l-217 769q-3 11 -9.5 36.5t-12.5 54t-11.5 53.5t-6.5 34q-1 -9 -6 -34t-11.5 -53.5t-12.5 -54.5t-9 -38z" />
<glyph unicode="&#x395;" horiz-adv-x="1135" d="M182 0v1447h834v-251h-527v-318h490v-251h-490v-374h527v-253h-834z" />
<glyph unicode="&#x396;" horiz-adv-x="1092" d="M49 0v199l612 995h-594v253h959v-198l-612 -996h630v-253h-995z" />
<glyph unicode="&#x397;" horiz-adv-x="1470" d="M182 0v1447h307v-567h492v567h306v-1447h-306v625h-492v-625h-307z" />
<glyph unicode="&#x398;" horiz-adv-x="1532" d="M118 728q0 168 39 305t119 234t202.5 150t289.5 53t288.5 -53t201 -150.5t119 -234.5t39.5 -306q0 -168 -39.5 -305.5t-119.5 -235.5t-202 -151.5t-289 -53.5q-166 0 -288.5 53.5t-202 151.5t-118.5 236t-39 307zM434 726q0 -114 19.5 -204.5t60.5 -153.5t103.5 -96.5 t148.5 -33.5q88 0 151 33.5t103 96.5t59.5 153.5t19.5 204.5t-19.5 204.5t-59.5 153.5t-102.5 97t-149.5 34q-86 0 -149.5 -34t-104.5 -97t-60.5 -153.5t-19.5 -204.5zM549 610v251h434v-251h-434z" />
<glyph unicode="&#x399;" horiz-adv-x="789" d="M65 0v174l177 81v937l-177 81v174h659v-174l-177 -81v-937l177 -81v-174h-659z" />
<glyph unicode="&#x39a;" horiz-adv-x="1285" d="M182 0v1447h307v-697l121 205l330 492h341l-462 -652l466 -795h-348l-333 602l-115 -85v-517h-307z" />
<glyph unicode="&#x39b;" horiz-adv-x="1236" d="M0 0l450 1447h335l452 -1447h-310l-242 872q-5 18 -14.5 57.5t-19 86.5t-18.5 94t-14 80q-5 -33 -14 -80.5t-18.5 -94.5t-18 -86.5t-13.5 -56.5l-245 -872h-310z" />
<glyph unicode="&#x39c;" horiz-adv-x="1851" d="M182 0v1447h418l313 -1106h6l332 1106h418v-1447h-286v685q0 26 0.5 58.5t1.5 69t2.5 74.5t2.5 73q4 83 7 174h-8l-343 -1134h-282l-318 1136h-8q6 -92 9 -177q2 -36 3.5 -75t3 -76.5t2 -72t0.5 -62.5v-673h-274z" />
<glyph unicode="&#x39d;" horiz-adv-x="1587" d="M182 0v1447h387l569 -1084h5q-3 76 -6 149q-1 32 -2.5 65t-2.5 66t-1.5 64t-0.5 55v685h275v-1447h-389l-570 1095h-8q6 -76 9 -152q4 -64 6.5 -134.5t2.5 -127.5v-681h-274z" />
<glyph unicode="&#x39e;" horiz-adv-x="1076" d="M81 0v253h915v-253h-915zM122 1196v251h833v-251h-833zM203 627v251h671v-251h-671z" />
<glyph unicode="&#x39f;" horiz-adv-x="1532" d="M118 728q0 168 39 305t119 234t202.5 150t289.5 53t288.5 -53t201 -150.5t119 -234.5t39.5 -306q0 -168 -39.5 -305.5t-119.5 -235.5t-202 -151.5t-289 -53.5q-166 0 -288.5 53.5t-202 151.5t-118.5 236t-39 307zM434 726q0 -114 19.5 -204.5t60.5 -153.5t103.5 -96.5 t148.5 -33.5q88 0 151 33.5t103 96.5t59.5 153.5t19.5 204.5t-19.5 204.5t-59.5 153.5t-102.5 97t-149.5 34q-86 0 -149.5 -34t-104.5 -97t-60.5 -153.5t-19.5 -204.5z" />
<glyph unicode="&#x3a0;" horiz-adv-x="1429" d="M182 0v1447h1065v-1447h-307v1192h-451v-1192h-307z" />
<glyph unicode="&#x3a1;" horiz-adv-x="1212" d="M182 0v1447h402q140 0 241.5 -31t167 -89t97.5 -141.5t32 -189.5q0 -95 -29 -182t-94.5 -153.5t-173 -106t-266.5 -39.5h-70v-515h-307zM489 766h60q130 0 196 51.5t66 167.5q0 108 -59 159.5t-185 51.5h-78v-430z" />
<glyph unicode="&#x3a3;" horiz-adv-x="1121" d="M77 0v242l430 516l-418 455v234h905v-251h-386q-18 0 -51 2t-65 4q-38 3 -80 5l414 -447l-437 -518q54 3 102 6q21 0 42.5 1t41.5 2t37 1.5t29 0.5h411v-253h-975z" />
<glyph unicode="&#x3a4;" horiz-adv-x="1112" d="M41 1192v255h1031v-255h-362v-1192h-306v1192h-363z" />
<glyph unicode="&#x3a5;" horiz-adv-x="1184" d="M0 1447h333l259 -596l261 596h331l-440 -884v-563h-304v553z" />
<glyph unicode="&#x3a6;" horiz-adv-x="1662" d="M91 750q0 101 32.5 198t100.5 173t172.5 122.5t247.5 46.5h49v178h276v-178h49q143 0 247.5 -46.5t172.5 -122.5t100.5 -173t32.5 -198q0 -60 -13 -124t-41 -124.5t-73 -115t-110 -95.5t-150.5 -64.5t-194.5 -23.5h-20v-223h-276v223h-20q-109 0 -194.5 23.5t-150 64.5 t-110 95.5t-73.5 115t-41 124.5t-13 124zM379 752q0 -66 19 -123.5t56.5 -99.5t94 -65.5t132.5 -23.5h12v610h-36q-71 0 -123.5 -24t-86.5 -65t-51 -95t-17 -114zM969 440h12q76 0 132.5 23.5t94 65.5t56.5 99.5t19 123.5q0 60 -16.5 114t-50.5 95t-86.5 65t-123.5 24h-37 v-610z" />
<glyph unicode="&#x3a7;" horiz-adv-x="1271" d="M0 0l440 746l-409 701h338l272 -520l265 520h331l-414 -717l448 -730h-350l-296 547l-296 -547h-329z" />
<glyph unicode="&#x3a8;" horiz-adv-x="1694" d="M108 969v478h287v-474q0 -87 19.5 -144t56 -90t90 -46.5t122.5 -13.5h27v768h275v-768h27q61 0 114 12.5t91.5 45t60.5 89t22 143.5v478h288v-474q0 -129 -30 -229t-97 -169.5t-173 -106t-256 -36.5h-47v-432h-275v432h-47q-150 0 -256 35.5t-172.5 104.5t-96.5 169 t-30 228z" />
<glyph unicode="&#x3a9;" horiz-adv-x="1504" d="M54 0v257h368q-72 44 -130 106t-99 139t-63 168t-22 193q0 138 41.5 250t123.5 191.5t203.5 122.5t279.5 43q160 0 280.5 -43t203 -122.5t124 -192t41.5 -251.5q0 -102 -22.5 -192.5t-64 -167t-100 -138t-131.5 -106.5h371v-257h-637v276q76 40 127.5 94.5t82.5 121 t44.5 144.5t13.5 165q0 202 -79.5 308t-253.5 106q-173 0 -252.5 -106t-79.5 -310q0 -87 12.5 -165t43.5 -143.5t81.5 -119.5t125.5 -95v-276h-633z" />
<glyph unicode="&#x3aa;" horiz-adv-x="789" d="M65 0v174l177 81v937l-177 81v174h659v-174l-177 -81v-937l177 -81v-174h-659zM54 1726q0 35 10.5 60t29 41.5t43.5 24.5t54 8t54 -8t44 -24.5t30.5 -41.5t11.5 -60q0 -34 -11.5 -58.5t-30.5 -41t-44 -24.5t-54 -8t-54 8t-43.5 24.5t-29 41t-10.5 58.5zM452 1726 q0 35 11 60t30 41.5t44.5 24.5t55.5 8q28 0 53 -8t44.5 -24.5t31 -41.5t11.5 -60q0 -34 -11.5 -58.5t-31 -41t-44.5 -24.5t-53 -8q-59 0 -100 33t-41 99z" />
<glyph unicode="&#x3ab;" horiz-adv-x="1184" d="M0 1447h333l259 -596l261 596h331l-440 -884v-563h-304v553zM254 1726q0 35 10.5 60t29 41.5t43.5 24.5t54 8t54 -8t44 -24.5t30.5 -41.5t11.5 -60q0 -34 -11.5 -58.5t-30.5 -41t-44 -24.5t-54 -8t-54 8t-43.5 24.5t-29 41t-10.5 58.5zM652 1726q0 35 11 60t30 41.5 t44.5 24.5t55.5 8q28 0 53 -8t44.5 -24.5t31 -41.5t11.5 -60q0 -34 -11.5 -58.5t-31 -41t-44.5 -24.5t-53 -8q-59 0 -100 33t-41 99z" />
<glyph unicode="&#x3ac;" horiz-adv-x="1261" d="M101 549q0 142 29 249.5t84 180t133.5 110t175.5 37.5q54 0 98 -10.5t80 -31.5t64 -52t52 -73h13q9 35 25 76t41 72h249q-11 -33 -23.5 -81.5t-23 -107.5t-17.5 -125t-7 -134v-309q0 -33 7 -56t18.5 -36t26 -18.5t31.5 -5.5q14 0 33 3.5t27 6.5v-238q-8 -4 -24 -9 t-35.5 -8.5t-39.5 -6t-37 -2.5q-51 0 -92 8t-73 27.5t-55.5 51t-41.5 79.5h-18q-21 -34 -49 -64.5t-64.5 -53t-82.5 -35.5t-104 -13q-90 0 -164 36.5t-126.5 108.5t-81 178.5t-28.5 245.5zM410 547q0 -163 45 -244.5t141 -81.5q54 0 91.5 18.5t60 58t33.5 99t12 143.5v11 q0 81 -9.5 143t-32.5 104.5t-61.5 64t-95.5 21.5q-95 0 -139.5 -85.5t-44.5 -251.5zM535 1229v26q9 30 18 68t17.5 78t15 80t10.5 72h280v-20q-31 -68 -71.5 -145.5t-92.5 -158.5h-177z" />
<glyph unicode="&#x3ad;" horiz-adv-x="1064" d="M77 306q0 61 19.5 105.5t54.5 77t85 52t110 31.5v10q-106 25 -158 91t-52 165q0 79 36 134t98 89.5t144.5 50.5t175.5 16q54 0 108 -6t105.5 -17t98.5 -26.5t87 -34.5l-85 -218q-65 29 -139 53.5t-159 24.5q-46 0 -83 -5.5t-62.5 -18t-40 -31.5t-14.5 -48 q0 -65 56.5 -92.5t178.5 -27.5h129v-209h-143q-135 0 -193.5 -36t-58.5 -103q0 -28 13 -50t42 -37.5t75 -24t112 -8.5q56 0 108.5 7.5t100 19t88.5 27t73 31.5v-242q-71 -34 -172.5 -55t-230.5 -21q-134 0 -230 23.5t-157.5 65.5t-90.5 102.5t-29 134.5zM472 1229v26 q9 30 18 68t17.5 78t15 80t10.5 72h280v-20q-31 -68 -71.5 -145.5t-92.5 -158.5h-177z" />
<glyph unicode="&#x3ae;" horiz-adv-x="1271" d="M158 0v1107h231l41 -142h16q24 42 57.5 72.5t73 50.5t84 30t91.5 10q185 0 276 -102.5t91 -313.5v-1199h-302v1128q0 122 -37.5 183.5t-116.5 61.5q-57 0 -96 -23.5t-63 -70.5t-34 -115t-10 -156v-521h-302zM533 1229v26q9 30 18 68t17.5 78t15 80t10.5 72h280v-20 q-31 -68 -71.5 -145.5t-92.5 -158.5h-177z" />
<glyph unicode="&#x3af;" horiz-adv-x="785" d="M158 346v761h302v-761q0 -64 32 -94.5t84 -30.5q45 0 85 10t81 24v-224q-43 -22 -106 -36.5t-137 -14.5q-72 0 -134.5 17t-108 59t-72 113t-26.5 177zM204 1229v26q9 30 18 68t17.5 78t15 80t10.5 72h280v-20q-31 -68 -71.5 -145.5t-92.5 -158.5h-177z" />
<glyph unicode="&#x3b0;" horiz-adv-x="1257" d="M142 505v602h303v-612q0 -145 45.5 -208.5t142.5 -63.5q50 0 88.5 20.5t64.5 66t39 119.5t13 179q0 65 -5 126.5t-14.5 122t-23 122t-29.5 128.5h304q17 -67 30 -127.5t22 -121.5t13 -124t4 -134q0 -159 -33 -276t-98.5 -193t-162 -112.5t-222.5 -36.5q-141 0 -234 40 t-148 111t-77 166.5t-22 205.5zM221 1391q0 70 35 102t93 32q56 0 93 -32t37 -102q0 -67 -37 -99.5t-93 -32.5q-58 0 -93 32.5t-35 99.5zM519 1375v26q9 30 18 68t17.5 78t15.5 79.5t11 72.5h259v-20q-31 -67 -79.5 -146t-104.5 -158h-137zM763 1391q0 70 35 102t94 32 q57 0 93.5 -32t36.5 -102q0 -67 -36.5 -99.5t-93.5 -32.5q-59 0 -94 32.5t-35 99.5z" />
<glyph unicode="&#x3b1;" horiz-adv-x="1261" d="M101 549q0 142 29 249.5t84 180t133.5 110t175.5 37.5q54 0 98 -10.5t80 -31.5t64 -52t52 -73h13q9 35 25 76t41 72h249q-11 -33 -23.5 -81.5t-23 -107.5t-17.5 -125t-7 -134v-309q0 -33 7 -56t18.5 -36t26 -18.5t31.5 -5.5q14 0 33 3.5t27 6.5v-238q-8 -4 -24 -9 t-35.5 -8.5t-39.5 -6t-37 -2.5q-51 0 -92 8t-73 27.5t-55.5 51t-41.5 79.5h-18q-21 -34 -49 -64.5t-64.5 -53t-82.5 -35.5t-104 -13q-90 0 -164 36.5t-126.5 108.5t-81 178.5t-28.5 245.5zM410 547q0 -163 45 -244.5t141 -81.5q54 0 91.5 18.5t60 58t33.5 99t12 143.5v11 q0 81 -9.5 143t-32.5 104.5t-61.5 64t-95.5 21.5q-95 0 -139.5 -85.5t-44.5 -251.5z" />
<glyph unicode="&#x3b2;" horiz-adv-x="1277" d="M158 -487v1572q0 122 38.5 210t105 145t157.5 84t198 27q102 0 188.5 -24t149 -72.5t98 -122t35.5 -170.5q0 -147 -76 -233t-214 -108v-6q86 -10 154 -38t115.5 -74.5t73.5 -114.5t26 -160q0 -107 -32 -190.5t-90.5 -140t-141.5 -87t-185 -30.5q-90 0 -165.5 16 t-132.5 47v-530h-302zM460 290q22 -16 49.5 -29t56 -21.5t56.5 -13.5t53 -5q111 0 165 61.5t54 171.5q0 63 -20.5 105.5t-55.5 68.5t-81.5 37.5t-99.5 11.5h-72v240h54q53 0 91.5 15t64.5 42.5t38.5 66t12.5 85.5q0 96 -48.5 143t-129.5 47q-38 0 -72 -12t-60 -41t-41 -79 t-15 -128v-766z" />
<glyph unicode="&#x3b3;" horiz-adv-x="1090" d="M2 1107h314l144 -488q12 -41 26 -94.5t26.5 -107t22 -99.5t12.5 -72h6q2 31 9 72t18 88t24.5 97.5t28.5 100.5l143 503h315l-385 -1089q-22 -62 -39.5 -129t-28.5 -133.5t-17 -129t-6 -113.5h-321q0 41 7.5 101t21 128t31.5 138t39 132z" />
<glyph unicode="&#x3b4;" horiz-adv-x="1214" d="M101 434q0 105 27.5 183.5t75.5 135.5t114 94.5t142 61.5q-40 30 -77 65t-65.5 77t-45.5 91t-17 105q0 74 30.5 131t85.5 95.5t132 58t172 19.5q65 0 120.5 -8t106.5 -21.5t99.5 -34t99.5 -46.5l-107 -212q-83 44 -160 71.5t-155 27.5q-36 0 -61 -8t-41 -22t-23 -32 t-7 -37q0 -27 15.5 -53t47 -53t78 -56.5t107.5 -64.5q164 -93 241 -215t77 -280q0 -137 -36.5 -236t-103 -163.5t-161 -96t-210.5 -31.5q-109 0 -200.5 30.5t-158.5 88t-104.5 142t-37.5 193.5zM412 446q0 -47 13 -88t37.5 -71.5t60 -47t81.5 -16.5q96 0 148.5 67t52.5 197 q0 53 -12.5 97t-35 80.5t-54.5 66t-70 54.5q-36 -12 -75 -36t-71.5 -64.5t-53.5 -99t-21 -139.5z" />
<glyph unicode="&#x3b5;" horiz-adv-x="1064" d="M77 306q0 61 19.5 105.5t54.5 77t85 52t110 31.5v10q-106 25 -158 91t-52 165q0 79 36 134t98 89.5t144.5 50.5t175.5 16q54 0 108 -6t105.5 -17t98.5 -26.5t87 -34.5l-85 -218q-65 29 -139 53.5t-159 24.5q-46 0 -83 -5.5t-62.5 -18t-40 -31.5t-14.5 -48 q0 -65 56.5 -92.5t178.5 -27.5h129v-209h-143q-135 0 -193.5 -36t-58.5 -103q0 -28 13 -50t42 -37.5t75 -24t112 -8.5q56 0 108.5 7.5t100 19t88.5 27t73 31.5v-242q-71 -34 -172.5 -55t-230.5 -21q-134 0 -230 23.5t-157.5 65.5t-90.5 102.5t-29 134.5z" />
<glyph unicode="&#x3b6;" horiz-adv-x="959" d="M101 462q0 130 40.5 248t110 226t160.5 207.5t192 192.5q-16 -4 -41.5 -7t-53.5 -5t-54 -3t-43 -1h-254v220h784v-180q-119 -111 -205.5 -207t-145 -179.5t-94.5 -155.5t-54.5 -133t-24.5 -113t-6 -96q0 -73 17 -117.5t50 -71t79 -40t103 -26.5q81 -18 136 -44t89 -58 t48 -71t14 -85q0 -44 -11.5 -89t-30.5 -89t-43 -85t-50 -75h-304q29 38 55.5 79.5t47 80t32 72.5t11.5 60q0 13 -5.5 24.5t-22.5 23t-49 22t-83 21.5q-92 18 -165.5 53.5t-124 91.5t-77.5 132.5t-27 176.5z" />
<glyph unicode="&#x3b7;" horiz-adv-x="1271" d="M158 0v1107h231l41 -142h16q24 42 57.5 72.5t73 50.5t84 30t91.5 10q185 0 276 -102.5t91 -313.5v-1199h-302v1128q0 122 -37.5 183.5t-116.5 61.5q-57 0 -96 -23.5t-63 -70.5t-34 -115t-10 -156v-521h-302z" />
<glyph unicode="&#x3b8;" horiz-adv-x="1212" d="M101 772q0 186 27.5 333t88 249t156 155.5t231.5 53.5q128 0 223 -53t158 -154.5t94.5 -248.5t31.5 -335q0 -186 -28 -333t-88.5 -249t-157 -156t-233.5 -54q-128 0 -222.5 54t-157 156t-93 249t-30.5 333zM410 665q3 -232 47.5 -349t146.5 -117q101 0 146.5 115.5 t50.5 350.5h-391zM412 890h389q-6 228 -51.5 341t-143.5 113q-99 0 -143.5 -113t-50.5 -341z" />
<glyph unicode="&#x3b9;" horiz-adv-x="785" d="M158 346v761h302v-761q0 -64 32 -94.5t84 -30.5q45 0 85 10t81 24v-224q-43 -22 -106 -36.5t-137 -14.5q-72 0 -134.5 17t-108 59t-72 113t-26.5 177z" />
<glyph unicode="&#x3ba;" horiz-adv-x="1195" d="M158 0v1107h302v-290q0 -40 -2.5 -85t-5.5 -84q-4 -45 -7 -89h3l126 193l273 355h323l-400 -492l426 -615h-341l-277 414l-118 -81v-333h-302z" />
<glyph unicode="&#x3bb;" horiz-adv-x="1186" d="M8 0l438 1046l-32 92q-19 52 -39.5 83.5t-44 49t-52.5 23.5t-65 6q-26 0 -50.5 -4t-42.5 -9v249q13 3 32 6.5t41 5.5t43.5 3.5t39.5 1.5q91 0 156.5 -23.5t113.5 -69t82 -111.5t63 -151l262 -764q21 -64 41 -103t39 -61t38 -29t40 -7q14 0 31 2.5t34 7.5v-234 q-12 -6 -32 -11.5t-44 -9.5t-48 -6.5t-42 -2.5q-59 0 -102.5 16t-75.5 45.5t-55.5 71t-40.5 92.5l-92 269q-22 66 -40.5 124.5t-27.5 109.5h-7q-7 -27 -15 -56.5t-16 -59.5t-17 -58.5t-18 -53.5l-182 -480h-313z" />
<glyph unicode="&#x3bc;" horiz-adv-x="1277" d="M158 -487v1594h302v-647q0 -119 37.5 -179t117.5 -60q57 0 95.5 23.5t62.5 70t34 115t10 156.5v521h302v-1107h-231l-43 148h-11q-35 -84 -87 -126t-126 -42q-54 0 -98.5 23t-72.5 66q2 -41 5 -84q2 -36 3.5 -78t1.5 -77v-317h-302z" />
<glyph unicode="&#x3bd;" horiz-adv-x="1145" d="M6 1107h310l189 -614q7 -23 15.5 -53.5t16 -62t15.5 -60.5t13 -50h9q51 77 87 163.5t58.5 188.5t32.5 222.5t10 265.5h304q0 -165 -18 -310.5t-64 -280t-124 -261.5t-197 -255h-272z" />
<glyph unicode="&#x3be;" horiz-adv-x="959" d="M101 434q0 67 20.5 123.5t57.5 102.5t88.5 81t113.5 60v10q-104 25 -160.5 87t-56.5 164q0 55 17 97t51.5 74.5t89 57t128.5 42.5q-63 -3 -117 -6q-23 -1 -46.5 -2.5t-44 -2.5t-37 -1.5t-25.5 -0.5h-22v220h736v-207h-64q-73 0 -139 -16t-116.5 -47.5t-80.5 -78.5 t-30 -110q0 -42 11 -75t38.5 -55t73 -33.5t113.5 -11.5h142v-208h-147q-150 0 -216.5 -61t-66.5 -183q0 -65 17 -104.5t50 -64t79 -38t103 -26.5q81 -18 136 -44t89 -58t48 -71t14 -85q0 -44 -11.5 -89t-30.5 -89t-43 -85t-50 -75h-304q29 38 55.5 79.5t47 80t32 72.5 t11.5 60q0 13 -5.5 24.5t-22.5 23t-49 22t-83 21.5q-92 18 -165.5 52.5t-124 87.5t-77.5 124t-27 162z" />
<glyph unicode="&#x3bf;" horiz-adv-x="1214" d="M101 555q0 138 35 245t101 179.5t160 110.5t213 38q110 0 202 -38t159 -110.5t104.5 -179.5t37.5 -245t-35.5 -245t-101 -180.5t-160 -111.5t-212.5 -38q-110 0 -202 38t-159 111.5t-104.5 180.5t-37.5 245zM410 555q0 -165 46.5 -248.5t151.5 -83.5q104 0 150.5 84 t46.5 248q0 166 -46.5 247.5t-152.5 81.5q-104 0 -150 -81.5t-46 -247.5z" />
<glyph unicode="&#x3c0;" horiz-adv-x="1437" d="M25 876v130l176 101h1165v-231h-232v-560q0 -51 26.5 -75t66.5 -24q34 0 66.5 9.5t60.5 24.5v-216q-18 -11 -42 -21t-53 -17.5t-60.5 -12t-62.5 -4.5q-71 0 -127.5 19t-95.5 58t-60 100.5t-21 146.5v572h-275v-876h-302v876h-230z" />
<glyph unicode="&#x3c1;" horiz-adv-x="1201" d="M120 -487v1042q0 137 35 243.5t100 179.5t156.5 111.5t205.5 38.5q105 0 193.5 -38.5t153.5 -112t101 -180.5t36 -244t-29.5 -244t-84 -180t-133 -111t-175.5 -38q-71 0 -138 21.5t-117 54.5h-16q4 -42 8 -88q3 -38 5.5 -85t2.5 -92v-278h-304zM424 308q36 -43 85 -64 t101 -21q47 0 82 18.5t56.5 59t32 102.5t10.5 150q0 89 -10.5 151.5t-32 102.5t-56.5 58.5t-82 18.5q-48 0 -82.5 -18t-58 -56t-34.5 -97.5t-11 -143.5v-261z" />
<glyph unicode="&#x3c2;" horiz-adv-x="959" d="M101 489q0 182 37 305t105 197t163.5 105.5t212.5 31.5q85 0 169 -21t158 -59l-87 -229q-65 28 -125.5 46.5t-114.5 18.5q-110 0 -159.5 -97t-49.5 -290q0 -68 18 -111t50.5 -69.5t79 -42t103.5 -28.5q81 -19 136 -46t89 -60.5t48 -74t14 -88.5q0 -45 -11.5 -92 t-30.5 -92.5t-43 -88.5t-50 -79h-304q29 41 55.5 84t47 84.5t32 77t11.5 62.5q0 14 -5.5 26.5t-22.5 24.5t-49 23.5t-83 23.5q-92 19 -165.5 57t-124 95t-77.5 133t-27 173z" />
<glyph unicode="&#x3c3;" horiz-adv-x="1273" d="M101 540q0 152 41 260t118 176.5t186 100.5t247 32h540v-221h-282q37 -39 69 -83t56.5 -95.5t39 -110.5t14.5 -129q0 -104 -34 -193.5t-99 -155.5t-161.5 -103.5t-223.5 -37.5q-115 0 -209 35.5t-161.5 106.5t-104 175.5t-36.5 242.5zM412 540q0 -72 12 -130.5t36.5 -100 t63 -64t93.5 -22.5q53 0 91 21t62.5 60t36.5 92.5t12 120.5q0 122 -28.5 209.5t-80.5 161.5h-43q-66 0 -114.5 -18t-79.5 -58.5t-46 -107t-15 -164.5z" />
<glyph unicode="&#x3c4;" horiz-adv-x="1050" d="M41 880v126l166 101h766v-227h-352v-534q0 -64 31.5 -94.5t83.5 -30.5q44 0 84 10t82 24v-224q-43 -22 -105.5 -36.5t-137.5 -14.5q-72 0 -134.5 17t-108 59t-71.5 113t-26 177v534h-278z" />
<glyph unicode="&#x3c5;" horiz-adv-x="1257" d="M142 505v602h303v-612q0 -145 45.5 -208.5t142.5 -63.5q50 0 88.5 20.5t64.5 66t39 119.5t13 179q0 65 -5 126.5t-14.5 122t-23 122t-29.5 128.5h304q17 -67 30 -127.5t22 -121.5t13 -124t4 -134q0 -159 -33 -276t-98.5 -193t-162 -112.5t-222.5 -36.5q-141 0 -234 40 t-148 111t-77 166.5t-22 205.5z" />
<glyph unicode="&#x3c6;" horiz-adv-x="1565" d="M101 549q0 87 16.5 165.5t46.5 150.5t72 138t93 129l218 -143q-38 -52 -68.5 -103t-51 -105t-31.5 -112t-11 -125q0 -79 18.5 -136t50.5 -96t75 -61.5t94 -33.5v511q0 97 28.5 171t79 124t120.5 75.5t153 25.5q106 0 191 -37.5t145 -107t92 -169t32 -224.5 q0 -142 -46 -249t-123.5 -181t-179.5 -115.5t-213 -52.5v-475h-279v475q-111 13 -206.5 50.5t-165.5 105.5t-110 168t-40 237zM902 217q62 6 112.5 35.5t86 78t54.5 113t19 140.5q0 65 -8.5 123t-27.5 102t-51 69.5t-77 25.5q-51 0 -79.5 -39t-28.5 -135v-513z" />
<glyph unicode="&#x3c7;" horiz-adv-x="1139" d="M-49 -487l467 876l-122 349q-13 38 -28.5 63.5t-32.5 40t-36.5 20.5t-40.5 6q-18 0 -46.5 -4t-59.5 -15v242q42 12 83 21.5t92 9.5q68 0 116 -16.5t82 -51t59.5 -88.5t49.5 -128l68 -219l245 488h304l-419 -755l181 -470q13 -33 27 -55.5t32 -36t39.5 -19t46.5 -5.5 q20 0 41.5 2.5t51.5 10.5v-235q-20 -8 -39.5 -13.5t-41.5 -9.5t-46 -6t-55 -2q-63 0 -112.5 18.5t-87 54.5t-66 90.5t-51.5 126.5l-99 323l-280 -613h-322z" />
<glyph unicode="&#x3c8;" horiz-adv-x="1646" d="M142 549v558h288v-565q0 -87 13 -146.5t43.5 -98.5t79.5 -58.5t121 -25.5v1325h280v-1323q73 8 126.5 29t89 62t52 106t16.5 160q0 134 -22 264t-57 271h279q41 -143 59.5 -273t18.5 -265q0 -155 -44 -264t-119.5 -178.5t-178 -103.5t-220.5 -41v-469h-280v469 q-119 4 -219.5 36t-172.5 99.5t-112.5 173.5t-40.5 258z" />
<glyph unicode="&#x3c9;" horiz-adv-x="1708" d="M118 538q0 81 6.5 152.5t20 140t34.5 136.5t50 140h290q-65 -135 -94.5 -271.5t-29.5 -288.5q0 -74 10.5 -135t31.5 -105t55 -68t80 -24q42 0 69.5 16.5t44 48t23.5 77.5t7 105v292h278v-292q0 -59 7 -105t23 -77.5t44 -48t70 -16.5q46 0 79 24t55 67.5t32 104t10 133.5 q0 150 -30 289t-94 274h290q29 -72 50 -140t35 -136.5t20.5 -140t6.5 -152.5q0 -123 -27.5 -225.5t-80.5 -176.5t-133.5 -115t-186.5 -41q-62 0 -110.5 14.5t-85.5 41.5t-63.5 66t-45.5 86h-10q-17 -47 -44 -86t-63.5 -66t-85 -41.5t-111.5 -14.5q-106 0 -186.5 41t-134 115 t-80 176.5t-26.5 225.5z" />
<glyph unicode="&#x3ca;" horiz-adv-x="785" d="M158 346v761h302v-761q0 -64 32 -94.5t84 -30.5q45 0 85 10t81 24v-224q-43 -22 -106 -36.5t-137 -14.5q-72 0 -134.5 17t-108 59t-72 113t-26.5 177zM3 1391q0 35 10.5 60t29 41.5t43.5 24.5t54 8t54 -8t44 -24.5t30.5 -41.5t11.5 -60q0 -34 -11.5 -58.5t-30.5 -41 t-44 -24.5t-54 -8t-54 8t-43.5 24.5t-29 41t-10.5 58.5zM401 1391q0 35 11 60t30 41.5t44.5 24.5t55.5 8q28 0 53 -8t44.5 -24.5t31 -41.5t11.5 -60q0 -34 -11.5 -58.5t-31 -41t-44.5 -24.5t-53 -8q-59 0 -100 33t-41 99z" />
<glyph unicode="&#x3cb;" horiz-adv-x="1257" d="M142 505v602h303v-612q0 -145 45.5 -208.5t142.5 -63.5q50 0 88.5 20.5t64.5 66t39 119.5t13 179q0 65 -5 126.5t-14.5 122t-23 122t-29.5 128.5h304q17 -67 30 -127.5t22 -121.5t13 -124t4 -134q0 -159 -33 -276t-98.5 -193t-162 -112.5t-222.5 -36.5q-141 0 -234 40 t-148 111t-77 166.5t-22 205.5zM291 1391q0 35 10.5 60t29 41.5t43.5 24.5t54 8t54 -8t44 -24.5t30.5 -41.5t11.5 -60q0 -34 -11.5 -58.5t-30.5 -41t-44 -24.5t-54 -8t-54 8t-43.5 24.5t-29 41t-10.5 58.5zM689 1391q0 35 11 60t30 41.5t44.5 24.5t55.5 8q28 0 53 -8 t44.5 -24.5t31 -41.5t11.5 -60q0 -34 -11.5 -58.5t-31 -41t-44.5 -24.5t-53 -8q-59 0 -100 33t-41 99z" />
<glyph unicode="&#x3cc;" horiz-adv-x="1214" d="M101 555q0 138 35 245t101 179.5t160 110.5t213 38q110 0 202 -38t159 -110.5t104.5 -179.5t37.5 -245t-35.5 -245t-101 -180.5t-160 -111.5t-212.5 -38q-110 0 -202 38t-159 111.5t-104.5 180.5t-37.5 245zM410 555q0 -165 46.5 -248.5t151.5 -83.5q104 0 150.5 84 t46.5 248q0 166 -46.5 247.5t-152.5 81.5q-104 0 -150 -81.5t-46 -247.5zM501 1229v26q9 30 18 68t17.5 78t15 80t10.5 72h280v-20q-31 -68 -71.5 -145.5t-92.5 -158.5h-177z" />
<glyph unicode="&#x3cd;" horiz-adv-x="1257" d="M142 505v602h303v-612q0 -145 45.5 -208.5t142.5 -63.5q50 0 88.5 20.5t64.5 66t39 119.5t13 179q0 65 -5 126.5t-14.5 122t-23 122t-29.5 128.5h304q17 -67 30 -127.5t22 -121.5t13 -124t4 -134q0 -159 -33 -276t-98.5 -193t-162 -112.5t-222.5 -36.5q-141 0 -234 40 t-148 111t-77 166.5t-22 205.5zM516 1229v26q9 30 18 68t17.5 78t15 80t10.5 72h280v-20q-31 -68 -71.5 -145.5t-92.5 -158.5h-177z" />
<glyph unicode="&#x3ce;" horiz-adv-x="1708" d="M118 538q0 81 6.5 152.5t20 140t34.5 136.5t50 140h290q-65 -135 -94.5 -271.5t-29.5 -288.5q0 -74 10.5 -135t31.5 -105t55 -68t80 -24q42 0 69.5 16.5t44 48t23.5 77.5t7 105v292h278v-292q0 -59 7 -105t23 -77.5t44 -48t70 -16.5q46 0 79 24t55 67.5t32 104t10 133.5 q0 150 -30 289t-94 274h290q29 -72 50 -140t35 -136.5t20.5 -140t6.5 -152.5q0 -123 -27.5 -225.5t-80.5 -176.5t-133.5 -115t-186.5 -41q-62 0 -110.5 14.5t-85.5 41.5t-63.5 66t-45.5 86h-10q-17 -47 -44 -86t-63.5 -66t-85 -41.5t-111.5 -14.5q-106 0 -186.5 41t-134 115 t-80 176.5t-26.5 225.5zM760 1229v26q9 30 18 68t17.5 78t15 80t10.5 72h280v-20q-31 -68 -71.5 -145.5t-92.5 -158.5h-177z" />
<glyph unicode="&#x3d1;" horiz-adv-x="1423" d="M41 728q58 33 132.5 59t165.5 26q89 0 140 -46.5t51 -133.5q0 -63 -7.5 -129t-7.5 -137q0 -31 9 -59t28.5 -48.5t51 -32.5t75.5 -12q125 0 188.5 114t63.5 358v13v18q0 9 -0.5 17.5t-1.5 14.5q-174 2 -294 46t-195 112t-108.5 153.5t-33.5 173.5q0 71 23.5 131.5 t72 103.5t122 67t173.5 24q126 0 218 -43t155.5 -120t101 -183.5t55.5 -233.5h143v-227h-127q1 -7 1.5 -18.5t0.5 -23.5v-26v-19q0 -92 -13 -178.5t-42 -163t-75 -139.5t-112 -109t-153.5 -71.5t-198.5 -25.5q-126 0 -205 28t-123.5 74t-60.5 105t-16 121q0 52 5.5 104 t5.5 95q0 41 -13 55t-39 14q-22 0 -46 -10t-39 -19zM594 1223q0 -45 17 -88t55.5 -76.5t101 -55t153.5 -22.5q-9 84 -29.5 150t-48.5 111.5t-64.5 69t-76.5 23.5q-50 0 -79 -28t-29 -84z" />
<glyph unicode="&#x3d2;" horiz-adv-x="1197" d="M0 1447h333l257 -604q23 66 47 131t49 124.5t50 113t51 96.5q23 37 48 66t56 48t69 28.5t86 9.5q43 0 77.5 -6.5t68.5 -19.5v-227q-11 3 -29.5 7.5t-38.5 4.5q-15 0 -29 -4t-28 -14.5t-28.5 -28.5t-32.5 -44q-21 -32 -53 -93t-69 -139t-73 -167.5t-65 -179.5v-549h-304 v553z" />
<glyph unicode="&#x3d6;" horiz-adv-x="1965" d="M50 880v126l167 101h1697v-227h-256q28 -92 46 -189.5t18 -193.5q0 -123 -27.5 -219t-81 -162t-133.5 -101t-186 -35q-62 0 -110.5 14.5t-86 41.5t-63.5 66t-45 86h-10q-18 -47 -44.5 -86t-63 -66t-85 -41.5t-111.5 -14.5q-107 0 -187 35t-133.5 101t-80 162t-26.5 219 q0 96 17 193.5t45 189.5h-260zM525 507q0 -149 42 -220.5t135 -71.5q41 0 69 16.5t44.5 48t23 77.5t6.5 105v136h279v-136q0 -59 7 -105t23 -77.5t44 -48t69 -16.5q93 0 134.5 71t41.5 217q0 90 -15 186t-43 191h-803q-28 -93 -42.5 -187t-14.5 -186z" />
<glyph unicode="&#x401;" horiz-adv-x="1135" d="M182 0v1447h834v-251h-527v-318h490v-251h-490v-374h527v-253h-834zM271 1726q0 35 10.5 60t29 41.5t43.5 24.5t54 8t54 -8t44 -24.5t30.5 -41.5t11.5 -60q0 -34 -11.5 -58.5t-30.5 -41t-44 -24.5t-54 -8t-54 8t-43.5 24.5t-29 41t-10.5 58.5zM669 1726q0 35 11 60 t30 41.5t44.5 24.5t55.5 8q28 0 53 -8t44.5 -24.5t31 -41.5t11.5 -60q0 -34 -11.5 -58.5t-31 -41t-44.5 -24.5t-53 -8q-59 0 -100 33t-41 99z" />
<glyph unicode="&#x402;" horiz-adv-x="1551" d="M41 1192v255h1021v-255h-352v-269h300q103 0 183 -26.5t136 -77t85 -123t29 -164.5v-128q0 -207 -101.5 -314.5t-301.5 -107.5q-52 0 -103.5 9t-96.5 29v253q45 -20 89 -31t81 -11q25 0 48 4t41 19.5t28.5 46t10.5 82.5v126q0 88 -35 123t-114 35h-279v-667h-306v1192 h-363z" />
<glyph unicode="&#x403;" horiz-adv-x="1056" d="M182 0v1447h834v-253h-527v-1194h-307zM420 1564v26q20 29 44 66.5t47.5 77.5t44 80.5t36.5 73.5h339v-20q-11 -18 -32 -42.5t-47.5 -52t-57.5 -57t-62 -57t-60 -52.5t-51 -43h-201z" />
<glyph unicode="&#x404;" horiz-adv-x="1291" d="M118 722q0 164 44.5 301t130.5 236t213 154t291 55q108 0 216.5 -27t207.5 -75l-99 -249q-82 38 -164 67t-161 29q-74 0 -135.5 -24.5t-107.5 -70t-75 -112t-37 -151.5h545v-251h-547q10 -177 100.5 -272.5t256.5 -95.5q88 0 176.5 19.5t192.5 56.5v-258 q-47 -19 -93.5 -33t-95 -23t-99.5 -13.5t-110 -4.5q-167 0 -290 53.5t-203 150.5t-118.5 233.5t-38.5 304.5z" />
<glyph unicode="&#x405;" horiz-adv-x="1062" d="M93 67v285q48 -22 96.5 -43.5t98.5 -38.5t100 -26.5t99 -9.5q51 0 87 11t58 31.5t32.5 48.5t10.5 62q0 41 -17 72t-48.5 58t-75.5 53t-98 55q-46 23 -102.5 57t-106.5 84t-83.5 120.5t-33.5 169.5q0 97 32 174t91.5 130t144 80.5t189.5 27.5q53 0 103 -7t99 -19.5 t98.5 -31.5t101.5 -44l-99 -238q-44 20 -83 36t-75.5 27t-71.5 16.5t-71 5.5q-77 0 -118 -41t-41 -110q0 -36 12.5 -64.5t39.5 -53t70 -50.5t105 -58q74 -40 136.5 -81t107.5 -91t69.5 -113.5t24.5 -148.5q0 -97 -33 -175t-97 -132.5t-156.5 -84.5t-212.5 -30 q-105 0 -202.5 22t-180.5 65z" />
<glyph unicode="&#x406;" horiz-adv-x="789" d="M65 0v174l177 81v937l-177 81v174h659v-174l-177 -81v-937l177 -81v-174h-659z" />
<glyph unicode="&#x407;" horiz-adv-x="789" d="M65 0v174l177 81v937l-177 81v174h659v-174l-177 -81v-937l177 -81v-174h-659zM54 1726q0 35 10.5 60t29 41.5t43.5 24.5t54 8t54 -8t44 -24.5t30.5 -41.5t11.5 -60q0 -34 -11.5 -58.5t-30.5 -41t-44 -24.5t-54 -8t-54 8t-43.5 24.5t-29 41t-10.5 58.5zM452 1726 q0 35 11 60t30 41.5t44.5 24.5t55.5 8q28 0 53 -8t44.5 -24.5t31 -41.5t11.5 -60q0 -34 -11.5 -58.5t-31 -41t-44.5 -24.5t-53 -8q-59 0 -100 33t-41 99z" />
<glyph unicode="&#x408;" horiz-adv-x="671" d="M-197 -148q37 -8 77 -14t87 -6q46 0 85 10t68 34t45.5 64.5t16.5 102.5v1404h307v-1395q0 -124 -36 -214t-101 -149t-155 -87t-199 -28q-64 0 -112.5 6.5t-82.5 15.5v256z" />
<glyph unicode="&#x409;" horiz-adv-x="1944" d="M16 2v251q26 -8 51.5 -13.5t56.5 -5.5q29 0 51 13.5t40 47.5t32.5 90.5t30.5 141.5q9 49 24.5 140t33.5 212.5t38.5 266.5t39.5 301h807v-555h107q135 0 234 -32.5t164 -91t96 -139.5t31 -177q0 -106 -32 -190.5t-100 -142.5t-172 -88.5t-247 -30.5h-387v1192h-248 q-12 -93 -25.5 -204t-28.5 -221.5t-31.5 -212t-32.5 -177.5q-19 -95 -48 -168.5t-73.5 -124.5t-109.5 -77.5t-156 -26.5q-41 0 -77.5 5.5t-68.5 16.5zM1221 251h83q55 0 99 10.5t75.5 34.5t48 62.5t16.5 93.5q0 58 -18 94.5t-52 57.5t-82 29t-108 8h-62v-390z" />
<glyph unicode="&#x40a;" horiz-adv-x="1950" d="M182 0v1447h307v-567h432v567h306v-555h108q135 0 233.5 -32.5t163.5 -91t96 -139.5t31 -177q0 -106 -32 -190.5t-100 -142.5t-172 -88.5t-247 -30.5h-387v625h-432v-625h-307zM1227 251h83q55 0 99.5 10.5t76 34.5t47.5 62.5t16 93.5q0 58 -18 94.5t-52 57.5t-82 29 t-107 8h-63v-390z" />
<glyph unicode="&#x40b;" horiz-adv-x="1551" d="M41 1192v255h1021v-255h-352v-269h300q103 0 183 -26.5t136 -77t85 -123t29 -164.5v-532h-305v509q0 88 -35 123t-114 35h-279v-667h-306v1192h-363z" />
<glyph unicode="&#x40c;" horiz-adv-x="1281" d="M182 0v1447h307v-701l438 701h326l-446 -695l474 -752h-348l-444 734v-734h-307zM493 1564v26q20 29 44 66.5t47.5 77.5t44 80.5t36.5 73.5h339v-20q-11 -18 -32 -42.5t-47.5 -52t-57.5 -57t-62 -57t-60 -52.5t-51 -43h-201z" />
<glyph unicode="&#x40e;" horiz-adv-x="1242" d="M0 1447h325l273 -624q7 -15 16 -36.5t17 -42.5t14 -39t7 -26h11q2 9 6 27.5t10 39t12.5 41t12.5 34.5l223 626h315l-419 -1023q-43 -104 -87.5 -187t-105.5 -139.5t-144 -87t-202 -30.5q-50 0 -108 7.5t-109 22.5v263q49 -20 107 -27.5t110 -7.5q51 0 86 12.5t59.5 36 t41.5 54.5t30 67zM138 1918h270q5 -56 18.5 -92t38 -56t62.5 -28t90 -8q44 0 80 9t62.5 30.5t43.5 57t23 87.5h273q-8 -79 -36 -144.5t-85 -112t-146.5 -72t-220.5 -25.5q-134 0 -223 24.5t-142.5 70.5t-77.5 111.5t-30 147.5z" />
<glyph unicode="&#x40f;" horiz-adv-x="1429" d="M182 0v1447h307v-1192h451v1192h307v-1447h-384v-422h-296v422h-385z" />
<glyph unicode="&#x410;" horiz-adv-x="1317" d="M0 0l470 1453h375l473 -1453h-310l-99 345h-499l-100 -345h-310zM484 602h354l-94 317q-5 18 -17 58.5t-25.5 89.5t-25.5 98.5t-17 83.5q-4 -21 -10 -51t-14.5 -63t-17.5 -66.5t-17 -63.5t-14.5 -52.5t-9.5 -33.5z" />
<glyph unicode="&#x411;" horiz-adv-x="1212" d="M182 0v1447h834v-253h-527v-302h107q136 0 235 -32.5t163.5 -91t96 -139.5t31.5 -177q0 -106 -32.5 -190.5t-100 -142.5t-171.5 -88.5t-249 -30.5h-387zM489 251h83q56 0 100 10.5t75 34.5t47.5 62.5t16.5 93.5q0 58 -18 94.5t-51.5 57.5t-81.5 29t-109 8h-62v-390z" />
<glyph unicode="&#x412;" horiz-adv-x="1301" d="M182 0v1447h424q136 0 239 -19t172.5 -62t104.5 -113t35 -172q0 -61 -14.5 -114.5t-43.5 -94t-70 -68t-94 -36.5v-10q54 -12 101 -34t82 -61t55.5 -98.5t20.5 -144.5q0 -99 -34.5 -177t-99.5 -132t-157.5 -82.5t-209.5 -28.5h-511zM489 253h180q61 0 102 14t66 40 t36 62.5t11 80.5q0 41 -11 74t-37 57t-68.5 37t-106.5 13h-172v-378zM489 874h159q58 0 96.5 10.5t62.5 31.5t34 52t10 72q0 84 -52 120t-164 36h-146v-322z" />
<glyph unicode="&#x413;" horiz-adv-x="1056" d="M182 0v1447h834v-253h-527v-1194h-307z" />
<glyph unicode="&#x414;" horiz-adv-x="1468" d="M10 255h112q56 113 109 238.5t98 270.5t81.5 314t61.5 369h763v-1192h193v-677h-296v422h-826v-422h-296v677zM445 255h484v937h-213q-15 -105 -41 -224.5t-61 -241.5t-78 -242.5t-91 -228.5z" />
<glyph unicode="&#x415;" horiz-adv-x="1135" d="M182 0v1447h834v-251h-527v-318h490v-251h-490v-374h527v-253h-834z" />
<glyph unicode="&#x416;" horiz-adv-x="1830" d="M0 0l474 752l-445 695h316l427 -701v701h286v-701l428 701h317l-447 -695l475 -752h-328l-445 734v-734h-286v734l-443 -734h-329z" />
<glyph unicode="&#x417;" horiz-adv-x="1232" d="M93 1310q52 36 106.5 65.5t118 50t138.5 31.5t165 11q113 0 202.5 -26.5t151 -74.5t94 -114t32.5 -144q0 -72 -25.5 -131.5t-70.5 -103t-106.5 -72t-136.5 -40.5v-6q91 -10 162.5 -38t120.5 -72t74.5 -103t25.5 -131q0 -95 -36.5 -174.5t-108.5 -136.5t-177.5 -89 t-244.5 -32q-153 0 -270 20.5t-203 57.5v258q43 -23 94.5 -41t105.5 -29.5t107.5 -18t100.5 -6.5q172 0 250.5 55.5t78.5 157.5q0 52 -28.5 89t-81 62t-126.5 36.5t-166 11.5h-117v239h103q111 0 183.5 13t115.5 37t60.5 59t17.5 79q0 75 -58.5 119t-172.5 44 q-100 0 -185 -32.5t-160 -85.5z" />
<glyph unicode="&#x418;" horiz-adv-x="1587" d="M182 0v1447h276v-685q0 -24 -0.5 -55t-1.5 -64l-2 -66q-1 -33 -3 -65q-4 -73 -6 -149h5l589 1084h366v-1447h-273v681q0 57 2.5 127.5t5.5 134.5q4 76 9 152h-8l-590 -1095h-369z" />
<glyph unicode="&#x419;" horiz-adv-x="1587" d="M182 0v1447h276v-685q0 -24 -0.5 -55t-1.5 -64l-2 -66q-1 -33 -3 -65q-4 -73 -6 -149h5l589 1084h366v-1447h-273v681q0 57 2.5 127.5t5.5 134.5q4 76 9 152h-8l-590 -1095h-369zM300 1918h270q5 -56 18.5 -92t38 -56t62.5 -28t90 -8q44 0 80 9t62.5 30.5t43.5 57 t23 87.5h273q-8 -79 -36 -144.5t-85 -112t-146.5 -72t-220.5 -25.5q-134 0 -223 24.5t-142.5 70.5t-77.5 111.5t-30 147.5z" />
<glyph unicode="&#x41a;" horiz-adv-x="1281" d="M182 0v1447h307v-701l438 701h326l-446 -695l474 -752h-348l-444 734v-734h-307z" />
<glyph unicode="&#x41b;" horiz-adv-x="1429" d="M16 2v251q26 -8 51.5 -13.5t56.5 -5.5q29 0 51 13.5t40 47.5t32.5 90.5t30.5 141.5q9 49 24.5 140t33.5 212.5t38.5 266.5t39.5 301h833v-1447h-307v1192h-273q-12 -93 -25.5 -204t-28.5 -221.5t-31.5 -212t-32.5 -177.5q-19 -95 -48 -168.5t-73.5 -124.5t-109.5 -77.5 t-156 -26.5q-41 0 -77.5 5.5t-68.5 16.5z" />
<glyph unicode="&#x41c;" horiz-adv-x="1851" d="M182 0v1447h418l313 -1106h6l332 1106h418v-1447h-286v685q0 26 0.5 58.5t1.5 69t2.5 74.5t2.5 73q4 83 7 174h-8l-343 -1134h-282l-318 1136h-8q6 -92 9 -177q2 -36 3.5 -75t3 -76.5t2 -72t0.5 -62.5v-673h-274z" />
<glyph unicode="&#x41d;" horiz-adv-x="1470" d="M182 0v1447h307v-567h492v567h306v-1447h-306v625h-492v-625h-307z" />
<glyph unicode="&#x41e;" horiz-adv-x="1532" d="M118 728q0 168 39 305t119 234t202.5 150t289.5 53t288.5 -53t201 -150.5t119 -234.5t39.5 -306q0 -168 -39.5 -305.5t-119.5 -235.5t-202 -151.5t-289 -53.5q-166 0 -288.5 53.5t-202 151.5t-118.5 236t-39 307zM434 726q0 -114 19.5 -204.5t60.5 -153.5t103.5 -96.5 t148.5 -33.5q88 0 151 33.5t103 96.5t59.5 153.5t19.5 204.5t-19.5 204.5t-59.5 153.5t-102.5 97t-149.5 34q-86 0 -149.5 -34t-104.5 -97t-60.5 -153.5t-19.5 -204.5z" />
<glyph unicode="&#x41f;" horiz-adv-x="1429" d="M182 0v1447h1065v-1447h-307v1192h-451v-1192h-307z" />
<glyph unicode="&#x420;" horiz-adv-x="1212" d="M182 0v1447h402q140 0 241.5 -31t167 -89t97.5 -141.5t32 -189.5q0 -95 -29 -182t-94.5 -153.5t-173 -106t-266.5 -39.5h-70v-515h-307zM489 766h60q130 0 196 51.5t66 167.5q0 108 -59 159.5t-185 51.5h-78v-430z" />
<glyph unicode="&#x421;" horiz-adv-x="1291" d="M118 722q0 164 44.5 301t130.5 236t213 154t291 55q108 0 216.5 -27t207.5 -75l-99 -249q-82 38 -164 67t-161 29q-88 0 -156 -34.5t-114 -98t-69.5 -155t-23.5 -205.5q0 -116 21 -206t65 -152t113 -94t164 -32q88 0 176.5 19.5t192.5 56.5v-258q-47 -19 -93.5 -33 t-95 -23t-99.5 -13.5t-110 -4.5q-167 0 -290 53.5t-203 150.5t-118.5 233.5t-38.5 304.5z" />
<glyph unicode="&#x422;" horiz-adv-x="1112" d="M41 1192v255h1031v-255h-362v-1192h-306v1192h-363z" />
<glyph unicode="&#x423;" horiz-adv-x="1242" d="M0 1447h325l273 -624q7 -15 16 -36.5t17 -42.5t14 -39t7 -26h11q2 9 6 27.5t10 39t12.5 41t12.5 34.5l223 626h315l-419 -1023q-43 -104 -87.5 -187t-105.5 -139.5t-144 -87t-202 -30.5q-50 0 -108 7.5t-109 22.5v263q49 -20 107 -27.5t110 -7.5q51 0 86 12.5t59.5 36 t41.5 54.5t30 67z" />
<glyph unicode="&#x424;" horiz-adv-x="1662" d="M91 750q0 101 32.5 198t100.5 173t172.5 122.5t247.5 46.5h49v178h276v-178h49q143 0 247.5 -46.5t172.5 -122.5t100.5 -173t32.5 -198q0 -60 -13 -124t-41 -124.5t-73 -115t-110 -95.5t-150.5 -64.5t-194.5 -23.5h-20v-223h-276v223h-20q-109 0 -194.5 23.5t-150 64.5 t-110 95.5t-73.5 115t-41 124.5t-13 124zM379 752q0 -66 19 -123.5t56.5 -99.5t94 -65.5t132.5 -23.5h12v610h-36q-71 0 -123.5 -24t-86.5 -65t-51 -95t-17 -114zM969 440h12q76 0 132.5 23.5t94 65.5t56.5 99.5t19 123.5q0 60 -16.5 114t-50.5 95t-86.5 65t-123.5 24h-37 v-610z" />
<glyph unicode="&#x425;" horiz-adv-x="1271" d="M0 0l440 746l-409 701h338l272 -520l265 520h331l-414 -717l448 -730h-350l-296 547l-296 -547h-329z" />
<glyph unicode="&#x426;" horiz-adv-x="1502" d="M182 0v1447h307v-1192h451v1192h307v-1203l215 -29v-637h-296v422h-984z" />
<glyph unicode="&#x427;" horiz-adv-x="1394" d="M108 849v598h306v-510q0 -105 41.5 -158t140.5 -53q73 0 147 18t163 55v648h307v-1447h-307v559q-58 -21 -110.5 -38t-102 -28t-97.5 -17t-97 -6q-92 0 -165 25.5t-123 73.5t-76.5 118.5t-26.5 161.5z" />
<glyph unicode="&#x428;" horiz-adv-x="2104" d="M182 0v1447h307v-1192h409v1192h309v-1192h409v1192h307v-1447h-1741z" />
<glyph unicode="&#x429;" horiz-adv-x="2178" d="M182 0v1447h307v-1192h409v1192h309v-1192h409v1192h307v-1203l214 -29v-637h-296v422h-1659z" />
<glyph unicode="&#x42a;" horiz-adv-x="1433" d="M41 1192v255h669v-555h107q135 0 234 -32.5t164 -91t96 -139.5t31 -177q0 -106 -32 -190.5t-100 -142.5t-171.5 -88.5t-247.5 -30.5h-387v1192h-363zM710 251h83q55 0 99.5 10.5t75.5 34.5t47.5 62.5t16.5 93.5q0 58 -18 94.5t-51.5 57.5t-81.5 29t-109 8h-62v-390z" />
<glyph unicode="&#x42b;" horiz-adv-x="1756" d="M182 0v1447h307v-555h107q136 0 235 -32.5t163.5 -91t96 -139.5t31.5 -177q0 -106 -32.5 -190.5t-100 -142.5t-171.5 -88.5t-249 -30.5h-387zM489 251h83q56 0 100 10.5t75 34.5t47.5 62.5t16.5 93.5q0 58 -18 94.5t-51.5 57.5t-81.5 29t-109 8h-62v-390zM1267 0v1447 h306v-1447h-306z" />
<glyph unicode="&#x42c;" horiz-adv-x="1212" d="M182 0v1447h307v-555h107q136 0 235 -32.5t163.5 -91t96 -139.5t31.5 -177q0 -106 -32.5 -190.5t-100 -142.5t-171.5 -88.5t-249 -30.5h-387zM489 251h83q56 0 100 10.5t75 34.5t47.5 62.5t16.5 93.5q0 58 -18 94.5t-51.5 57.5t-81.5 29t-109 8h-62v-390z" />
<glyph unicode="&#x42d;" horiz-adv-x="1263" d="M71 1366q99 48 210 75t238 27q149 0 265.5 -50t196.5 -146t122 -234.5t42 -315.5q0 -168 -38.5 -304.5t-118.5 -233.5t-202.5 -150.5t-290.5 -53.5q-57 0 -108.5 4.5t-100 13.5t-95 23t-94.5 33v258q104 -37 192.5 -56.5t176.5 -19.5q167 0 258 91.5t99 276.5h-547v251 h545q-3 85 -26.5 151.5t-64 112t-98 70t-127.5 24.5q-87 0 -171.5 -28t-165.5 -66z" />
<glyph unicode="&#x42e;" horiz-adv-x="2087" d="M182 0v1447h307v-567h273q15 136 59.5 245t119 185.5t180.5 118t243 41.5q156 0 270 -53t189 -150.5t111.5 -234.5t36.5 -306q0 -168 -36.5 -305.5t-112 -235.5t-189.5 -151.5t-271 -53.5q-143 0 -251.5 45.5t-184 130t-117.5 203.5t-53 266h-267v-625h-307zM1070 726 q0 -114 17.5 -204.5t53.5 -153.5t91 -96.5t130 -33.5q77 0 132 33.5t91 96.5t52.5 153.5t16.5 204.5t-16.5 204.5t-52 153.5t-90.5 97t-131 34q-75 0 -130.5 -34t-92 -97t-54 -153.5t-17.5 -204.5z" />
<glyph unicode="&#x42f;" horiz-adv-x="1267" d="M-10 0l405 648q-44 19 -88 50t-79 78.5t-57.5 113t-22.5 154.5q0 202 136 302.5t403 100.5h398v-1447h-307v555h-121l-326 -555h-341zM458 1012q0 -96 50 -151.5t155 -55.5h115v391h-121q-95 0 -147 -42.5t-52 -141.5z" />
<glyph unicode="&#x430;" horiz-adv-x="1164" d="M85 331q0 176 113 259.5t338 92.5l176 6v83q0 69 -39.5 101.5t-111.5 32.5q-71 0 -139 -21t-136 -55l-98 200q83 46 184 73t212 27q207 0 317.5 -97t110.5 -295v-738h-211l-59 150h-8q-33 -44 -65.5 -76t-71.5 -53t-87 -31t-111 -10q-67 0 -124.5 21.5t-99.5 64.5 t-66 109t-24 156zM395 329q0 -70 33.5 -99t88.5 -29q41 0 77 14.5t62 42.5t41 69t15 95v91l-100 -4q-61 -2 -102.5 -16t-66.5 -37t-36.5 -55.5t-11.5 -71.5z" />
<glyph unicode="&#x431;" horiz-adv-x="1242" d="M101 663q0 183 31 325.5t99.5 245t175.5 166.5t258 92q101 19 204.5 34t215.5 31l34 -263q-49 -6 -105 -14.5t-112.5 -17t-108.5 -16.5t-95 -15q-70 -12 -122 -32.5t-88 -60.5t-54.5 -106t-23.5 -169h12q17 29 43.5 58.5t64 54t85.5 40.5t107 16q91 0 164.5 -31 t125 -91.5t79.5 -151t28 -211.5q0 -141 -37.5 -247.5t-104.5 -177.5t-161 -106.5t-208 -35.5q-116 0 -209.5 44.5t-159.5 132t-102 214.5t-36 292zM410 639q0 -79 10.5 -153.5t34.5 -132.5t65.5 -93t104.5 -35q41 0 75.5 15t59 50t38 91.5t13.5 139.5q0 66 -9.5 119.5 t-29.5 90.5t-52 57.5t-77 20.5q-43 0 -81 -19t-69 -45.5t-52.5 -56t-30.5 -49.5z" />
<glyph unicode="&#x432;" horiz-adv-x="1244" d="M158 0v1107h533q92 0 170.5 -15t135.5 -49t89.5 -89.5t32.5 -136.5q0 -89 -55.5 -152t-165.5 -81v-8q58 -7 105 -27t80.5 -52.5t51.5 -74t18 -91.5q0 -72 -25.5 -132.5t-81 -104.5t-142.5 -69t-211 -25h-535zM460 209h211q38 0 69 7.5t53.5 24t35.5 43t13 62.5 q0 66 -44 95t-131 29h-207v-261zM460 675h186q84 0 125.5 28t41.5 90q0 101 -136 101h-217v-219z" />
<glyph unicode="&#x433;" horiz-adv-x="908" d="M158 0v1107h703v-227h-401v-880h-302z" />
<glyph unicode="&#x434;" horiz-adv-x="1283" d="M29 221h93q54 84 96 186.5t72.5 216.5t50 236.5t30.5 246.5h722v-886h162v-618h-272v397h-683v-397h-271v618zM438 221h353v659h-166q-25 -184 -68 -349.5t-119 -309.5z" />
<glyph unicode="&#x435;" horiz-adv-x="1178" d="M101 545q0 146 36.5 255t102.5 181.5t158.5 109.5t205.5 37q110 0 198.5 -33.5t150.5 -97.5t95 -158t33 -214v-147h-675q2 -63 20.5 -114t51.5 -86t80 -54t107 -19q51 0 96 5.5t87.5 16.5t84 27t85.5 38v-234q-40 -20 -80 -34.5t-84.5 -24.5t-96 -14.5t-113.5 -4.5 q-118 0 -218 35t-172.5 104.5t-112.5 176t-40 249.5zM412 679h385q-1 51 -13 93.5t-35.5 73.5t-59.5 49t-83 18q-80 0 -133 -56.5t-61 -177.5z" />
<glyph unicode="&#x436;" horiz-adv-x="1708" d="M0 0l416 576l-377 531h311l364 -538v538h282v-538l362 538h313l-377 -531l415 -576h-322l-391 561v-561h-282v561l-391 -561h-323z" />
<glyph unicode="&#x437;" horiz-adv-x="1064" d="M77 49v249q32 -16 70.5 -31.5t83 -27t94 -19t101.5 -7.5q56 0 105 6.5t84.5 21.5t56.5 39.5t21 60.5q0 67 -66 99t-203 32h-101v209h95q129 0 199 25t70 91q0 53 -46.5 80t-153.5 27q-36 0 -76 -5t-80.5 -14t-80 -22t-76.5 -29l-89 210q45 18 93 33.5t102.5 27t116 17.5 t135.5 6q83 0 160 -17.5t136 -53.5t94 -91.5t35 -131.5q0 -100 -56.5 -159t-150.5 -85v-10q50 -13 93 -31.5t75 -48.5t50.5 -73t18.5 -104q0 -69 -30.5 -131t-94 -109t-160 -75t-228.5 -28q-126 0 -227 17.5t-170 51.5z" />
<glyph unicode="&#x438;" horiz-adv-x="1398" d="M158 0v1107h292v-430q0 -34 -2.5 -90.5t-7.5 -112.5q-5 -64 -12 -135l450 768h362v-1107h-292v434q0 41 3.5 97.5t7.5 109.5q4 61 10 125l-448 -766h-363z" />
<glyph unicode="&#x439;" horiz-adv-x="1398" d="M158 0v1107h292v-430q0 -34 -2.5 -90.5t-7.5 -112.5q-5 -64 -12 -135l450 768h362v-1107h-292v434q0 41 3.5 97.5t7.5 109.5q4 61 10 125l-448 -766h-363zM215 1583h270q5 -56 18.5 -92t38 -56t62.5 -28t90 -8q44 0 80 9t62.5 30.5t43.5 57t23 87.5h273 q-8 -79 -36 -144.5t-85 -112t-146.5 -72t-220.5 -25.5q-134 0 -223 24.5t-142.5 70.5t-77.5 111.5t-30 147.5z" />
<glyph unicode="&#x43a;" horiz-adv-x="1193" d="M158 0v1107h302v-538l363 538h332l-377 -531l416 -576h-343l-391 561v-561h-302z" />
<glyph unicode="&#x43b;" horiz-adv-x="1247" d="M0 12v241q22 -8 46.5 -13.5t50.5 -5.5q24 0 45.5 14.5t42 52.5t38 101t33.5 160t30 231.5t26 313.5h777v-1107h-302v880h-218q-21 -243 -49 -414.5t-73 -279t-111.5 -157t-163.5 -49.5q-105 0 -172 32z" />
<glyph unicode="&#x43c;" horiz-adv-x="1671" d="M158 0v1107h422l172 -472q20 -54 34.5 -109t24 -102t15.5 -82.5t8 -51.5q4 18 10 53t16.5 81t25 98.5t33.5 104.5l176 480h418v-1107h-282v872q-5 -21 -14.5 -62t-23 -93t-30.5 -110t-37 -112l-184 -495h-214l-184 499q-20 53 -36 108t-29 105.5t-23 92t-16 67.5v-872 h-282z" />
<glyph unicode="&#x43d;" horiz-adv-x="1281" d="M158 0v1107h302v-426h361v426h303v-1107h-303v456h-361v-456h-302z" />
<glyph unicode="&#x43e;" horiz-adv-x="1214" d="M101 555q0 138 35 245t101 179.5t160 110.5t213 38q110 0 202 -38t159 -110.5t104.5 -179.5t37.5 -245t-35.5 -245t-101 -180.5t-160 -111.5t-212.5 -38q-110 0 -202 38t-159 111.5t-104.5 180.5t-37.5 245zM410 555q0 -165 46.5 -248.5t151.5 -83.5q104 0 150.5 84 t46.5 248q0 166 -46.5 247.5t-152.5 81.5q-104 0 -150 -81.5t-46 -247.5z" />
<glyph unicode="&#x43f;" horiz-adv-x="1261" d="M158 0v1107h945v-1107h-302v880h-341v-880h-302z" />
<glyph unicode="&#x440;" horiz-adv-x="1232" d="M158 -487v1594h246l42 -144h14q21 34 48 63.5t62 52t79.5 36t98.5 13.5q87 0 157 -37t120.5 -109t78.5 -179t28 -248t-29 -248.5t-81 -180.5t-123.5 -109.5t-157.5 -36.5q-55 0 -98 12t-76.5 32t-59.5 45t-47 53h-15q3 -35 7 -66q3 -25 5.5 -52.5t2.5 -42.5v-448h-302z M460 557q0 -80 9.5 -142.5t31.5 -104.5t58 -63.5t89 -21.5q91 0 133 85.5t42 248.5q0 164 -42 245.5t-135 81.5q-50 0 -85 -18.5t-57 -55t-32 -92.5t-12 -130v-33z" />
<glyph unicode="&#x441;" horiz-adv-x="1011" d="M101 547q0 166 37 277.5t105 178.5t163.5 96t212.5 29q85 0 169 -21t158 -59l-87 -229q-65 28 -125.5 46.5t-114.5 18.5q-110 0 -159.5 -83.5t-49.5 -251.5q0 -166 49.5 -245t155.5 -79q86 0 156.5 22t143.5 57v-252q-37 -17 -71.5 -31t-69.5 -23t-73.5 -13.5t-81.5 -4.5 q-119 0 -214.5 33t-163.5 101.5t-104 176t-36 256.5z" />
<glyph unicode="&#x442;" horiz-adv-x="1060" d="M47 880v227h967v-227h-333v-880h-302v880h-332z" />
<glyph unicode="&#x443;" horiz-adv-x="1092" d="M0 1107h331l178 -623q16 -51 23.5 -109.5t9.5 -105.5h5q2 23 5.5 50.5t8.5 56.5t11.5 57t13.5 51l174 623h333l-438 -1249q-61 -175 -167 -260t-265 -85q-52 0 -89.5 5.5t-64.5 11.5v239q21 -5 52.5 -9t66.5 -4q48 0 81.5 13t57.5 36.5t41.5 56t30.5 73.5l19 55z" />
<glyph unicode="&#x444;" horiz-adv-x="1609" d="M101 553q0 119 34 217.5t104 171.5t176.5 117t251.5 54v427h279v-427q137 -12 242 -57.5t176.5 -118.5t108 -170.5t36.5 -213.5q0 -115 -35.5 -213t-105.5 -171t-175.5 -119t-246.5 -58v-479h-279v479q-135 13 -240.5 59t-178 119.5t-110 170.5t-37.5 212zM412 553 q0 -67 17 -124.5t50 -100.5t80.5 -70.5t107.5 -36.5v665q-59 -9 -106.5 -37.5t-80.5 -72t-50.5 -100t-17.5 -123.5zM946 221q61 9 107.5 36.5t78.5 70.5t49 100.5t17 124.5t-17.5 123.5t-50 99.5t-79 70t-105.5 36v-661z" />
<glyph unicode="&#x445;" horiz-adv-x="1110" d="M10 0l375 565l-356 542h342l184 -333l187 333h343l-361 -542l377 -565h-343l-203 358l-203 -358h-342z" />
<glyph unicode="&#x446;" horiz-adv-x="1334" d="M158 0v1107h302v-880h382v880h301v-886h163v-618h-272v397h-876z" />
<glyph unicode="&#x447;" horiz-adv-x="1269" d="M122 695v412h302v-416q0 -71 31.5 -102.5t84.5 -31.5q74 0 138.5 20t130.5 52v478h302v-1107h-302v440q-33 -19 -70 -37.5t-79 -32.5t-89 -22.5t-101 -8.5q-80 0 -144.5 22t-109.5 66.5t-69.5 111.5t-24.5 156z" />
<glyph unicode="&#x448;" horiz-adv-x="1903" d="M158 0v1107h302v-880h341v880h302v-880h340v880h302v-1107h-1587z" />
<glyph unicode="&#x449;" horiz-adv-x="1936" d="M158 0v1107h302v-880h341v880h302v-880h340v880h302v-886h163v-618h-272v397h-1478z" />
<glyph unicode="&#x44a;" horiz-adv-x="1435" d="M47 880v227h655v-428h194q235 0 346.5 -80.5t111.5 -246.5q0 -80 -25.5 -145t-81 -111t-142.5 -71t-211 -25h-495v880h-352zM702 209h180q38 0 69 7.5t53.5 24t35 43.5t12.5 64q0 65 -43.5 93.5t-130.5 28.5h-176v-261z" />
<glyph unicode="&#x44b;" horiz-adv-x="1662" d="M158 0v1107h302v-428h134q234 0 346 -80.5t112 -246.5q0 -80 -25.5 -145t-81 -111t-142.5 -71t-211 -25h-434zM460 209h120q38 0 69 7.5t53.5 24t35 43.5t12.5 64q0 65 -43.5 93.5t-130.5 28.5h-116v-261zM1202 0v1107h303v-1107h-303z" />
<glyph unicode="&#x44c;" horiz-adv-x="1193" d="M158 0v1107h302v-428h195q234 0 346 -80.5t112 -246.5q0 -80 -26 -145t-81.5 -111t-142.5 -71t-211 -25h-494zM460 209h181q75 0 122.5 32t47.5 107q0 65 -43.5 93.5t-130.5 28.5h-177v-261z" />
<glyph unicode="&#x44d;" horiz-adv-x="987" d="M73 49v235q66 -34 138 -56.5t152 -22.5q91 0 147 59.5t64 193.5h-357v201h357q-13 245 -185 245q-62 0 -119.5 -19t-105.5 -43l-85 206q30 15 66.5 29t79 25.5t89 18.5t96.5 7q101 0 188 -27.5t151 -92.5t100.5 -172.5t36.5 -270.5q0 -149 -33 -259.5t-96.5 -183 t-156 -107.5t-211.5 -35q-98 0 -173 16t-143 53z" />
<glyph unicode="&#x44e;" horiz-adv-x="1727" d="M158 0v1107h302v-426h203q15 108 55 191t102 140t143.5 86.5t179.5 29.5q105 0 194 -38t152.5 -110.5t100 -179.5t36.5 -245t-34 -245t-97 -180.5t-154 -111.5t-203 -38q-97 0 -179 29t-144 87.5t-102 148.5t-54 211h-199v-456h-302zM963 555q0 -165 41.5 -248.5 t136.5 -83.5q94 0 135.5 83.5t41.5 248.5q0 166 -41.5 247.5t-137.5 81.5q-93 0 -134.5 -81.5t-41.5 -247.5z" />
<glyph unicode="&#x44f;" horiz-adv-x="1141" d="M0 0l286 445q-42 17 -80 46t-65.5 69t-43.5 91t-16 113q0 83 31 147t86 107.5t132.5 66t170.5 22.5h482v-1107h-302v412h-118l-236 -412h-327zM377 762q0 -70 45.5 -108.5t119.5 -38.5h139v279h-172q-34 0 -58.5 -10.5t-41 -28.5t-24.5 -42t-8 -51z" />
<glyph unicode="&#x451;" horiz-adv-x="1178" d="M101 545q0 146 36.5 255t102.5 181.5t158.5 109.5t205.5 37q110 0 198.5 -33.5t150.5 -97.5t95 -158t33 -214v-147h-675q2 -63 20.5 -114t51.5 -86t80 -54t107 -19q51 0 96 5.5t87.5 16.5t84 27t85.5 38v-234q-40 -20 -80 -34.5t-84.5 -24.5t-96 -14.5t-113.5 -4.5 q-118 0 -218 35t-172.5 104.5t-112.5 176t-40 249.5zM412 679h385q-1 51 -13 93.5t-35.5 73.5t-59.5 49t-83 18q-80 0 -133 -56.5t-61 -177.5zM264 1391q0 35 10.5 60t29 41.5t43.5 24.5t54 8t54 -8t44 -24.5t30.5 -41.5t11.5 -60q0 -34 -11.5 -58.5t-30.5 -41t-44 -24.5 t-54 -8t-54 8t-43.5 24.5t-29 41t-10.5 58.5zM662 1391q0 35 11 60t30 41.5t44.5 24.5t55.5 8q28 0 53 -8t44.5 -24.5t31 -41.5t11.5 -60q0 -34 -11.5 -58.5t-31 -41t-44.5 -24.5t-53 -8q-59 0 -100 33t-41 99z" />
<glyph unicode="&#x452;" horiz-adv-x="1271" d="M4 1184v197h154v159h302v-159h312v-197h-312v-18q0 -41 -2 -87t-5 -85l-7 -90h16q49 86 124 124t170 38q83 0 149.5 -23t114 -72.5t73.5 -126.5t26 -183v-781q0 -76 -19.5 -143t-62.5 -117t-111.5 -78.5t-165.5 -28.5q-47 0 -97.5 7t-84.5 18v237q31 -10 57 -14.5 t60 -4.5q26 0 47.5 7.5t38.5 27t26.5 51.5t9.5 83v683q0 109 -39 163.5t-113 54.5q-58 0 -97.5 -24.5t-63.5 -71t-34 -114.5t-10 -156v-460h-302v1184h-154z" />
<glyph unicode="&#x453;" horiz-adv-x="908" d="M158 0v1107h703v-227h-401v-880h-302zM337 1229v26q20 29 44 66.5t47.5 77.5t44 80.5t36.5 73.5h339v-20q-11 -18 -32 -42.5t-47.5 -52t-57.5 -57t-62 -57t-60 -52.5t-51 -43h-201z" />
<glyph unicode="&#x454;" horiz-adv-x="1011" d="M101 547q0 166 37 277.5t105 178.5t163.5 96t212.5 29q85 0 169 -19.5t158 -54.5l-87 -214q-65 28 -125.5 46t-114.5 18q-92 0 -141.5 -60.5t-63.5 -184.5h356v-201h-356q12 -129 60.5 -191t140.5 -62q86 0 156.5 22t143.5 57v-232q-68 -36 -138 -54t-158 -18 q-119 0 -214.5 33t-163.5 101.5t-104 176t-36 256.5z" />
<glyph unicode="&#x455;" horiz-adv-x="975" d="M97 819q0 77 29.5 135t84 96.5t131.5 58t171 19.5q99 0 188 -23t183 -68l-91 -214q-75 35 -143.5 58t-136.5 23q-62 0 -89 -22t-27 -59q0 -20 7 -35.5t27.5 -31.5t58.5 -35.5t98 -47.5q70 -30 126.5 -60.5t97 -69t62.5 -90t22 -124.5q0 -87 -31.5 -152.5t-90 -109 t-142 -65.5t-186.5 -22q-54 0 -100.5 3.5t-88 11.5t-80 20t-78.5 30v249q42 -21 88 -37.5t91.5 -29t88.5 -19.5t79 -7q41 0 69.5 7.5t47 21t27 31.5t8.5 39t-6.5 37t-29 34.5t-67 42t-118.5 56.5q-72 33 -125 65t-87 71.5t-51 90.5t-17 122z" />
<glyph unicode="&#x456;" horiz-adv-x="618" d="M146 1393q0 43 12.5 71t35 45.5t52.5 24t64 6.5t63.5 -6.5t51.5 -24t35.5 -45.5t13.5 -71q0 -42 -13.5 -70.5t-35.5 -46t-51.5 -25t-63.5 -7.5t-64 7.5t-52.5 25t-35 46t-12.5 70.5zM158 0v1107h302v-1107h-302z" />
<glyph unicode="&#x457;" horiz-adv-x="618" d="M158 0v1107h302v-1107h-302zM-31 1391q0 35 10.5 60t29 41.5t43.5 24.5t54 8t54 -8t44 -24.5t30.5 -41.5t11.5 -60q0 -34 -11.5 -58.5t-30.5 -41t-44 -24.5t-54 -8t-54 8t-43.5 24.5t-29 41t-10.5 58.5zM367 1391q0 35 11 60t30 41.5t44.5 24.5t55.5 8q28 0 53 -8 t44.5 -24.5t31 -41.5t11.5 -60q0 -34 -11.5 -58.5t-31 -41t-44.5 -24.5t-53 -8q-59 0 -100 33t-41 99z" />
<glyph unicode="&#x458;" horiz-adv-x="618" d="M-81 -225q31 -10 57.5 -14.5t60.5 -4.5q24 0 46.5 7.5t39 27t26 51.5t9.5 83v1182h302v-1227q0 -76 -19 -143t-62 -117t-111.5 -78.5t-166.5 -28.5q-48 0 -98.5 7t-83.5 18v237zM146 1393q0 43 12.5 71t35 45.5t52.5 24t64 6.5t63.5 -6.5t51.5 -24t35.5 -45.5t13.5 -71 q0 -42 -13.5 -70.5t-35.5 -46t-51.5 -25t-63.5 -7.5t-64 7.5t-52.5 25t-35 46t-12.5 70.5z" />
<glyph unicode="&#x459;" horiz-adv-x="1749" d="M0 12v241q22 -8 46.5 -13.5t50.5 -5.5q24 0 45.5 14.5t42 52.5t38 101t33.5 160t30 231.5t26 313.5h764v-428h135q233 0 345.5 -80.5t112.5 -246.5q0 -80 -25.5 -145t-81.5 -111t-143 -71t-210 -25h-435v880h-205q-21 -243 -49 -414.5t-73 -279t-111.5 -157t-163.5 -49.5 q-105 0 -172 32zM1076 209h120q75 0 122.5 32t47.5 107q0 65 -43.5 93.5t-130.5 28.5h-116v-261z" />
<glyph unicode="&#x45a;" horiz-adv-x="1749" d="M158 0v1107h302v-426h314v426h302v-428h135q233 0 345.5 -80.5t112.5 -246.5q0 -80 -25.5 -145t-81.5 -111t-143 -71t-210 -25h-435v456h-314v-456h-302zM1076 209h120q75 0 122.5 32t47.5 107q0 65 -43.5 93.5t-130.5 28.5h-116v-261z" />
<glyph unicode="&#x45b;" horiz-adv-x="1271" d="M4 1184v197h154v159h302v-159h312v-197h-312v-18q0 -41 -2 -87t-5 -85l-7 -90h16q49 86 124 124t170 38q83 0 149.5 -23t114 -72.5t73.5 -126.5t26 -183v-661h-302v586q0 120 -37.5 180t-114.5 60q-58 0 -97.5 -24.5t-63.5 -71t-34 -114.5t-10 -156v-460h-302v1184h-154z " />
<glyph unicode="&#x45c;" horiz-adv-x="1193" d="M158 0v1107h302v-538l363 538h332l-377 -531l416 -576h-343l-391 561v-561h-302zM481 1229v26q20 29 44 66.5t47.5 77.5t44 80.5t36.5 73.5h339v-20q-11 -18 -32 -42.5t-47.5 -52t-57.5 -57t-62 -57t-60 -52.5t-51 -43h-201z" />
<glyph unicode="&#x45e;" horiz-adv-x="1092" d="M0 1107h331l178 -623q16 -51 23.5 -109.5t9.5 -105.5h5q2 23 5.5 50.5t8.5 56.5t11.5 57t13.5 51l174 623h333l-438 -1249q-61 -175 -167 -260t-265 -85q-52 0 -89.5 5.5t-64.5 11.5v239q21 -5 52.5 -9t66.5 -4q48 0 81.5 13t57.5 36.5t41.5 56t30.5 73.5l19 55zM63 1583 h270q5 -56 18.5 -92t38 -56t62.5 -28t90 -8q44 0 80 9t62.5 30.5t43.5 57t23 87.5h273q-8 -79 -36 -144.5t-85 -112t-146.5 -72t-220.5 -25.5q-134 0 -223 24.5t-142.5 70.5t-77.5 111.5t-30 147.5z" />
<glyph unicode="&#x45f;" horiz-adv-x="1301" d="M158 0v1107h302v-880h382v880h301v-1107h-356v-397h-272v397h-357z" />
<glyph unicode="&#x490;" horiz-adv-x="1096" d="M182 0v1447h609v307h265v-560h-567v-1194h-307z" />
<glyph unicode="&#x491;" horiz-adv-x="977" d="M158 0v1107h475v302h271v-529h-444v-880h-302z" />
<glyph unicode="&#x1e00;" horiz-adv-x="1317" d="M0 0l470 1453h375l473 -1453h-310l-99 345h-499l-100 -345h-310zM484 602h354l-94 317q-5 18 -17 58.5t-25.5 89.5t-25.5 98.5t-17 83.5q-4 -21 -10 -51t-14.5 -63t-17.5 -66.5t-17 -63.5t-14.5 -52.5t-9.5 -33.5zM412 -358q0 54 18 97.5t50 74t77 46.5t101 16 q52 0 97.5 -16t79.5 -46.5t54 -73.5t20 -96q0 -56 -19.5 -100t-53.5 -74.5t-79.5 -47t-98.5 -16.5q-56 0 -101 16.5t-77 46.5t-50 73.5t-18 99.5zM563 -358q0 -45 23.5 -70.5t71.5 -25.5q41 0 68 25.5t27 70.5q0 44 -27 69.5t-68 25.5q-42 0 -68.5 -25.5t-26.5 -69.5z" />
<glyph unicode="&#x1e01;" horiz-adv-x="1164" d="M85 331q0 176 113 259.5t338 92.5l176 6v83q0 69 -39.5 101.5t-111.5 32.5q-71 0 -139 -21t-136 -55l-98 200q83 46 184 73t212 27q207 0 317.5 -97t110.5 -295v-738h-211l-59 150h-8q-33 -44 -65.5 -76t-71.5 -53t-87 -31t-111 -10q-67 0 -124.5 21.5t-99.5 64.5 t-66 109t-24 156zM395 329q0 -70 33.5 -99t88.5 -29q41 0 77 14.5t62 42.5t41 69t15 95v91l-100 -4q-61 -2 -102.5 -16t-66.5 -37t-36.5 -55.5t-11.5 -71.5zM325 -358q0 54 18 97.5t50 74t77 46.5t101 16q52 0 97.5 -16t79.5 -46.5t54 -73.5t20 -96q0 -56 -19.5 -100 t-53.5 -74.5t-79.5 -47t-98.5 -16.5q-56 0 -101 16.5t-77 46.5t-50 73.5t-18 99.5zM476 -358q0 -45 23.5 -70.5t71.5 -25.5q41 0 68 25.5t27 70.5q0 44 -27 69.5t-68 25.5q-42 0 -68.5 -25.5t-26.5 -69.5z" />
<glyph unicode="&#x1e3e;" horiz-adv-x="1851" d="M182 0v1447h418l313 -1106h6l332 1106h418v-1447h-286v685q0 26 0.5 58.5t1.5 69t2.5 74.5t2.5 73q4 83 7 174h-8l-343 -1134h-282l-318 1136h-8q6 -92 9 -177q2 -36 3.5 -75t3 -76.5t2 -72t0.5 -62.5v-673h-274zM777 1566v26q20 29 44 66.5t47.5 77.5t44 80.5t36.5 73.5 h339v-20q-11 -18 -32 -42.5t-47.5 -52t-57.5 -57t-62 -57t-60 -52.5t-51 -43h-201z" />
<glyph unicode="&#x1e3f;" horiz-adv-x="1909" d="M158 0v1107h231l41 -142h16q24 43 57.5 73.5t73 50.5t84 29.5t89.5 9.5q114 0 194 -39.5t122 -123.5h25q24 43 57.5 73.5t74 50.5t85.5 29.5t91 9.5q178 0 268.5 -96.5t90.5 -309.5v-722h-303v646q0 120 -35.5 180t-111.5 60q-108 0 -153.5 -85.5t-45.5 -245.5v-555h-302 v646q0 120 -35.5 180t-112.5 60q-57 0 -95 -23.5t-61 -70.5t-33 -115t-10 -156v-521h-302zM797 1229v26q20 29 44 66.5t47.5 77.5t44 80.5t36.5 73.5h339v-20q-11 -18 -32 -42.5t-47.5 -52t-57.5 -57t-62 -57t-60 -52.5t-51 -43h-201z" />
<glyph unicode="&#x1e80;" horiz-adv-x="1879" d="M0 1447h302l164 -790q3 -15 8.5 -45.5t12.5 -68t14.5 -79t14.5 -81t13 -74t9 -56.5q3 22 8 56t11 72t13.5 78.5t13.5 75.5t11.5 62.5t8.5 39.5l201 810h269l201 -810q3 -12 8.5 -39.5t12 -62.5t13.5 -75.5t13.5 -78.5t11.5 -72t8 -56q3 22 8.5 56.5t12.5 74t14.5 81 t14.5 79t12.5 68t8.5 45.5l164 790h302l-348 -1447h-349l-178 714q-4 15 -9.5 41.5t-12.5 60t-14 70.5t-13 71.5t-10.5 63.5t-5.5 47q-2 -18 -6.5 -47t-10.5 -63t-12.5 -71t-13 -70.5t-12.5 -61t-10 -43.5l-176 -712h-350zM558 1868v20h338q16 -33 37.5 -73.5t44 -80.5 t46.5 -77.5t45 -66.5v-26h-201q-34 27 -81 68t-92.5 85t-83 84t-53.5 67z" />
<glyph unicode="&#x1e81;" horiz-adv-x="1634" d="M0 1107h300l112 -490q9 -39 18.5 -93t17.5 -109t15 -104l11 -77h6q1 18 4.5 48.5t8.5 65t10.5 70.5t11 68t10 56t7.5 34l120 531h333l116 -531q5 -22 13 -67.5t16 -97.5t14 -101t7 -76h6q3 24 10.5 72.5t16.5 104.5t19.5 111.5t19.5 94.5l115 490h296l-301 -1107h-329 l-85 387q-4 17 -10.5 48t-14.5 70t-16.5 83.5t-17.5 87.5q-19 102 -43 220h-6q-23 -118 -42 -221q-8 -43 -16.5 -87.5t-16 -84t-14 -71t-10.5 -49.5l-89 -383h-325zM463 1533v20h338q16 -33 37.5 -73.5t44 -80.5t46.5 -77.5t45 -66.5v-26h-201q-34 27 -81 68t-92.5 85 t-83 84t-53.5 67z" />
<glyph unicode="&#x1e82;" horiz-adv-x="1879" d="M0 1447h302l164 -790q3 -15 8.5 -45.5t12.5 -68t14.5 -79t14.5 -81t13 -74t9 -56.5q3 22 8 56t11 72t13.5 78.5t13.5 75.5t11.5 62.5t8.5 39.5l201 810h269l201 -810q3 -12 8.5 -39.5t12 -62.5t13.5 -75.5t13.5 -78.5t11.5 -72t8 -56q3 22 8.5 56.5t12.5 74t14.5 81 t14.5 79t12.5 68t8.5 45.5l164 790h302l-348 -1447h-349l-178 714q-4 15 -9.5 41.5t-12.5 60t-14 70.5t-13 71.5t-10.5 63.5t-5.5 47q-2 -18 -6.5 -47t-10.5 -63t-12.5 -71t-13 -70.5t-12.5 -61t-10 -43.5l-176 -712h-350zM807 1564v26q20 29 44 66.5t47.5 77.5t44 80.5 t36.5 73.5h339v-20q-11 -18 -32 -42.5t-47.5 -52t-57.5 -57t-62 -57t-60 -52.5t-51 -43h-201z" />
<glyph unicode="&#x1e83;" horiz-adv-x="1634" d="M0 1107h300l112 -490q9 -39 18.5 -93t17.5 -109t15 -104l11 -77h6q1 18 4.5 48.5t8.5 65t10.5 70.5t11 68t10 56t7.5 34l120 531h333l116 -531q5 -22 13 -67.5t16 -97.5t14 -101t7 -76h6q3 24 10.5 72.5t16.5 104.5t19.5 111.5t19.5 94.5l115 490h296l-301 -1107h-329 l-85 387q-4 17 -10.5 48t-14.5 70t-16.5 83.5t-17.5 87.5q-19 102 -43 220h-6q-23 -118 -42 -221q-8 -43 -16.5 -87.5t-16 -84t-14 -71t-10.5 -49.5l-89 -383h-325zM662 1229v26q20 29 44 66.5t47.5 77.5t44 80.5t36.5 73.5h339v-20q-11 -18 -32 -42.5t-47.5 -52t-57.5 -57 t-62 -57t-60 -52.5t-51 -43h-201z" />
<glyph unicode="&#x1e84;" horiz-adv-x="1879" d="M0 1447h302l164 -790q3 -15 8.5 -45.5t12.5 -68t14.5 -79t14.5 -81t13 -74t9 -56.5q3 22 8 56t11 72t13.5 78.5t13.5 75.5t11.5 62.5t8.5 39.5l201 810h269l201 -810q3 -12 8.5 -39.5t12 -62.5t13.5 -75.5t13.5 -78.5t11.5 -72t8 -56q3 22 8.5 56.5t12.5 74t14.5 81 t14.5 79t12.5 68t8.5 45.5l164 790h302l-348 -1447h-349l-178 714q-4 15 -9.5 41.5t-12.5 60t-14 70.5t-13 71.5t-10.5 63.5t-5.5 47q-2 -18 -6.5 -47t-10.5 -63t-12.5 -71t-13 -70.5t-12.5 -61t-10 -43.5l-176 -712h-350zM598 1726q0 35 10.5 60t29 41.5t43.5 24.5t54 8 t54 -8t44 -24.5t30.5 -41.5t11.5 -60q0 -34 -11.5 -58.5t-30.5 -41t-44 -24.5t-54 -8t-54 8t-43.5 24.5t-29 41t-10.5 58.5zM996 1726q0 35 11 60t30 41.5t44.5 24.5t55.5 8q28 0 53 -8t44.5 -24.5t31 -41.5t11.5 -60q0 -34 -11.5 -58.5t-31 -41t-44.5 -24.5t-53 -8 q-59 0 -100 33t-41 99z" />
<glyph unicode="&#x1e85;" horiz-adv-x="1634" d="M0 1107h300l112 -490q9 -39 18.5 -93t17.5 -109t15 -104l11 -77h6q1 18 4.5 48.5t8.5 65t10.5 70.5t11 68t10 56t7.5 34l120 531h333l116 -531q5 -22 13 -67.5t16 -97.5t14 -101t7 -76h6q3 24 10.5 72.5t16.5 104.5t19.5 111.5t19.5 94.5l115 490h296l-301 -1107h-329 l-85 387q-4 17 -10.5 48t-14.5 70t-16.5 83.5t-17.5 87.5q-19 102 -43 220h-6q-23 -118 -42 -221q-8 -43 -16.5 -87.5t-16 -84t-14 -71t-10.5 -49.5l-89 -383h-325zM477 1391q0 35 10.5 60t29 41.5t43.5 24.5t54 8t54 -8t44 -24.5t30.5 -41.5t11.5 -60q0 -34 -11.5 -58.5 t-30.5 -41t-44 -24.5t-54 -8t-54 8t-43.5 24.5t-29 41t-10.5 58.5zM875 1391q0 35 11 60t30 41.5t44.5 24.5t55.5 8q28 0 53 -8t44.5 -24.5t31 -41.5t11.5 -60q0 -34 -11.5 -58.5t-31 -41t-44.5 -24.5t-53 -8q-59 0 -100 33t-41 99z" />
<glyph unicode="&#x1ef2;" horiz-adv-x="1184" d="M0 1447h333l259 -596l261 596h331l-440 -884v-563h-304v553zM218 1868v20h338q16 -33 37.5 -73.5t44 -80.5t46.5 -77.5t45 -66.5v-26h-201q-34 27 -81 68t-92.5 85t-83 84t-53.5 67z" />
<glyph unicode="&#x1ef3;" horiz-adv-x="1092" d="M0 1107h331l178 -623q16 -51 23.5 -109.5t9.5 -105.5h5q2 23 5.5 50.5t8.5 56.5t11.5 57t13.5 51l174 623h333l-438 -1249q-61 -175 -167 -260t-265 -85q-52 0 -89.5 5.5t-64.5 11.5v239q21 -5 52.5 -9t66.5 -4q48 0 81.5 13t57.5 36.5t41.5 56t30.5 73.5l19 55z M164 1533v20h338q16 -33 37.5 -73.5t44 -80.5t46.5 -77.5t45 -66.5v-26h-201q-34 27 -81 68t-92.5 85t-83 84t-53.5 67z" />
<glyph unicode="&#x1f4d;" horiz-adv-x="1613" d="M199 728q0 168 39 305t119 234t202.5 150t289.5 53t288.5 -53t201 -150.5t119 -234.5t39.5 -306q0 -168 -39.5 -305.5t-119.5 -235.5t-202 -151.5t-289 -53.5q-166 0 -288.5 53.5t-202 151.5t-118.5 236t-39 307zM515 726q0 -114 19.5 -204.5t60.5 -153.5t103.5 -96.5 t148.5 -33.5q88 0 151 33.5t103 96.5t59.5 153.5t19.5 204.5t-19.5 204.5t-59.5 153.5t-102.5 97t-149.5 34q-86 0 -149.5 -34t-104.5 -97t-60.5 -153.5t-19.5 -204.5zM-394 1253q0 34 15.5 67.5t50.5 62t90 49.5t134 32v-73q-72 -22 -106.5 -40t-34.5 -47q0 -18 18.5 -27 t40.5 -17.5t40.5 -21t18.5 -40.5q0 -37 -31 -59t-97 -22q-28 0 -54 8t-44.5 24.5t-29.5 42.5t-11 61zM-52 1126v25q8 29 19 66.5t22.5 78t22 80.5t18.5 73h259v-19q-15 -34 -38.5 -72t-51 -78t-57.5 -79.5t-58 -74.5h-136z" />
<glyph unicode="&#x2000;" horiz-adv-x="1013" />
<glyph unicode="&#x2001;" horiz-adv-x="2027" />
<glyph unicode="&#x2002;" horiz-adv-x="1013" />
<glyph unicode="&#x2003;" horiz-adv-x="2027" />
<glyph unicode="&#x2004;" horiz-adv-x="676" />
<glyph unicode="&#x2005;" horiz-adv-x="506" />
<glyph unicode="&#x2006;" horiz-adv-x="337" />
<glyph unicode="&#x2007;" />
<glyph unicode="&#x2008;" horiz-adv-x="543" />
<glyph unicode="&#x2009;" horiz-adv-x="405" />
<glyph unicode="&#x200a;" horiz-adv-x="202" />
<glyph unicode="&#x200b;" horiz-adv-x="0" />
<glyph unicode="&#x2010;" horiz-adv-x="652" d="M60 420v247h532v-247h-532z" />
<glyph unicode="&#x2011;" horiz-adv-x="652" d="M60 420v247h532v-247h-532z" />
<glyph unicode="&#x2012;" horiz-adv-x="652" d="M60 420v247h532v-247h-532z" />
<glyph unicode="&#x2013;" horiz-adv-x="1013" d="M81 432v227h852v-227h-852z" />
<glyph unicode="&#x2014;" horiz-adv-x="2027" d="M81 432v227h1865v-227h-1865z" />
<glyph unicode="&#x2015;" horiz-adv-x="2027" d="M81 432v227h1865v-227h-1865z" />
<glyph unicode="&#x2017;" horiz-adv-x="833" d="M-4 -45h842v-137h-842v137zM-4 -321h842v-137h-842v137z" />
<glyph unicode="&#x2018;" horiz-adv-x="435" d="M23 973q14 54 33 114t42 121.5t48.5 122.5t50.5 116h217q-15 -60 -29.5 -125.5t-27.5 -130t-24 -126t-19 -114.5h-277z" />
<glyph unicode="&#x2019;" horiz-adv-x="435" d="M23 951q14 60 28 125t27.5 130.5t24.5 127t19 113.5h277l15 -21q-14 -55 -33.5 -115t-42.5 -121.5t-48.5 -122t-49.5 -116.5h-217z" />
<glyph unicode="&#x201a;" horiz-adv-x="588" d="M62 -261q15 60 29.5 125.5t28 130t24 126.5t18.5 115h278l14 -23q-13 -54 -32.5 -114t-43 -121.5t-48.5 -122.5t-50 -116h-218z" />
<glyph unicode="&#x201b;" horiz-adv-x="435" d="M23 1426l14 21h277q8 -52 19 -113.5t24 -127t27.5 -130.5t29.5 -125h-217q-25 56 -50.5 116.5t-48.5 122t-42 121.5t-33 115z" />
<glyph unicode="&#x201c;" horiz-adv-x="897" d="M23 973q14 54 33 114t42 121.5t48.5 122.5t50.5 116h217q-15 -60 -29.5 -125.5t-27.5 -130t-24 -126t-19 -114.5h-277zM484 973q14 54 34 114t42.5 121.5t48.5 122.5t50 116h217q-15 -60 -29 -125.5t-27.5 -130t-24.5 -126t-19 -114.5h-277z" />
<glyph unicode="&#x201d;" horiz-adv-x="897" d="M23 951q14 60 28 125t27.5 130.5t24.5 127t19 113.5h277l15 -21q-14 -55 -33.5 -115t-42.5 -121.5t-48.5 -122t-49.5 -116.5h-217zM484 951q15 60 29.5 125t27.5 130.5t24 127t19 113.5h277l15 -21q-14 -55 -33 -115t-42.5 -121.5t-48.5 -122t-50 -116.5h-218z" />
<glyph unicode="&#x201e;" horiz-adv-x="1050" d="M62 -261q15 60 29.5 125.5t28 130t24 126.5t18.5 115h278l14 -23q-13 -54 -32.5 -114t-43 -121.5t-48.5 -122.5t-50 -116h-218zM525 -261q15 60 29 125.5t27.5 130t24.5 126.5t19 115h277l15 -23q-14 -54 -33.5 -114t-42.5 -121.5t-48.5 -122.5t-50.5 -116h-217z" />
<glyph unicode="&#x2020;" horiz-adv-x="1046" d="M122 919v238l308 -29l-55 412h275l-54 -412l329 29v-238l-329 29l54 -948h-275l55 948z" />
<glyph unicode="&#x2021;" horiz-adv-x="1066" d="M122 343v239l328 -31l-46 227l46 211l-328 -30v239l328 -30l-55 372h276l-54 -372l327 30v-239l-327 30l46 -211l-46 -227l327 31v-239l-327 30l54 -373h-276l55 373z" />
<glyph unicode="&#x2022;" horiz-adv-x="762" d="M97 741q0 85 22 144t60 97t90 55t112 17q59 0 111 -17t90.5 -55t60.5 -97t22 -144t-22 -144t-60.5 -97.5t-90.5 -56t-111 -17.5q-60 0 -112 17.5t-90 56t-60 97.5t-22 144z" />
<glyph unicode="&#x2026;" horiz-adv-x="1733" d="M116 142q0 46 13.5 78t37 52t55 29t68.5 9q35 0 66 -9t55 -29t37.5 -52t13.5 -78q0 -45 -13.5 -76.5t-37.5 -52.5t-55 -30.5t-66 -9.5q-37 0 -68.5 9.5t-55 30.5t-37 52.5t-13.5 76.5zM693 142q0 46 13.5 78t37 52t56 29t68.5 9q35 0 66 -9t55 -29t37.5 -52t13.5 -78 q0 -45 -13.5 -76.5t-37.5 -52.5t-55 -30.5t-66 -9.5q-36 0 -68.5 9.5t-56 30.5t-37 52.5t-13.5 76.5zM1271 142q0 46 13.5 78t37 52t55.5 29t68 9q35 0 66 -9t55 -29t38 -52t14 -78q0 -45 -14 -76.5t-38 -52.5t-55 -30.5t-66 -9.5q-36 0 -68 9.5t-55.5 30.5t-37 52.5 t-13.5 76.5z" />
<glyph unicode="&#x202f;" horiz-adv-x="406" />
<glyph unicode="&#x2030;" horiz-adv-x="2536" d="M62 1016q0 107 20 191t62 142t106.5 88.5t153.5 30.5q85 0 150 -30.5t108.5 -88.5t65.5 -142t22 -191t-20 -192t-62.5 -143.5t-108 -90t-155.5 -31.5q-84 0 -148 31.5t-107 90t-65 143.5t-22 192zM312 1014q0 -126 22 -188t72 -62q48 0 71.5 61.5t23.5 188.5 q0 247 -95 247q-50 0 -72 -61t-22 -186zM371 0l803 1447h237l-803 -1447h-237zM1037 438q0 106 19.5 190.5t61 142.5t106 88.5t153.5 30.5q85 0 150 -30.5t108.5 -88.5t66 -142.5t22.5 -190.5q0 -107 -20.5 -192t-63 -143t-108 -89.5t-155.5 -31.5q-84 0 -147.5 31.5 t-106.5 89.5t-64.5 143t-21.5 192zM1285 436q0 -126 22.5 -188t71.5 -62t72 61.5t23 188.5q0 247 -95 247q-49 0 -71.5 -61t-22.5 -186zM1786 438q0 106 20 190.5t61.5 142.5t105.5 88.5t154 30.5q85 0 150 -30.5t108.5 -88.5t66 -142.5t22.5 -190.5q0 -107 -20.5 -192 t-63 -143t-107.5 -89.5t-156 -31.5q-84 0 -147.5 31.5t-106.5 89.5t-65 143t-22 192zM2035 436q0 -126 22.5 -188t70.5 -62q50 0 73.5 61.5t23.5 188.5q0 247 -97 247q-48 0 -70.5 -61t-22.5 -186z" />
<glyph unicode="&#x2032;" horiz-adv-x="539" d="M132 1447h276l-41 -522h-195z" />
<glyph unicode="&#x2033;" horiz-adv-x="957" d="M132 1447h276l-41 -522h-195zM549 1447h277l-41 -522h-195z" />
<glyph unicode="&#x2039;" horiz-adv-x="685" d="M81 542v25l306 451l217 -118l-215 -345l215 -344l-217 -118z" />
<glyph unicode="&#x203a;" horiz-adv-x="685" d="M81 211l215 344l-215 345l217 118l306 -451v-25l-306 -449z" />
<glyph unicode="&#x203c;" horiz-adv-x="1155" d="M116 142q0 46 13.5 78t37 52t55 29t68.5 9q35 0 66 -9t55 -29t37.5 -52t13.5 -78q0 -45 -13.5 -76.5t-37.5 -52.5t-55 -30.5t-66 -9.5q-37 0 -68.5 9.5t-55 30.5t-37 52.5t-13.5 76.5zM120 1447h342l-50 -967h-242zM694 142q0 46 13.5 78t37 52t55 29t68.5 9q35 0 66 -9 t55 -29t37.5 -52t13.5 -78q0 -45 -13.5 -76.5t-37.5 -52.5t-55 -30.5t-66 -9.5q-37 0 -68.5 9.5t-55 30.5t-37 52.5t-13.5 76.5zM698 1447h342l-50 -967h-242z" />
<glyph unicode="&#x2044;" horiz-adv-x="263" d="M-389 0l803 1447h236l-802 -1447h-237z" />
<glyph unicode="&#x205f;" horiz-adv-x="508" />
<glyph unicode="&#x207f;" horiz-adv-x="816" d="M101 756v691h160l27 -83h12q34 51 82 75.5t115 24.5q233 0 233 -247v-461h-196v397q0 76 -25.5 107.5t-74.5 31.5q-35 0 -61 -10t-42.5 -33.5t-24.5 -64t-8 -99.5v-329h-197z" />
<glyph unicode="&#x20a3;" d="M35 259v177h147v1011h830v-251h-528v-333h491v-251h-491v-176h272v-177h-272v-259h-302v259h-147z" />
</font>
</defs>
</svg>
